<?xml version="1.0" encoding="UTF-8"?><svg xmlns="http://www.w3.org/2000/svg" xmlns:xlink="http://www.w3.org/1999/xlink" viewBox="0 0 392.91 442.98"><defs><style>.cls-1{fill:#757575;}.cls-1,.cls-2,.cls-3,.cls-4,.cls-5,.cls-6,.cls-7{stroke-linecap:round;stroke-linejoin:round;}.cls-1,.cls-2,.cls-3,.cls-4,.cls-5,.cls-7,.cls-8{stroke:#263238;}.cls-2,.cls-9{fill:#bfbfbf;}.cls-3,.cls-10,.cls-11{fill:#fff;}.cls-4,.cls-12{fill:#999;}.cls-5,.cls-13,.cls-14{fill:#92e3a9;}.cls-6{stroke:#fff;}.cls-6,.cls-7,.cls-8{fill:none;}.cls-15{clip-path:url(#clippath);}.cls-16{fill:#263238;}.cls-17{clip-path:url(#clippath-1);}.cls-18{clip-path:url(#clippath-4);}.cls-19{clip-path:url(#clippath-3);}.cls-20{clip-path:url(#clippath-2);}.cls-21{clip-path:url(#clippath-7);}.cls-22{clip-path:url(#clippath-8);}.cls-23{clip-path:url(#clippath-6);}.cls-24{clip-path:url(#clippath-5);}.cls-25{clip-path:url(#clippath-9);}.cls-26{fill:rgba(255,255,255,.7);}.cls-26,.cls-27{opacity:.3;}.cls-28{clip-path:url(#clippath-12);}.cls-29{clip-path:url(#clippath-10);}.cls-30{clip-path:url(#clippath-11);}.cls-8{stroke-miterlimit:10;}.cls-31{opacity:.2;}.cls-11{opacity:.7;}.cls-14{opacity:.4;}</style><clipPath id="clippath"><path class="cls-2" d="M127.57,218.8l4.01,8.47s16.54,34.19,26.67,73.33c.24,.93,5.48,19.47,1.28,65.64l2.4,8.1-2.62,13.38s3.94,5.69,3.8,7.55c0,0-9.72,1.81-12.95,3.55-2.52,1.36-10.09,8.83-10.09,8.83-2.15-.44-2.33-9.13-2.33-9.13,0,0-4.5-77.07-5.78-80.39-1.28-3.32-9.18-17.64-21.47-50.41,0,0-.28,45.77-3.56,57.35-2.92,10.3,.54,39.13,.54,39.13l-1.97,32.09s6.92,7.19,1.31,9.12c0,0-3.75-7.21-14.43-8.85-5.43-.83-12.2,8.81-12.2,8.81-2.37-.76,1.01-12.87,1.01-12.87-7.57-57.12-1.98-46.78-3.49-74.7-.97-17.92-6.06-94.58-.09-100.81l49.99,1.81Z"/></clipPath><clipPath id="clippath-1"><path class="cls-5" d="M142.5,74.87h21.95c1.04,0,1.88,.84,1.88,1.88v15.7h-25.71v-15.7c0-1.04,.84-1.88,1.88-1.88Z" transform="translate(-7.04 14.46) rotate(-5.27)"/></clipPath><clipPath id="clippath-2"><path class="cls-5" d="M180.34,71.37h21.95c1.04,0,1.88,.84,1.88,1.88v15.7h-25.71v-15.7c0-1.04,.84-1.88,1.88-1.88Z" transform="translate(-6.56 17.92) rotate(-5.27)"/></clipPath><clipPath id="clippath-3"><path class="cls-5" d="M245.67,80.3l6.63,71.88-115.82,10.69-6.63-71.88c-.23-2.51,1.61-4.72,4.11-4.95l106.76-9.85c2.5-.23,4.72,1.6,4.95,4.11Z"/></clipPath><clipPath id="clippath-4"><path class="cls-3" d="M302.94,366.02s-12.99-4.79-15.55,4.79c0,0,2.32,10.55,.93,16.32-1.39,5.76-8.38,16.79-8.82,18.89-.85,4.09-.21,4.37-.21,4.37,0,0,5.09,2.94,11.93-.21,6.83-3.15,18.68-16.71,20.53-19.5,1.86-2.79-5.8-13.83-5.8-13.83l-3.02-10.83Z"/></clipPath><clipPath id="clippath-5"><path class="cls-5" d="M183.33,195.49h21.95c1.04,0,1.88,.84,1.88,1.88v15.7h-25.71v-15.7c0-1.04,.84-1.88,1.88-1.88Z" transform="translate(18.22 -15.9) rotate(4.91)"/></clipPath><clipPath id="clippath-6"><path class="cls-5" d="M221.19,198.74h21.95c1.04,0,1.88,.84,1.88,1.88v15.7h-25.71v-15.7c0-1.04,.84-1.88,1.88-1.88Z" transform="translate(18.63 -19.13) rotate(4.91)"/></clipPath><clipPath id="clippath-7"><path class="cls-5" d="M285.64,217.28l-6.18,71.92-115.88-9.96,6.18-71.92c.22-2.51,2.42-4.36,4.92-4.14l106.82,9.18c2.5,.22,4.36,2.41,4.14,4.92Z"/></clipPath><clipPath id="clippath-8"><path class="cls-3" d="M337.25,379.7s-5.54-3.96-17.01-3.16c0,0-.83,13.75-2.39,17.75-1.56,4-9.78,10.93-11.31,12.11-1.53,1.19-1.53,5.34-1.53,5.34h34.81s-.59-9.2-2.77-17.66l.2-14.39Z"/></clipPath><clipPath id="clippath-9"><path class="cls-4" d="M346.13,239.12s-22.21,4.35-43.99-2.71c-4.81-1.56-9.61-3.68-14.14-6.53,0,0,.06-1.4,.1-3.69,.18-8.94,.13-31.43-4.58-37.04-2.96-3.51-5.35-25.21,.44-36.18l17.71-14.24c24.52,4.79,29.7,11.28,33.75,25.28,.75,2.56,1.45,5.37,2.23,8.47,.85,3.38,1.65,7.51,2.41,12.05,3.68,22.38,6.07,54.59,6.07,54.59Z"/></clipPath><clipPath id="clippath-10"><path class="cls-5" d="M162.79,328.2h21.95c1.04,0,1.88,.84,1.88,1.88v15.7h-25.71v-15.7c0-1.04,.84-1.88,1.88-1.88Z"/></clipPath><clipPath id="clippath-11"><path class="cls-5" d="M200.79,328.2h21.95c1.04,0,1.88,.84,1.88,1.88v15.7h-25.71v-15.7c0-1.04,.84-1.88,1.88-1.88Z"/></clipPath><clipPath id="clippath-12"><path class="cls-5" d="M265.87,342.12v72.19h-116.31v-72.19c0-2.52,2.04-4.55,4.55-4.55h107.21c2.51,0,4.55,2.03,4.55,4.55Z"/></clipPath></defs><g id="Background_Simple"><path class="cls-11" d="M14.39,137.97s-27.88,71.99,11.3,144.5c39.17,72.52,119.88,110.8,184.47,143.55,64.59,32.75,131.66,16.8,163.53-36.84,31.87-53.64-11.85-91.93-11.9-168.42-.05-76.49,11.45-96.74-29.96-161.36C290.42-5.22,188.77-19.52,111.93,28.41,35.09,76.34,14.39,137.97,14.39,137.97Z"/><g><path class="cls-13" d="M56.47,83.35c13.45-16.08,31.63-28.52,53.31-28.26,36.99,.46,56.98,33.2,78.22,58.47,11.01,13.1,23.49,25.74,39.83,31.9,24.52,9.23,51.81,3.84,75.7-4.73,10.7-3.84,23.37-9.24,35.42-6.48,36.63,8.38,32.81,53.09,26.76,81.39-8.17,38.21-21.45,78.9-48.36,108.27-64.43,70.29-180.38,27.2-238.49-28.89-4.27-4.12-8.37-8.43-12.21-12.95-9.95-11.7-18.5-24.6-25.16-38.45-18.75-38.94-21.32-86.29-5.08-126.54,4.72-11.7,11.56-23.55,20.07-33.73Z"/><path class="cls-11" d="M56.47,83.35c13.45-16.08,31.63-28.52,53.31-28.26,36.99,.46,56.98,33.2,78.22,58.47,11.01,13.1,23.49,25.74,39.83,31.9,24.52,9.23,51.81,3.84,75.7-4.73,10.7-3.84,23.37-9.24,35.42-6.48,36.63,8.38,32.81,53.09,26.76,81.39-8.17,38.21-21.45,78.9-48.36,108.27-64.43,70.29-180.38,27.2-238.49-28.89-4.27-4.12-8.37-8.43-12.21-12.95-9.95-11.7-18.5-24.6-25.16-38.45-18.75-38.94-21.32-86.29-5.08-126.54,4.72-11.7,11.56-23.55,20.07-33.73Z"/></g></g><g id="Floor"><line class="cls-7" x1=".5" y1="414.31" x2="392.41" y2="414.31"/></g><g id="Window"><g><polyline class="cls-7" points="238.43 211.68 238.43 64.55 247.54 64.55"/><line class="cls-7" x1="238.43" y1="229.2" x2="238.43" y2="225.29"/><polyline class="cls-7" points="270.97 64.55 364.97 64.55 364.97 242.91 238.43 242.91"/><line class="cls-7" x1="259.44" y1="64.55" x2="267.7" y2="64.55"/><rect class="cls-7" x="243.19" y="69.29" width="117.03" height="168.87"/><polyline class="cls-7" points="354.77 78.34 354.77 148.46 248.63 148.46 248.63 143.89"/><polyline class="cls-7" points="248.63 133.17 248.63 74.27 354.77 74.27"/><line class="cls-7" x1="248.63" y1="140.37" x2="248.63" y2="135.93"/><line class="cls-7" x1="336.85" y1="153.73" x2="360.21" y2="153.73"/><line class="cls-7" x1="328.54" y1="153.73" x2="331.85" y2="153.73"/><line class="cls-7" x1="243.19" y1="153.73" x2="324.59" y2="153.73"/><polyline class="cls-7" points="295.82 148.46 295.82 146.05 305.6 146.05 305.6 147.42 301.7 147.42 301.7 148.46"/><path class="cls-7" d="M243.39,216.92s1.62,1.23,2.76,8.66c0,0,1.97-11.87,4.35-12.06,2.38-.19,1.9,7.73,1.9,7.73,0,0,.4-3.9,2.26-3.72,1.87,.18,0,8.05,0,8.05,0,0,2.24-6.13,4.36-6.03,2.12,.1-1.41,11.12-1.41,11.12,0,0,5.44-3.94,7.65-2.01,2.2,1.93-1.22,6.79-1.22,6.79,0,0,7.8-1.69,9.02,2.89"/><path class="cls-7" d="M273.05,233.9s3.4-2.23,6.07-1.19c0,0-1.7-2.59,0-4.18,1.7-1.59,3.89,4.18,3.89,4.18,0,0,.24-9.65,3.64-9.17,3.4,.49,0,9.17,0,9.17,0,0,6.07-5.39,7.53-3.51s-.97,4.7-.97,4.7c0,0,3.64-1.16,6.32,1.55,0,0,4.07-4.15,8.6-4.75,0,0-3.01-8.74-1.55-10.5,1.46-1.76,4.11,7.62,4.11,7.62,0,0,1.16-6.1,4.96-6.58,0,0-3.16-1.72-2.23-4.33s5.31,.61,5.31,.61c0,0-1.8-4.59,1.05-5.85,2.84-1.26,4.03,3.84,4.03,3.84,0,0,.79-5.34,4.13-5.05,3.32,.29,2.26,6.44,2.26,6.44,0,0,3.15-4.89,4.84-4.39,3.37,1,2.35,8.72,2.35,8.72,0,0,4.71-3.27,5.92-1.76,1.31,1.62-4.9,5.81-4.9,5.81,0,0,4.67,.52,7.58,3.24"/><path class="cls-7" d="M360.21,218.68s-.54-4.9-5.44-5.16c-4.9-.26,1.35,10.75,1.35,10.75,0,0-4.04-3.35-5.5-2.32-1.45,1.03,4.15,6.7,4.15,6.7,0,0-2.69-2.49-5.52-1.72-2.83,.77,1.62,8.66,1.62,8.66,0,0-5.9-1.55-12.46,1.46"/></g></g><g id="Table"><g><g><line class="cls-7" x1="193.14" y1="370.53" x2="193.14" y2="414.06"/><line class="cls-7" x1="193.14" y1="356.29" x2="193.14" y2="365.62"/><polyline class="cls-7" points="9.94 414.31 9.94 333.21 193.14 333.21 193.14 351.02"/><polyline class="cls-7" points="36.63 342.08 20.74 342.08 20.74 406.88"/><polyline class="cls-7" points="182.35 414.06 182.35 342.08 45.87 342.08"/><line class="cls-7" x1="174.73" y1="324.82" x2="169.68" y2="324.82"/><polyline class="cls-7" points="162.44 324.82 5.39 324.82 5.39 333.15 197.7 333.15 197.7 324.82 177.95 324.82"/></g><g><g><path class="cls-7" d="M16.22,271.37s15.05,1.19,15.68,12.29c0,0-15.24,7.02-15.68-12.29Z"/><path class="cls-7" d="M46,274.13s8.41-11.37,22-5.54c0,0-8.3,13.75-22,5.54Z"/><path class="cls-7" d="M66.84,238.24s2.42,21.87-17.49,15.85c0,0,6.32-16.08,17.49-15.85Z"/><path class="cls-7" d="M42.4,226.06s15.75,8.49,4.17,21.38c0,0-11.04-9.2-4.17-21.38Z"/><path class="cls-7" d="M23.02,245.61s17.12-1.73,17.12,14.12c0,0-17.12,.67-17.12-14.12Z"/><path class="cls-7" d="M35.85,292.62c-.25-5.32-.25-12.16,3-19.39,7.49-16.68,10.03-30.73,6.11-40.63"/><path class="cls-7" d="M28.65,249.87s10.26,4.08,13.75,14.65"/><path class="cls-7" d="M61.43,246.99s-5.93,8.08-15.98,7.21"/><path class="cls-7" d="M61.43,270.92s-16.42,4.73-22.95,3.18"/><path class="cls-7" d="M21.13,276.38s7.34,8.06,14.73,7.93"/></g><path class="cls-8" d="M55.38,292.62H19.69c-.48,0-.87,.39-.87,.87v2.71c0,.48,.39,.87,.87,.87h1.04l3.18,27.76h27.25l3.18-27.76h1.04c.48,0,.87-.39,.87-.87v-2.71c0-.48-.39-.87-.87-.87Z"/><line class="cls-7" x1="23.02" y1="297.06" x2="43.78" y2="297.06"/><line class="cls-7" x1="47.7" y1="297.06" x2="50.82" y2="297.06"/></g></g></g><g id="Character_2"><g><path class="cls-16" d="M79.86,414.31s-1.71-6.53,.29-8.94c3.59-4.34-.44-7.98,3.16-9.49l1.51,1.75c.29-1.78-.55-7.18,6.13-7.89,8.08-.85,8.23,5.03,8.66,6.96l-.13-2.71c3.44,0,1.66,3.44,6.88,9.06,3.98,4.29,3.99,9.79,3.77,11.25h-30.28Z"/><path class="cls-16" d="M141.47,414.31c-3.25-1.45-.26-13.7-.26-13.7,0,0-4.37-2.94,0-5.98,0,0,4.89,4.75,12.41,2.02,0,0,.85-8.2,5.98-7.15,0,0,1.32,5.2,4.32,8.16,8.15,8.04,18.69,8.96,20.45,12.84,.53,1.16-.11,3.81-.11,3.81h-42.79Z"/><g><g><path class="cls-9" d="M127.57,218.8l4.01,8.47s16.54,34.19,26.67,73.33c.24,.93,5.48,19.47,1.28,65.64l2.4,8.1-2.62,13.38s3.94,5.69,3.8,7.55c0,0-9.72,1.81-12.95,3.55-2.52,1.36-10.09,8.83-10.09,8.83-2.15-.44-2.33-9.13-2.33-9.13,0,0-4.5-77.07-5.78-80.39-1.28-3.32-9.18-17.64-21.47-50.41,0,0-.28,45.77-3.56,57.35-2.92,10.3,.54,39.13,.54,39.13l-1.97,32.09s6.92,7.19,1.31,9.12c0,0-3.75-7.21-14.43-8.85-5.43-.83-12.2,8.81-12.2,8.81-2.37-.76,1.01-12.87,1.01-12.87-7.57-57.12-1.98-46.78-3.49-74.7-.97-17.92-6.06-94.58-.09-100.81l49.99,1.81Z"/><g class="cls-15"><path class="cls-31" d="M74.72,245.19c26.73,2.11,49.89-6.64,59.93-11.21-1.9-4.29-3.08-6.71-3.08-6.71l-4.01-8.47-49.99-1.81c-2.15,2.24-2.86,13.67-2.85,28.2Z"/><path class="cls-31" d="M110.69,268.31c12.17,32.35,19.98,46.51,21.26,49.82,.73,1.91,2.52,28.08,3.92,50.05,1.61-19.98,3.25-41.07,3.4-45.21,.3-8.23-5.65-19.53-6.55-22.45-.9-2.91,1.13-6.08,1.13-6.08l-10.71-13.5c.36-4.58-5.3-24.57-5.3-24.57-3.37,3.19-6.34,9.98-7.14,11.93Z"/></g><path class="cls-7" d="M127.57,218.8l4.01,8.47s16.54,34.19,26.67,73.33c.24,.93,5.48,19.47,1.28,65.64l2.4,8.1-2.62,13.38s3.94,5.69,3.8,7.55c0,0-9.72,1.81-12.95,3.55-2.52,1.36-10.09,8.83-10.09,8.83-2.15-.44-2.33-9.13-2.33-9.13,0,0-4.5-77.07-5.78-80.39-1.28-3.32-9.18-17.64-21.47-50.41,0,0-.28,45.77-3.56,57.35-2.92,10.3,.54,39.13,.54,39.13l-1.97,32.09s6.92,7.19,1.31,9.12c0,0-3.75-7.21-14.43-8.85-5.43-.83-12.2,8.81-12.2,8.81-2.37-.76,1.01-12.87,1.01-12.87-7.57-57.12-1.98-46.78-3.49-74.7-.97-17.92-6.06-94.58-.09-100.81l49.99,1.81Z"/></g><path class="cls-7" d="M110.47,267.73s6.11-11.8,11.32-15.08"/><path class="cls-7" d="M124.08,248.83s-18.56,5.65-24.99,6.74"/><path class="cls-7" d="M114.58,229.88c.8,15.45,6.25,18.09,.98,21.46,0,0,.14,7.23-2.47,11.81"/><path class="cls-7" d="M82.05,223.98s2.19,23.75-5.12,28.22"/><path class="cls-7" d="M76.94,231.63s-.55,15.81,0,28.55c0,0,1.83,53.85,3.65,60.61,1.83,6.76-2.81,16.97-2.41,46.21"/><path class="cls-7" d="M94.48,389.91c-1.73-.33-3.56-.18-5.12,.68"/><path class="cls-7" d="M105.47,396.3c-2.29-2.19-4.96-4.11-7.87-5.39"/><path class="cls-7" d="M102.41,271.46c-4.1,4.59-10.59,13.26-17.25,14"/><path class="cls-7" d="M108.73,263.97c-1.26,1.59-2.56,3.15-3.88,4.7"/><path class="cls-7" d="M102.88,317.8s-9.32,12.69-14.43,13.42"/><path class="cls-7" d="M113.85,265.43s16.6,46.23,22.37,50.8c0,0,.66,33.99,.84,45.86,.18,11.88,2.92,27.66,2.92,27.66"/><path class="cls-7" d="M157.7,389.4s-6.4,2.21-9.5,3.62c-3.11,1.41-4.2,4.52-4.2,4.52"/><path class="cls-7" d="M141.53,299.56c-8.92-5.6-20.66-12.58-25.4-22.43"/><path class="cls-7" d="M149.29,304.17c-1.69-.93-3.35-1.91-4.99-2.9"/><path class="cls-7" d="M121.22,236.13c-4.79-.07-10.04-.7-14.13-3.4"/><path class="cls-7" d="M128.83,235.68c-1.37,.19-2.75,.31-4.14,.38"/></g><path class="cls-16" d="M137.71,129.52c-3.66-5.54-22.31-6.95-34.28-6.95s-26.5-2.02-33.06,11.5c-5.01,10.31,6.52,64.83,6.52,64.83l-2.83,23.54c21.68,6.8,58.83,5.3,58.83,5.3l-5-21.28s13.48-71.4,9.82-76.94Z"/><path class="cls-3" d="M96.33,108.88s1.61,12.83-3.28,15.6c0,0,2.44,9.41,10.98,9.99,8.54,.58,12.36-8.62,12.36-8.62l-20.07-16.97Z"/><g><g><path class="cls-13" d="M142.5,74.87h21.95c1.04,0,1.88,.84,1.88,1.88v15.7h-25.71v-15.7c0-1.04,.84-1.88,1.88-1.88Z" transform="translate(-7.04 14.46) rotate(-5.27)"/><g class="cls-17"><path class="cls-27" d="M142.5,74.87h21.95c1.04,0,1.88,.84,1.88,1.88v15.7h-25.71v-15.7c0-1.04,.84-1.88,1.88-1.88Z" transform="translate(-7.04 14.46) rotate(-5.27)"/><rect class="cls-26" x="158.51" y="75.76" width="6.33" height="12.66" transform="translate(-6.86 15.2) rotate(-5.27)"/></g><path class="cls-7" d="M142.5,74.87h21.95c1.04,0,1.88,.84,1.88,1.88v15.7h-25.71v-15.7c0-1.04,.84-1.88,1.88-1.88Z" transform="translate(-7.04 14.46) rotate(-5.27)"/></g><g><path class="cls-13" d="M180.34,71.37h21.95c1.04,0,1.88,.84,1.88,1.88v15.7h-25.71v-15.7c0-1.04,.84-1.88,1.88-1.88Z" transform="translate(-6.56 17.92) rotate(-5.27)"/><g class="cls-20"><path class="cls-27" d="M180.34,71.37h21.95c1.04,0,1.88,.84,1.88,1.88v15.7h-25.71v-15.7c0-1.04,.84-1.88,1.88-1.88Z" transform="translate(-6.56 17.92) rotate(-5.27)"/><rect class="cls-26" x="198.43" y="72.19" width="3.82" height="12.66" transform="translate(-6.37 18.74) rotate(-5.27)"/></g><path class="cls-7" d="M180.34,71.37h21.95c1.04,0,1.88,.84,1.88,1.88v15.7h-25.71v-15.7c0-1.04,.84-1.88,1.88-1.88Z" transform="translate(-6.56 17.92) rotate(-5.27)"/></g><path class="cls-5" d="M172.37,72.11h21.95c1.04,0,1.88,.84,1.88,1.88v15.7h-25.71v-15.7c0-1.04,.84-1.88,1.88-1.88Z" transform="translate(-6.66 17.19) rotate(-5.27)"/><path class="cls-5" d="M210.21,68.62h21.95c1.04,0,1.88,.84,1.88,1.88v15.7h-25.71v-15.7c0-1.04,.84-1.88,1.88-1.88Z" transform="translate(-6.18 20.65) rotate(-5.27)"/><rect class="cls-26" x="188.38" y="73" width="6.33" height="12.66" transform="translate(-6.48 17.94) rotate(-5.27)"/><rect class="cls-26" x="225.81" y="69.55" width="6.33" height="12.66" transform="translate(-6 21.36) rotate(-5.27)"/><g><path class="cls-13" d="M245.67,80.3l6.63,71.88-115.82,10.69-6.63-71.88c-.23-2.51,1.61-4.72,4.11-4.95l106.76-9.85c2.5-.23,4.72,1.6,4.95,4.11Z"/><g class="cls-19"><path class="cls-27" d="M245.67,80.3l6.63,71.88-115.82,10.69-6.63-71.88c-.23-2.51,1.61-4.72,4.11-4.95l106.76-9.85c2.5-.23,4.72,1.6,4.95,4.11Z"/></g><path class="cls-7" d="M245.67,80.3l6.63,71.88-115.82,10.69-6.63-71.88c-.23-2.51,1.61-4.72,4.11-4.95l106.76-9.85c2.5-.23,4.72,1.6,4.95,4.11Z"/></g><path class="cls-5" d="M245.67,80.3l6.63,71.88-85.94,7.93-6.63-71.88c-.23-2.51,1.61-4.72,4.11-4.95l76.88-7.09c2.5-.23,4.72,1.6,4.95,4.11Z"/><path class="cls-26" d="M240.09,83.39l-73.47,6.78c-1.03,.1-1.95-.67-2.04-1.7h0c-.1-1.03,.66-1.95,1.7-2.04l73.47-6.78c1.03-.1,1.95,.67,2.04,1.7h0c.1,1.03-.67,1.95-1.7,2.04Z"/></g><g><path class="cls-16" d="M110.99,83.44s-16.95-3.4-18.85,7.51c-1.9,10.91,4.32,15.55,4.32,15.55l14.52-23.06Z"/><path class="cls-3" d="M96.5,112.5c-1.74-4.86-2.37-10.58-.87-16.89,1.66-7.01,10.01-16.63,22.65-7.88,6.52,4.51,6.91,14.3,4.89,23.26-.48,2.14-.12,4.23-.83,6.19-2.5,6.9-7.07,12.21-9.57,12.34-4.18,.2-12.52-4.84-12.17-9.24"/><path class="cls-7" d="M113.34,109.33s-3.37-2.44-6.61-.44"/><path class="cls-7" d="M119.71,108.88s2.55-2.34,4.21-2.01"/><path class="cls-16" d="M108.58,113.07c0,.62,.32,1.12,.71,1.12s.71-.5,.71-1.12-.32-1.12-.71-1.12-.71,.5-.71,1.12Z"/><ellipse class="cls-16" cx="119.71" cy="112.45" rx=".71" ry="1.12"/><path class="cls-7" d="M118.28,111.24c-1.25,1.62,.5,7.8,0,8.23-.5,.44-3.68-.81-3.68-.81,0,0-.75-.94,.81-1.43"/><path class="cls-7" d="M115.4,122.57s-4.27,0-5.41-1.55"/><path class="cls-1" d="M105.23,99.47l-.33,5.16s-3.66,1.89-4.57,3.81-.58,4.01-.58,4.01c0,0-2.22-3.88-3.41-3.56-.43,.12-.43,1.74-.43,1.74,0,0-4.97-11.15-.48-17.06s9.82,5.91,9.82,5.91Z"/><path class="cls-3" d="M98.18,111.32s-1-3.74-4.37-4.74-1.06,7.98,1.81,9.17c2.87,1.19,3.59,2,3.76,.94"/><path class="cls-16" d="M93.59,98.81c-.28-.38-1.51-9.98,4.83-14.32,6.35-4.34,17.08-3.86,23.92,2.12,6.83,5.98,4.88,16.35,0,19.89v-4.33s-2.25,4.34-9,4.7l2.06-3.18s-3.31,1.95-9.17,1.83c0,0,2.75-2.2,2.35-4.15,0,0-9.29,5.23-14.99-2.57Z"/></g><path class="cls-3" d="M94.78,133.5c-4.68,.56-11.33,6.67-6.97,17.52,2.77,6.88,25.53,2.79,25.53,2.79,8.44-3.47,20.77-16,29.82-21.81,0,0-1.91-11.99-4.11-10.3-10.22,7.83-18.64,8.37-32.9,15.23,0,0-8.42-3.78-11.36-3.43Z"/><path class="cls-3" d="M105.23,146.81c-.14,4.48,1.7,5.27,4.8,6.33"/><path class="cls-3" d="M138.34,122.57c.21-.65,3.96-7.3,5.07-9s5.85-3.22,7.7-4.24c1.85-1.02,1.98-2.57,3.03-1.46,1.05,1.11,0,3.64-5.54,6.33,0,0,4.42,.21,5.9,0,1.48-.21,2.8-1.56,3.46-.62,.66,.94,.79,2.6-2.51,3.61-3.3,1.02-4.88,.96-4.88,.96,0,0,4.22,.99,4.75,1.38s1.32,1.3,2.11,1.44c.79,.14,1.65,1.02,.2,2.05-1.45,1.03-3.36,.07-3.36,.07,0,0,3.82,1.85,2.64,3.03-1.19,1.19-5.01,.92-5.01,.92,0,0-5.67,6.86-10.42,5.41"/><path class="cls-7" d="M145.11,113.57s1.05,.15,1.38,1.33c.33,1.19,1.29,1.25,1.89,2.57s.42,3.37,1.01,4.06c.59,.69,0,3.66,0,3.66"/><path class="cls-6" d="M95.77,132.64c-2.45-3.12-7.95-1.71-7.95-1.71"/><path class="cls-6" d="M84.82,125.19s5.66,.83,7.33,5.54"/><path class="cls-6" d="M94.78,155.01s-5.52,4.27-13.92-1.87"/><path class="cls-6" d="M87.82,156.29s-2.8,3.87-9.63,3.82"/><path class="cls-6" d="M122.89,204.99s-14.44,11.5-29.11,10.03"/><path class="cls-6" d="M83.86,179.7s22.42,16.44,39.03,17.49"/></g></g><g id="Character_3"><g><path class="cls-16" d="M275.17,181.97l-4.04,21.75-32.62,19.82,4.51,8.28s37.71-11.51,38.63-14.19c.91-2.69,9.62-31.18,9.62-31.18l-16.09-4.48Z"/><path class="cls-4" d="M289.41,145.22l-2.18,26.36-1.15,13.83c-6.29,3.06-12.44-1.54-12.82-1.84-.01-.01-.02-.01-.02-.01,1.77-5.01,3.76-33.34,16.17-38.34Z"/><path class="cls-16" d="M287.23,171.58l-1.15,13.83c-6.29,3.06-12.44-1.54-12.82-1.84,.27,.12,3.58,1.52,5.73-.01,0,0-1.85-2.11-1.98-2.64-.13-.52,1.98-.66,1.98-.66,0,0-1.4-11.21,2.33-15.95,1.46-1.86,3.74,1.94,5.91,7.27Z"/><g><path class="cls-5" d="M312.05,389.33l1.04,2.93s-2.41,4.05-5.08,7.15c0,0-1.03-.33-2.64,1.12-1.62,1.45-1.76,3.76-1.76,3.76,0,0-7.63,9.16-17.33,9.29-9.7,.13-6.77-4.75-6.77-4.75l32.54-19.51Z"/><g><path class="cls-10" d="M302.94,366.02s-12.99-4.79-15.55,4.79c0,0,2.32,10.55,.93,16.32-1.39,5.76-8.38,16.79-8.82,18.89-.85,4.09-.21,4.37-.21,4.37,0,0,5.09,2.94,11.93-.21,6.83-3.15,18.68-16.71,20.53-19.5,1.86-2.79-5.8-13.83-5.8-13.83l-3.02-10.83Z"/><g class="cls-18"><path class="cls-14" d="M302.94,366.02s-12.99-4.79-15.55,4.79c0,0,2.32,10.55,.93,16.32-1.39,5.76-8.38,16.79-8.82,18.89-.85,4.09-.21,4.37-.21,4.37,0,0,5.09,2.94,11.93-.21,6.83-3.15,18.68-16.71,20.53-19.5,1.86-2.79-5.8-13.83-5.8-13.83l-3.02-10.83Z"/></g><path class="cls-7" d="M302.94,366.02s-12.99-4.79-15.55,4.79c0,0,2.32,10.55,.93,16.32-1.39,5.76-8.38,16.79-8.82,18.89-.85,4.09-.21,4.37-.21,4.37,0,0,5.09,2.94,11.93-.21,6.83-3.15,18.68-16.71,20.53-19.5,1.86-2.79-5.8-13.83-5.8-13.83l-3.02-10.83Z"/></g><path class="cls-7" d="M296.29,379.56s2.16,9.57-3.25,18.81"/><path class="cls-5" d="M293.04,400.87s-1.39,3.96-5.57,5.14c-4.18,1.18-7.97,0-7.97,0l3.12-6.33s4.53,2.08,10.41,1.18Z"/><path class="cls-7" d="M294.87,397.06s-6.8,.41-10.35-.98"/><path class="cls-7" d="M296.13,393.3s-6.36,.97-9.91-1.04"/><path class="cls-7" d="M297.22,389.14s-5.57,.81-9.21-.91"/><path class="cls-7" d="M297.83,384.41s-6.2,1.94-9.13,0"/><path class="cls-5" d="M298.76,372.75l1.08,6.81s-8.2,5.41-13.62-1.34l.02-7.11s2.01,4.79,12.51,1.64Z"/></g><path class="cls-16" d="M291.64,219.88c-8.31,26.33-34.1,68.56-31.48,79.36,1.43,5.9,9.94,39.34,16.59,54.04,2.54,5.61,8,9.36,8,9.36l3.95,8.47c9.63,4.19,13.08-4.34,13.08-4.34l-1.94-9.6c5.16-9.38,2.96-9.38-3.71-58-.79-5.73,12.5-23.44,12.5-23.44l6.83,44.54,1.11,36.5,3.55,11.28s.87,10.59,.8,11.23h15.82l1.75-11.64s7.35-6.93,7.35-14.93-1.58-48.75,0-60.62c1.58-11.87-3.71-67.21-3.71-67.21l-50.49-5.01Z"/><g><g><path class="cls-13" d="M183.33,195.49h21.95c1.04,0,1.88,.84,1.88,1.88v15.7h-25.71v-15.7c0-1.04,.84-1.88,1.88-1.88Z" transform="translate(18.22 -15.9) rotate(4.91)"/><g class="cls-24"><path class="cls-27" d="M183.33,195.49h21.95c1.04,0,1.88,.84,1.88,1.88v15.7h-25.71v-15.7c0-1.04,.84-1.88,1.88-1.88Z" transform="translate(18.22 -15.9) rotate(4.91)"/><rect class="cls-26" x="199.49" y="197.85" width="6.33" height="12.66" transform="translate(18.24 -16.61) rotate(4.91)"/></g><path class="cls-7" d="M183.33,195.49h21.95c1.04,0,1.88,.84,1.88,1.88v15.7h-25.71v-15.7c0-1.04,.84-1.88,1.88-1.88Z" transform="translate(18.22 -15.9) rotate(4.91)"/></g><g><path class="cls-13" d="M221.19,198.74h21.95c1.04,0,1.88,.84,1.88,1.88v15.7h-25.71v-15.7c0-1.04,.84-1.88,1.88-1.88Z" transform="translate(18.63 -19.13) rotate(4.91)"/><g class="cls-23"><path class="cls-27" d="M221.19,198.74h21.95c1.04,0,1.88,.84,1.88,1.88v15.7h-25.71v-15.7c0-1.04,.84-1.88,1.88-1.88Z" transform="translate(18.63 -19.13) rotate(4.91)"/><rect class="cls-26" x="239.44" y="201.18" width="3.82" height="12.66" transform="translate(18.66 -19.91) rotate(4.91)"/></g><path class="cls-7" d="M221.19,198.74h21.95c1.04,0,1.88,.84,1.88,1.88v15.7h-25.71v-15.7c0-1.04,.84-1.88,1.88-1.88Z" transform="translate(18.63 -19.13) rotate(4.91)"/></g><path class="cls-5" d="M213.22,198.06h21.95c1.04,0,1.88,.84,1.88,1.88v15.7h-25.71v-15.7c0-1.04,.84-1.88,1.88-1.88Z" transform="translate(18.54 -18.45) rotate(4.91)"/><path class="cls-5" d="M251.08,201.31h21.95c1.04,0,1.88,.84,1.88,1.88v15.7h-25.71v-15.7c0-1.04,.84-1.88,1.88-1.88Z" transform="translate(18.96 -21.68) rotate(4.91)"/><rect class="cls-26" x="229.38" y="200.42" width="6.33" height="12.66" transform="translate(18.57 -19.16) rotate(4.91)"/><rect class="cls-26" x="266.83" y="203.64" width="6.33" height="12.66" transform="translate(18.98 -22.36) rotate(4.91)"/><g><path class="cls-13" d="M285.64,217.28l-6.18,71.92-115.88-9.96,6.18-71.92c.22-2.51,2.42-4.36,4.92-4.14l106.82,9.18c2.5,.22,4.36,2.41,4.14,4.92Z"/><g class="cls-21"><path class="cls-27" d="M285.64,217.28l-6.18,71.92-115.88-9.96,6.18-71.92c.22-2.51,2.42-4.36,4.92-4.14l106.82,9.18c2.5,.22,4.36,2.41,4.14,4.92Z"/></g><path class="cls-7" d="M285.64,217.28l-6.18,71.92-115.88-9.96,6.18-71.92c.22-2.51,2.42-4.36,4.92-4.14l106.82,9.18c2.5,.22,4.36,2.41,4.14,4.92Z"/></g><path class="cls-5" d="M285.64,217.28l-6.18,71.92-85.99-7.39,6.18-71.92c.22-2.51,2.42-4.36,4.92-4.14l76.93,6.61c2.5,.22,4.36,2.41,4.14,4.92Z"/><path class="cls-26" d="M279.61,219.34l-73.51-6.32c-1.03-.09-1.8-1-1.71-2.03h0c.09-1.03,1-1.8,2.03-1.71l73.51,6.32c1.03,.09,1.8,1,1.71,2.03h0c-.09,1.03-1,1.8-2.03,1.71Z"/></g><g><g><path class="cls-10" d="M337.25,379.7s-5.54-3.96-17.01-3.16c0,0-.83,13.75-2.39,17.75-1.56,4-9.78,10.93-11.31,12.11-1.53,1.19-1.53,5.34-1.53,5.34h34.81s-.59-9.2-2.77-17.66l.2-14.39Z"/><g class="cls-22"><path class="cls-14" d="M337.25,379.7s-5.54-3.96-17.01-3.16c0,0-.83,13.75-2.39,17.75-1.56,4-9.78,10.93-11.31,12.11-1.53,1.19-1.53,5.34-1.53,5.34h34.81s-.59-9.2-2.77-17.66l.2-14.39Z"/></g><path class="cls-7" d="M337.25,379.7s-5.54-3.96-17.01-3.16c0,0-.83,13.75-2.39,17.75-1.56,4-9.78,10.93-11.31,12.11-1.53,1.19-1.53,5.34-1.53,5.34h34.81s-.59-9.2-2.77-17.66l.2-14.39Z"/></g><path class="cls-7" d="M330.06,381.48s-.82,12.66-2.79,15.96c-1.96,3.3-3.86,5.01-3.86,5.01"/><path class="cls-5" d="M322.42,404.23s-1.75,2.18-3.69,2.47c-1.95,.3-12.19-.3-12.19-.3l4.18-3.61s8.54-1.43,11.7,1.44Z"/><path class="cls-7" d="M326.08,401.26s-7.42-4.27-12.71-1.05"/><path class="cls-7" d="M327.87,398.36s-5.18-4.05-11.29-1.83"/><path class="cls-7" d="M330.06,393.95s-5.58-4.33-11.46-1.57"/><path class="cls-7" d="M330.82,388.44s-6.76-3.64-11.69-.88"/><path class="cls-5" d="M339.82,411.74v2.57h-3.99s-3.43-1.98-6.69,0h-18.79c-3.26,0-5.74-1.29-5.74-1.29l.4-1.29h34.81Z"/><path class="cls-5" d="M334.83,378.91l-.89,5.6s-10.45-3.39-16.22-1.19v-6.9s10.75-3.78,17.11,2.48Z"/></g><g><path class="cls-12" d="M346.13,239.12s-22.21,4.35-43.99-2.71c-4.81-1.56-9.61-3.68-14.14-6.53,0,0,.06-1.4,.1-3.69,.18-8.94,.13-31.43-4.58-37.04-2.96-3.51-5.35-25.21,.44-36.18l17.71-14.24c24.52,4.79,29.7,11.28,33.75,25.28,.75,2.56,1.45,5.37,2.23,8.47,.85,3.38,1.65,7.51,2.41,12.05,3.68,22.38,6.07,54.59,6.07,54.59Z"/><g class="cls-25"><path class="cls-31" d="M340.06,184.53l-10,44.67s-14.45,4.04-27.92,7.21c-4.81-1.56-9.61-3.68-14.14-6.53,0,0,.06-1.4,.1-3.69,12.1-6.19,29.76-15.29,29.62-15.72-.23-.67,0-24.01,0-24.01,0,0,15.95-3.71,17.7-22.45,.75,2.56,1.45,5.37,2.23,8.47,.85,3.38,1.65,7.51,2.41,12.05Z"/></g><path class="cls-7" d="M346.13,239.12s-22.21,4.35-43.99-2.71c-4.81-1.56-9.61-3.68-14.14-6.53,0,0,.06-1.4,.1-3.69,.18-8.94,.13-31.43-4.58-37.04-2.96-3.51-5.35-25.21,.44-36.18l17.71-14.24c24.52,4.79,29.7,11.28,33.75,25.28,.75,2.56,1.45,5.37,2.23,8.47,.85,3.38,1.65,7.51,2.41,12.05,3.68,22.38,6.07,54.59,6.07,54.59Z"/></g><path class="cls-3" d="M302.47,120.09s-7.82,11.2,2.58,19.94c0,0-12.62,14.17-16.77,12.22-1.75-.82,0-5.93,0-5.93l-7.32-13.53,21.51-12.68Z"/><g><path class="cls-3" d="M299.9,125.83c2.45-10.67,1.27-26.56-13.68-25.15-10.48,.99-17.95,6.79-15.04,20.85,1.23,5.94,2.24,14.34,7.68,21.91,1.51,2.1,17.31-5.33,16.36-11.34"/><path class="cls-7" d="M278.51,119.22s3.14-1.44,6.49,.63"/><path class="cls-7" d="M270.99,120.53s.5-1.36,2.25-1.03"/><path class="cls-3" d="M274.73,122.75s-3.08,5.61-3.09,6.41c0,.8,3.79,1.06,3.79,1.06"/><path class="cls-16" d="M281.35,123.9c.02,.61-.27,1.11-.65,1.13-.38,.01-.7-.47-.72-1.08-.02-.61,.27-1.11,.65-1.13,.38-.01,.7,.47,.72,1.08Z"/><path class="cls-7" d="M277,134.31s5.92-1.11,6.96-3.19"/><path class="cls-16" d="M270.95,111.91l4.6-1.34s6.45-2.95,7.82-2.58c1.37,.37,4.15,4.7,4.07,7.14,0,0,4.33,3.81,4.88,9.36l1.33-.61s-.07-4.97,2.77-4.87,4.12,3.53,3.92,4.6c-.2,1.07-3.29,5.51-3.29,5.51,0,0,7.11-1.06,7.35-14.96,.23-13.9-15.05-16.3-22.48-15.7-7.43,.6-11.32,.42-11.32,.42l.42,3.97-3.04,.79,2.27,2.77-2.48,1.14,3.19,4.36Z"/></g><path class="cls-6" d="M296.71,263.89s18.11,4.79,23.01,18.27"/><path class="cls-6" d="M305.01,271.14s-9.79,16.29-24.76,24.75"/><path class="cls-6" d="M291.26,362.74s5.56-1.25,7.07-3.41"/><path class="cls-6" d="M322.22,364.82s5.44-2.82,10.85,0"/><path class="cls-6" d="M339.82,288.98s-9.13,23.65-13.75,25.84"/><path class="cls-6" d="M299.85,251.93c.25,2.57,11.02,14.48,19.87,19.21"/><path class="cls-6" d="M309.02,241.89s2.15,4.71,.76,10.05,0,8.86,0,8.86"/><path class="cls-7" d="M289.41,192.7s16.83,21.79,34.92,28.94"/><path class="cls-7" d="M306.87,157.5s-.06,14.81,10.62,21.49"/><g><path class="cls-3" d="M312.88,179.1c-2.26,2.23,.21,30.08,.21,30.08,0,0-13.14,5.15-17.24,8.46s-23.59,10.91-23.59,10.91c0,0-3,10.22,.75,10.57,3.74,.35,42.47-12.85,51.33-17.48,0,0,5.77-34.03,5.73-42.65"/><path class="cls-3" d="M273.8,227.94c-1.8-.34-4.96-1.52-6.68-1.13-1.71,.4-4.75,2.24-7.91,3.03-3.16,.79-1.85,1.98,0,2.37,1.85,.4,4.09,0,4.09,0l-2.56,2.51s-4.06,2.11-4.56,2.11c-.92,0-4.22,.9-3.96,2.3,.26,1.4,2.11,1.24,4.22,1.32,0,0-3.36,.67-3.03,2.59,.23,1.31,3.96,.13,5.93,.13,0,0-1.58,1.71-.4,2.24s3.79-.79,3.79-.79c0,0-.1,1.42,1.09,1.57s4.15-1.04,6.16-2.23,3.81-2.73,5.71-4.22c1.9-1.49,2.59-1.67,2.59-1.67"/><path class="cls-7" d="M256.44,240.44s1.98-.12,2.77-.32c.79-.2,1.58-.46,1.58-.46"/><path class="cls-7" d="M259.34,243.16s2.24-.33,3.43-1.19"/><path class="cls-7" d="M262.74,244.61s1.61-.2,2.5-.92"/><path class="cls-7" d="M261.06,235.45s-.73,1.65,0,2.57c.73,.92,1.58,.98,1.71,2.04,.13,1.06,1.85,1,2.47,1.66,.63,.66,1.09,1.89,3.07,1.98"/></g><path class="cls-4" d="M312.05,150.21c-6.81,15.41,0,36.79,0,36.79,0,0,16.47,5.6,18.02,3.19,1.54-2.42,4.3-14.23,4.77-19.69"/><path class="cls-7" d="M330.06,172.21s-7.03,9.63-12.57,9.76"/></g></g><g id="Character_1"><g><path class="cls-16" d="M84.48,301.4s5.33-3.43,12.65-1.58c7.32,1.85,26.3,29.01,28.94,31.65,2.64,2.64,7.58,4.05,12.13,8.79,7.2,7.51,17.67,14.15,18.73,14.15s1.91-.66,3.23-.92c1.32-.26,11.54-1.19,11.54-1.19,0,0,3.43,.76,0,2.23s-3.16,2.78-3.16,2.78c0,0-.69,1.11,.69,2.16,1.38,1.05,2.19,.48,4.16,3.27s-2.78,1.21-2.78,1.21c0,0,1.05,3.02-1.05,2.7-2.11-.32-.26,2.93-3.69,2.49-3.43-.44-10.77-5.07-12.62-9.92,0,0-29.93-14.31-34.42-18-4.48-3.69-23.32-23.47-24.65-23.74"/><g><g><path class="cls-13" d="M162.79,328.2h21.95c1.04,0,1.88,.84,1.88,1.88v15.7h-25.71v-15.7c0-1.04,.84-1.88,1.88-1.88Z"/><g class="cls-29"><path class="cls-27" d="M162.79,328.2h21.95c1.04,0,1.88,.84,1.88,1.88v15.7h-25.71v-15.7c0-1.04,.84-1.88,1.88-1.88Z"/><rect class="cls-26" x="178.91" y="329.85" width="6.33" height="12.66"/></g><path class="cls-7" d="M162.79,328.2h21.95c1.04,0,1.88,.84,1.88,1.88v15.7h-25.71v-15.7c0-1.04,.84-1.88,1.88-1.88Z"/></g><g><path class="cls-13" d="M200.79,328.2h21.95c1.04,0,1.88,.84,1.88,1.88v15.7h-25.71v-15.7c0-1.04,.84-1.88,1.88-1.88Z"/><g class="cls-30"><path class="cls-27" d="M200.79,328.2h21.95c1.04,0,1.88,.84,1.88,1.88v15.7h-25.71v-15.7c0-1.04,.84-1.88,1.88-1.88Z"/><rect class="cls-26" x="218.99" y="329.85" width="3.82" height="12.66"/></g><path class="cls-7" d="M200.79,328.2h21.95c1.04,0,1.88,.84,1.88,1.88v15.7h-25.71v-15.7c0-1.04,.84-1.88,1.88-1.88Z"/></g><path class="cls-5" d="M192.79,328.2h21.95c1.04,0,1.88,.84,1.88,1.88v15.7h-25.71v-15.7c0-1.04,.84-1.88,1.88-1.88Z"/><path class="cls-5" d="M230.79,328.2h21.95c1.04,0,1.88,.84,1.88,1.88v15.7h-25.71v-15.7c0-1.04,.84-1.88,1.88-1.88Z"/><rect class="cls-26" x="208.91" y="329.85" width="6.33" height="12.66"/><rect class="cls-26" x="246.49" y="329.85" width="6.33" height="12.66"/><g><path class="cls-13" d="M265.87,342.12v72.19h-116.31v-72.19c0-2.52,2.04-4.55,4.55-4.55h107.21c2.51,0,4.55,2.03,4.55,4.55Z"/><g class="cls-28"><path class="cls-27" d="M265.87,342.12v72.19h-116.31v-72.19c0-2.52,2.04-4.55,4.55-4.55h107.21c2.51,0,4.55,2.03,4.55,4.55Z"/></g><path class="cls-7" d="M265.87,342.12v72.19h-116.31v-72.19c0-2.52,2.04-4.55,4.55-4.55h107.21c2.51,0,4.55,2.03,4.55,4.55Z"/></g><path class="cls-5" d="M265.87,342.12v72.19h-86.31v-72.19c0-2.52,2.04-4.55,4.55-4.55h77.21c2.51,0,4.55,2.03,4.55,4.55Z"/><path class="cls-26" d="M260.04,344.69h-73.78c-1.04,0-1.88-.84-1.88-1.88h0c0-1.04,.84-1.88,1.88-1.88h73.78c1.04,0,1.88,.84,1.88,1.88h0c0,1.04-.84,1.88-1.88,1.88Z"/></g><g><path class="cls-1" d="M123.43,414.31c-6.01,0-14.43-3.86-24.14-7.94-10.07-4.24-21.54-8.72-33.18-9.39-4.34-.25-1.71,17.33-1.71,17.33h-9.5s-9.36-12.52-10.42-23.73c0,0,7.66-4.73,9.5-5.01,.38-.06,1.09-.08,1.91-.09,2.06-.02,4.81,.09,4.81,.09,0,0-.01,0-.02-.01-.44-.26-7.45-4.48-11.32-8.77-3.19-3.54-4.65-9.13-4.76-12.47-.05-1.66,.73-6.6,.73-6.6l49.92,.83s.54,.38,1.5,1.09c5.79,4.22,26.95,19.94,37.53,31.79,3.42,3.83,5.73,7.25,6.07,9.75,1.58,11.55-7.85,13.13-16.92,13.13Z"/><path class="cls-16" d="M134.28,391.43l-24.28,5.55s-6.33,3.38-10.71,9.39c-10.07-4.24-21.54-8.72-33.18-9.39-4.34-.25-1.71,17.33-1.71,17.33h-9.5s-9.36-12.52-10.42-23.73c0,0,8.84,12.6,10.95,18.96,0,0,3.43-11.84,8.97-16.59,0,0-3.73-4.35-8.51-7.47,2.06-.02,4.81,.09,4.81,.09,0,0-.01,0-.02-.01-.44-.26-7.45-4.48-11.32-8.77-3.19-3.54-4.48-9.14-4.76-12.47-.14-1.64,.06-6.6,.06-6.6,0,0,37.23,5.31,52.09,1.92,5.79,4.22,26.95,19.94,37.53,31.79Z"/><path class="cls-7" d="M95.26,390.58s19.78,9.91,25.05,13.79c5.27,3.88,6.85,2.82,6.85,2.82"/><path class="cls-7" d="M49.37,389.52s4.75,7.25,5.01,9.43"/></g><path class="cls-16" d="M128.92,250.37s10.56-4.59,9.57,14.9c-.99,19.49,2.57,20.48,2.57,20.48,0,0-26.51,10.88-33.23,1.58-6.73-9.3-.34-34.75,21.09-36.96Z"/><path class="cls-3" d="M127.43,285.74s-10.9,5.14-11.89,9.89c-.99,4.75-14.64-2.39-14.64-2.39l9.89-14.22,16.64,6.73Z"/><path class="cls-1" d="M55.99,337.91c-25.04,31.83-4.71,47.2,23.63,44.66l-5.68,8.97,14.25,2.47s10.94-7.14,25.84-14.77c25.36-12.99,35.6-12.22,32.97-25.23-2.64-13.01-33.69-21.45-64.85-7.74,0,0-16.93-20.1-26.16-8.36Z"/><g><path class="cls-3" d="M64.71,407.19s6.51-18.02,9.23-18.99,12.94,2.9,14.25,5.8c0,0,3.47-5.32,4.9-3.06,1.42,2.27-.63,5.96,0,8.86,.63,2.9,7.65,6.86,10.47,7.38,2.82,.53,4.4,2.11,4.4,3.69v3.43h-43.25s-1.58-2.94,0-7.12Z"/><path class="cls-7" d="M93.09,396.98s-5.73,2.83-7.83,2.04c-2.09-.79,1.07,4.75,1.86,5.27s5.96-1.85,5.96-1.85"/><path class="cls-7" d="M70.12,394.01s7.77,.15,10.15,2.97"/><path class="cls-7" d="M64.71,407.19s12.4,2.9,13.45,2.9,5.01-1.45,5.01-1.45c0,0,3.4,1.71,5.65,2.77,2.26,1.05,17.03,0,17.03,0"/></g><path class="cls-7" d="M79.62,382.57c11.85-1.29,34.83-15.87,42.8-20.94,7.96-5.07,10.07-3.75,10.07-3.75"/><path class="cls-5" d="M44.66,357.72l1.89-14.35,4.56-3.44c7.38-17.93,40.87-51.42,49.99-51.31,13.71,.16,16.13,14.55,17.82,30.3,1.69,15.75-19.67,13.38-19.67,13.38v3.96l-12.15,6.29,7.36-.23s-21.16,20.57-49.8,15.41Z"/><g><path class="cls-3" d="M104,260.83c2.87-8.99,16.01-11.4,20.72-9.92,2.96,.93,7.08,4.19,8.91,8.13,1.2,2.58-1.31,7.17,.48,9.84,2.56,3.83,2.34,11.91,1.42,16.96-.49,2.7-11.73,4.31-20.91-1.98-9.86-6.75-13.4-14.3-10.62-23.02Z"/><path class="cls-16" d="M117.27,248.27s11.56-1.89,11.64,1.09c.51,19.73-11.31,23.87-11.31,23.87,0,0-4.83-3.85-5.92-1.21-1.09,2.64,1.71,9.93,5.12,10.09,0,0-2.64,3.44-.14,8.24,0,0-19.58,3.27-21.2-5.81,0,0,1.09-4.3,1.62-9.58,1.27-12.71-1.7-21.27,20.18-26.7Z"/><path class="cls-3" d="M132.71,268.37c2.41,2.18,4.14,2.18,4.11,2.95-.09,2.44-3.03,3.65-3.03,3.65"/><path class="cls-7" d="M133.76,279.01s-2.43,.96-5.27,.13"/><path class="cls-16" d="M127.36,256.26s7.68-2.23,6.27,10.25c0,0,3.21-4.34,3.2-9.24-.02-8.46-11.33-6.77-11.33-6.77l1.47,5.99"/><path class="cls-7" d="M134.34,262.38s-.64-.57-2.04-.37"/><path class="cls-7" d="M129.16,262.24s-4.13,.23-5.92,3.03"/><path class="cls-16" d="M128.17,268.81c.06,.66-.22,1.23-.63,1.27-.41,.04-.79-.47-.86-1.13-.06-.66,.22-1.23,.63-1.27,.41-.04,.79,.47,.86,1.13Z"/></g><path class="cls-7" d="M80.27,385.57s9.2,.97,11.2,5.01"/><path class="cls-3" d="M103.56,295.37s5.33-3.43,12.65-1.58c7.32,1.85,26.3,29.01,28.94,31.65,2.64,2.64,7.58,4.05,12.13,8.79,7.2,7.51,17.67,14.15,18.73,14.15s1.91-.66,3.23-.92c1.32-.26,11.54-1.19,11.54-1.19,0,0,3.43,.76,0,2.23s-3.16,2.78-3.16,2.78c0,0-.69,1.11,.69,2.16,1.38,1.05,2.19,.48,4.16,3.27s-2.78,1.21-2.78,1.21c0,0,1.05,3.02-1.05,2.7-2.11-.32-.26,2.93-3.69,2.49-3.43-.44-10.77-5.07-12.62-9.92,0,0-29.93-14.31-34.42-18-4.48-3.69-23.32-23.47-24.65-23.74"/><path class="cls-5" d="M99.26,292.47s14.76-3.96,19.91-1.05,14.91,16.35,14.91,16.35c0,0-11.89,10.65-15.57,9.68-3.68-.97-14.94-2.56-14.94-2.56"/><path class="cls-7" d="M112.05,316.19s-5.35,2.94-7.32,2.94"/><path class="cls-7" d="M103.56,301.43c.44,.79,.29,9.44,9.69,12.13"/><path class="cls-7" d="M53.37,340.2s20.04,3.43,26.9-2.64"/><path class="cls-7" d="M87.11,342.54s-5-.88-6.84,1.69c-1.85,2.57-11.87,4.94-11.87,4.94"/><path class="cls-7" d="M46.91,361.62s-2.89,12.46,9.44,18.03"/><path class="cls-7" d="M53.37,362.49s.07,6.13,2.04,9.49l6.13,1.98,6.86-3.82s-1.45-7.85-1.58-9.43"/></g></g></svg>