<svg id="Capa_1" data-name="Capa 1" xmlns="http://www.w3.org/2000/svg" viewBox="0 0 212.13 149.4"><defs><style>.cls-1{fill:#00d0a0;}.cls-2,.cls-3{fill:#fff;}.cls-3{fill-rule:evenodd;}</style></defs><title>ICONO Libro</title><path class="cls-1" d="M212,5.23H71S11.33,19.48,10.4,75.57c-.89,54.26,43.86,73.28,60.71,73.28l141,.55S211,4.28,212,5.23Z"/><rect class="cls-2" x="24.89" width="10.53" height="60.32" rx="2.11"/><rect class="cls-2" x="24.89" width="10.53" height="60.32" rx="2.11" transform="translate(0 60.32) rotate(-90)"/><path class="cls-3" d="M132.8,40.19V72.9l6.54-5,6.55,5V40.19H159V118.7H103.36a9.81,9.81,0,0,1-9.81-9.81V50a9.81,9.81,0,0,1,9.81-9.82Zm19.63,65.43H105a3.27,3.27,0,1,0,0,6.54h47.45Z"/></svg>