<?xml version="1.0" encoding="UTF-8"?><svg id="Capa_2" xmlns="http://www.w3.org/2000/svg" viewBox="0 0 264.19 250.55"><defs><style>.cls-1,.cls-2{fill:#fff;}.cls-3{fill:#0fa6a6;}.cls-4{fill:#222221;}.cls-2{stroke:#000;}.cls-2,.cls-5,.cls-6{stroke-miterlimit:10;}.cls-5{fill:#afe8d9;stroke:#afe8d9;}.cls-6{fill:#6fcfa1;stroke:#6fcfa1;}</style></defs><g id="Graphic_Element"><circle class="cls-2" cx="144.48" cy="120.71" r="119.22"/><g><path class="cls-3" d="M164.67,245.28c-7.47-3.3-25.2-66.25-25.2-66.25l15.48-3.77s12.65,1.13,16.27-2.54c3.62-3.67,24.39-28.97,24.39-28.97l51.25,84.56s-43.53,34.06-82.19,16.97Z"/><path class="cls-6" d="M25.1,185.18L95.98,39.54l11.94-13.87,1.67,5.62s11.45-13.5,15.55-13.64c4.09-.14,5.02,1.5,4.69,7.86-.33,6.35,8.11,1.76,8.11,1.76,0,0,2.28-5.91,4.14-.63,1.86,5.28-3.22,14.05-3.22,14.05l17.14-8.76,.8,10.14-19.86,24.96-53.8,156.76s-45.44-4.33-58.03-38.6Z"/><path class="cls-5" d="M196.87,3.52l-57.73,60.17-35.29,63.17s-10.07,12.56-2.91,12.7,24.36-10,24.36-10l-17.84,35.38,4.84,3.28,15.09-16.8-8.36,22.4,6.88,1.19,9.17-7.08,1.48,9.23,6.97,.47,7.97-4.17,5.87,1.37,21.72-17.36,62.52-101.21,10.32-38.62s-37.1-25.78-55.08-14.13Z"/><path class="cls-1" d="M.28,57.56s62.22,29.23,69.26,36.36c7.04,7.13,47.66,34.97,47.66,34.97,0,0,31.28,11.62,33.95,12.1,2.66,.47,5.82-1.68,5.82-1.68l-7.28-14.17,10.47,4.66s.37-4.05,4.47-7.15c5.99-4.53,2.82-13.46,2.82-13.46l-22.37-24.69s12.15,8.36,17.08,7.85c4.93-.5,2.14-6.72-.67-10.44-2.81-3.72-107.86-67.32-107.86-67.32C53.62,14.59,3.27,38.08,.28,57.56Z"/><g><path class="cls-4" d="M192.74,3.83c-4.28,3.2-8.46,6.54-12.51,10.03-4.02,3.46-7.91,7.06-11.68,10.79-3.78,3.75-7.43,7.63-10.94,11.63-3.51,4-6.88,8.13-10.1,12.36-3.21,4.22-6.28,8.54-9.18,12.98-.37,.56-.74,1.13-1.1,1.7-.59,.91,.87,1.76,1.45,.85,2.86-4.44,5.87-8.77,9.02-13,3.14-4.21,6.44-8.3,9.87-12.28,3.45-3.99,7.03-7.87,10.75-11.62,3.71-3.75,7.56-7.37,11.52-10.85,3.95-3.46,8.01-6.8,12.2-9.97,.52-.39,1.04-.78,1.56-1.17,.36-.27,.55-.73,.3-1.15-.21-.36-.78-.57-1.15-.3h0Z"/><path class="cls-4" d="M103.91,123.08c.15-.32,.32-.62,.5-.92,.57-.93-.87-1.76-1.45-.85-1.83,2.86-3.83,5.6-5.38,8.63-1.48,2.89-3.15,6.72-1.84,9.96,.55,1.36,1.7,2.59,3.12,3.06,1.25,.41,2.66,.2,3.9-.15,3.45-.98,6.59-3.1,9.49-5.15,1.69-1.19,3.33-2.45,4.96-3.73,1.06-.84,2.33-1.88,3.27-2.61-.42-.24-.84-.48-1.26-.73-.26,5.18-3.85,9.37-6.35,13.66-2.87,4.92-5.55,10.02-7.57,15.35-.83,2.18-1.87,4.63-1.69,7.02,.17,2.23,1.64,3.92,3.93,4.1,2.38,.19,4.55-1.11,6.23-2.67,1.99-1.86,3.59-4.15,5.28-6.27,4.36-5.47,8.72-10.93,13.08-16.4-.44-.34-.88-.68-1.32-1.02-2.15,3.39-3.44,7.21-5.39,10.7-2.03,3.64-4.86,6.85-7.42,10.13-1.29,1.66-2.63,3.31-3.79,5.07-.99,1.5-1.72,3.35-1.19,5.16,.58,1.95,2.76,3.38,4.67,3.83,3.92,.92,7.75-1.52,10.65-3.88,3.83-3.12,7.04-6.99,10.03-10.89,2.65-3.45,5.02-7.08,7.59-10.58,.56-.77-.7-1.74-1.32-1.02-3.15,3.63-6.19,7.39-8.75,11.48-1.21,1.93-2.35,3.94-3.23,6.05-.75,1.78-1.3,3.76-1.11,5.71,.46,4.52,5.04,6.28,9.01,4.99,4.04-1.31,7.26-4.75,9.7-8.09,2.9-3.97,4.93-8.49,6.92-12.97,.43-.97-.85-1.77-1.45-.85-3.21,4.88-6.48,9.96-7.42,15.83-.08,.53,.22,1.07,.81,1.06,1.36,0,2.51,.68,3.76,1.09,1.2,.4,2.37,.36,3.59,.12,2.43-.47,4.7-1.64,6.73-3.04,4.43-3.05,8.01-7.16,11.45-11.24,4.08-4.85,7.93-9.83,11.46-15.1,3.85-5.73,7.29-11.71,11.1-17.46,3.84-5.8,7.76-11.55,11.44-17.46,3.68-5.91,7.34-11.83,10.89-17.82,3.55-5.99,6.98-12.04,10.22-18.2,3.16-6.02,6.2-12.11,9.28-18.17,3.02-5.94,5.93-11.96,8.29-18.2,2.44-6.45,4.05-13.17,6.15-19.74,.54-1.68,1.09-3.35,1.66-5.02-.55-.07-1.1-.15-1.65-.22l-.04,.57c-.08,1.08,1.6,1.07,1.68,0l.04-.57c.07-.99-1.36-1.08-1.65-.22-2.23,6.53-3.98,13.19-6.07,19.76-2.02,6.35-4.75,12.45-7.68,18.42-2.9,5.91-5.98,11.74-8.94,17.63-3.1,6.17-6.42,12.22-9.87,18.2-6.85,11.86-14.03,23.58-21.68,34.94-1.95,2.89-3.9,5.77-5.77,8.7-1.82,2.84-3.53,5.74-5.33,8.6-3.57,5.66-7.36,11.21-11.58,16.41-3.32,4.09-6.71,8.24-10.61,11.8-1.89,1.73-3.95,3.33-6.24,4.5-1.08,.55-2.22,.98-3.41,1.24-1.32,.29-2.4,.2-3.65-.29-1.18-.46-2.28-.92-3.57-.91l.81,1.06c.92-5.74,4.11-10.66,7.25-15.43-.48-.28-.97-.57-1.45-.85-3.07,6.89-6.46,14.78-13.06,19.03-1.69,1.09-3.72,1.91-5.76,1.57-1.83-.3-3.25-1.5-3.62-3.34-.34-1.72,.17-3.56,.8-5.15,.77-1.95,1.85-3.81,2.94-5.6,2.54-4.16,5.61-7.97,8.8-11.64-.44-.34-.88-.68-1.32-1.02-4.82,6.58-9.18,13.5-15.14,19.17-2.54,2.42-5.89,5.33-9.58,5.54-1.55,.09-3.01-.42-4.18-1.45-1.31-1.15-1.29-2.71-.53-4.21,.9-1.76,2.28-3.34,3.48-4.9,2.72-3.52,5.79-6.93,8.03-10.79,2.1-3.62,3.42-7.65,5.67-11.19,.5-.79-.72-1.77-1.32-1.02-3.61,4.53-7.22,9.05-10.84,13.58-1.79,2.25-3.56,4.51-5.38,6.74-1.37,1.67-2.95,3.52-5.06,4.24-1.08,.37-2.48,.54-3.46-.21-.73-.55-.93-1.49-.94-2.35,0-2.28,1.05-4.63,1.86-6.71,1.97-5.06,4.56-9.93,7.31-14.6,2.66-4.51,6.17-8.84,6.45-14.29,.03-.59-.76-1.12-1.26-.73-4.9,3.78-9.65,8.05-15.36,10.6-2.14,.95-4.91,1.84-6.53-.4-1.81-2.5-.18-6.27,.99-8.67,1.59-3.27,3.73-6.19,5.68-9.24l-1.45-.85c-.18,.3-.35,.6-.5,.92-.47,.97,.98,1.82,1.45,.85h0Z"/><path class="cls-4" d="M53.2,15.32c2.44,1.7,4.81,3.5,7.3,5.14,2.56,1.68,5.29,3.07,7.97,4.55,5.54,3.06,11.07,6.16,16.51,9.4,10.53,6.27,20.79,12.97,31.42,19.08,10.08,5.79,20.28,11.41,29.92,17.93,4.89,3.31,9.63,6.84,14.11,10.68,2.04,1.76,3.77,4.06,5.01,6.45,.45,.88,1.15,2.25,.77,3.2-.11,.27-.45,.48-.87,.58-1.13,.27-2.22-.08-3.24-.57-5.13-2.49-10.01-5.49-15.43-7.33-1.34-.46-2.7-.83-4.09-1.11-.83-.17-1.39,.77-.82,1.4,1.96,2.18,4.74,3.26,6.94,5.14,2.43,2.09,4.86,4.22,7.23,6.38,3.88,3.53,7.45,7.34,9.91,12.01,1.04,1.97,2.02,4.17,2.2,6.42,.12,1.41-.13,3.94-1.86,4.34-1.57,.36-3.4-1.04-4.57-1.89-1.57-1.14-2.97-2.47-4.45-3.72-2.41-2.06-5.2-3.72-7.8-5.54-3.37-2.36-6.74-4.73-10.09-7.11l-.85,1.45c5.59,2.69,11.38,5.41,16.14,9.46,3.25,2.76,6.32,6.11,8.34,9.89,.87,1.64,1.69,3.65,1.32,5.55-.15,.8-.52,1.66-1.3,2.02-.8,.36-1.75,.18-2.56-.04-1.98-.54-3.77-1.63-5.52-2.66-2.78-1.64-5.55-3.28-8.28-4.99-6.51-4.06-12.86-8.38-18.97-13.03l-.85,1.45c6.07,4.6,13.22,7.54,18.77,12.87,3.6,3.45,7.72,6.79,10.08,11.28,.84,1.6,1.64,3.97,.25,5.51-1.27,1.42-3.77,1.22-5.47,1-4.54-.57-9.07-2.39-13.15-4.41-8.05-3.99-16.03-8.13-24.11-12.08-3.71-1.82-7.33-3.67-10.75-6.01-3.29-2.25-6.41-4.74-9.55-7.19-6.7-5.24-13.78-9.85-20.95-14.4-7.23-4.59-14.28-9.47-21.62-13.89-7.4-4.45-15.16-8.26-22.48-12.86-3.56-2.23-7.23-4.1-10.98-6-3.45-1.74-6.7-3.77-10.52-4.62-1.78-.4-3.61-.58-5.43-.62-1.08-.02-1.08,1.66,0,1.68,3.94,.08,7.64,1.03,11.12,2.88,3.74,1.98,7.59,3.78,11.28,5.86,1.91,1.07,3.73,2.3,5.6,3.44,1.9,1.15,3.83,2.27,5.76,3.36,3.83,2.16,7.73,4.2,11.55,6.39,7.62,4.39,14.84,9.39,22.24,14.13,7.41,4.74,14.89,9.34,21.86,14.73,3.2,2.47,6.34,5.02,9.62,7.38,3.38,2.42,6.91,4.5,10.66,6.32,8.28,4.02,16.47,8.23,24.7,12.36,4.43,2.22,9.14,4.25,14.05,5.06,2.13,.35,4.56,.57,6.55-.43,1.96-.98,2.69-3.17,2.37-5.25-.39-2.55-1.99-4.82-3.56-6.79-1.74-2.17-3.73-4.13-5.76-6.03-2.16-2.02-4.28-4.06-6.68-5.79-3.13-2.26-6.53-4.1-9.81-6.12-1.63-1.01-3.24-2.07-4.77-3.23-.86-.65-1.7,.8-.85,1.45,5.85,4.46,11.94,8.61,18.17,12.53,2.95,1.85,5.95,3.64,8.95,5.41,1.89,1.12,3.83,2.28,5.96,2.88,1.93,.54,4.13,.46,5.33-1.38,1.16-1.77,.95-4.12,.31-6.04-1.49-4.48-4.95-8.36-8.33-11.54-5.14-4.83-11.58-7.94-17.87-10.97-.98-.47-1.73,.82-.85,1.45,3.13,2.22,6.27,4.44,9.42,6.64,1.62,1.13,3.24,2.26,4.86,3.39,1.05,.73,2.14,1.4,3.12,2.22,1.57,1.32,3.06,2.72,4.71,3.95,1.49,1.11,3.35,2.37,5.29,2.33,1.99-.04,3.3-1.78,3.73-3.59,.53-2.27-.09-4.69-.92-6.81-1.91-4.84-5.1-9.01-8.76-12.65-2.7-2.69-5.64-5.14-8.49-7.66-1.36-1.2-2.71-2.32-4.24-3.3-1.49-.95-3-1.86-4.2-3.18-.27,.47-.55,.94-.82,1.4,5.92,1.22,11.21,4.2,16.52,6.96,2.17,1.13,4.45,2.63,7,2.09,1.32-.28,2.25-1.23,2.33-2.6,.08-1.4-.61-2.83-1.26-4.03-.77-1.4-1.72-2.71-2.72-3.95-.9-1.11-1.86-2.06-2.95-2.99-2.33-1.97-4.72-3.87-7.16-5.69-9.61-7.18-20.02-13.2-30.42-19.15-5.27-3.01-10.56-6.01-15.76-9.15-5.51-3.33-10.93-6.81-16.42-10.18-5.59-3.43-11.27-6.71-16.99-9.93-2.88-1.62-5.77-3.22-8.67-4.8-2.74-1.49-5.31-3.19-7.85-5.01-1.24-.89-2.47-1.78-3.72-2.65-.89-.62-1.73,.84-.85,1.45h0Z"/><path class="cls-4" d="M22.08,180.53c2.05-6.45,4.41-12.79,7.04-19.03,2.62-6.22,5.5-12.32,8.57-18.33,3.15-6.16,6.5-12.22,9.99-18.2,3.57-6.11,7.28-12.14,11.08-18.12,.78-1.23,1.62-2.43,2.34-3.69,.44-.78,.85-1.58,1.27-2.37,.53-.99,1.06-1.98,1.66-2.93,.52-.83,.97-1.53,1.67-2.17,.06-.06,.12-.11,.19-.17-.15,.12,.06-.04,.1-.06,.07-.04,.14-.08,.21-.12,.12-.07-.16,.05,.05-.02,1.03-.32,.59-1.95-.45-1.62-.82,.26-1.45,.9-1.97,1.55-.69,.86-1.29,1.8-1.84,2.76-.98,1.7-1.79,3.49-2.85,5.14-3.88,6.04-7.68,12.13-11.34,18.31-3.59,6.06-7.05,12.19-10.3,18.44-3.16,6.07-6.14,12.24-8.86,18.52-2.73,6.3-5.21,12.7-7.37,19.22-.27,.81-.53,1.63-.79,2.44-.33,1.03,1.29,1.48,1.62,.45h0Z"/><path class="cls-4" d="M92.65,39.78c0-.63,.62-1.38,1.06-1.94,.43-.55,.86-1.08,1.19-1.69,.39-.71,.81-1.42,1.23-2.12,.61-1,1.24-1.99,1.89-2.96,.72-1.07,1.56-2.24,2.28-3.17,.79-1,1.61-1.98,2.52-2.87,.4-.4,.83-.78,1.27-1.14,.02-.01,.21-.16,.06-.05,.06-.04,.11-.09,.17-.13,.09-.07,.19-.13,.28-.2,.22-.15,.44-.28,.67-.41,.09-.05,.18-.09,.27-.14,.05-.03,.11-.05,.16-.07-.02,0-.18,.07-.04,.02,.21-.08,.41-.14,.63-.19,.05-.01,.1-.02,.15-.03-.02,0-.21,0-.07,.01,.1,0,.2-.01,.3-.01,.08,0,.34,.05,.07,0,.09,.02,.19,.03,.28,.06,.15,.04,.22,.09,.09,.02,.08,.04,.16,.08,.24,.13,.05,.03,.27,.21,.08,.05,.09,.08,.18,.16,.26,.24,.16,.16,.29,.36,.44,.64,.11,.22,.23,.57,.3,.91,.07,.33,.1,.64,.1,1.04,0,.46-.02,.92-.07,1.37-.1,.86-.33,1.77-.58,2.62-.46,1.57-1.05,3.01-1.81,4.44-.51,.96,.94,1.81,1.45,.85,2.64-4.97,4.87-10.36,8.97-14.36,1.21-1.18,2.46-2.32,3.78-3.38,1.44-1.15,3.17-2.38,4.88-2.92,.2-.06,.4-.12,.61-.16,.09-.02,.18-.04,.28-.05,.19-.03-.02,0,.17-.02,.19-.01,.37-.02,.56-.01,.05,0,.26,.03,.18,.01-.07-.01,.18,.04,.24,.05,.08,.02,.16,.05,.24,.07,.19,.06-.03-.03,.09,.04,.08,.04,.17,.09,.25,.14,.06,.04,.25,.19,.11,.07,.12,.1,.22,.21,.32,.32,.14,.15-.04-.08,.04,.04,.05,.08,.1,.15,.15,.23,.04,.06,.07,.13,.1,.19,.02,.04,.12,.29,.05,.09,.06,.16,.12,.33,.16,.5,.04,.16,.07,.31,.1,.47,0,.05,.02,.09,.02,.14,0-.03-.02-.17,0,0,.01,.1,.02,.2,.03,.3,.03,.39,.03,.79,0,1.19-.02,.43-.08,.89-.12,1.19-.3,1.93-.88,3.81-1.55,5.65-.62,1.72-1.24,3.18-1.98,4.81-.89,1.95-1.85,3.86-2.83,5.76-.73,1.42-1.55,2.82-2.2,4.28-.52,1.19-.81,2.46-1.27,3.68-.18,.47-.4,.96-.71,1.35l1.32,.17c-.05-.07-.09-.13-.13-.21,.08,.13,.01,.04-.01-.06-.02-.08-.03-.22-.02-.05,0-.09,0-.18,0-.26,0-.05,0-.09,.01-.14,0,.03-.03,.17,0,.01,.02-.09,.04-.17,.06-.26,.05-.18,.14-.45,.18-.55,.32-.76,.9-1.64,1.42-2.37,.52-.72,.95-1.25,1.5-1.96,.64-.82,1.18-1.72,1.76-2.58,2.86-4.29,6-8.39,9.88-11.82,.98-.87,2-1.7,3.06-2.48,1.04-.76,2.12-1.6,3.31-2.09,.22-.09,.46-.17,.69-.23,.1-.03,.2-.05,.3-.07,.19-.04,0-.02,.18-.02,.09,0,.17,0,.26,0,.06,0,.32,.03,.12,0,.08,.01,.15,.03,.23,.05,.05,.01,.33,.12,.13,.03,.13,.06,.25,.13,.37,.21-.14-.1-.02-.01,.04,.04,.07,.07,.13,.13,.19,.2-.11-.13,0,0,.04,.06,.04,.06,.08,.13,.12,.19,.04,.08,.08,.16,.12,.24-.07-.16,.02,.06,.04,.12,.05,.16,.1,.33,.13,.49,.02,.1,.04,.2,.06,.3,0,.03,.02,.16,0,0,0,.05,.01,.11,.02,.16,.04,.42,.05,.84,.03,1.26-.04,.88-.2,1.7-.47,2.63-.81,2.75-2.34,5.25-3.77,7.72-1.59,2.75-3,5.6-4.55,8.37-.77,1.37-1.59,2.71-2.38,4.07-.51,.89-.96,1.86-1.64,2.63-.12,.13-.34,.35-.42,.42-.1,.07-.21,.14-.32,.2-.1,.05-.05,.03-.22,.07,.35,.27,.71,.54,1.06,.81,.01-.74,.21-1.56,.53-2.3,.36-.84,.92-1.72,1.48-2.5,1.27-1.73,2.84-3.25,4.44-4.69,1.55-1.39,3.16-2.69,4.77-4.01,1.64-1.35,3.22-2.77,4.96-4.01,2.06-1.47,4.33-2.81,6.84-3.28,.57-.11,1.14-.15,1.72-.14,.12,0,.25,0,.37,.02,.03,0,.26,.03,.13,.01-.14-.02,.08,.02,.11,.02,.07,.02,.14,.04,.21,.06,.04,.01,.22,.08,.09,.03-.13-.05,.04,.02,.08,.04,.05,.03,.1,.06,.15,.08,.14,.07,.06,.05,.02,0,.07,.07,.14,.14,.21,.21,.13,.12-.01-.02,0,0,.03,.05,.07,.1,.1,.16,.03,.05,.05,.1,.08,.15,.08,.15,0-.01,0,0,.04,.12,.08,.24,.11,.36,.01,.06,.03,.12,.04,.18,.02,.1,.02,.18,0,.02,.01,.14,.03,.29,.03,.43,0,.29,0,.59-.03,.88,0,.08-.02,.15-.03,.23,.02-.18,0,.01-.01,.08-.03,.18-.06,.35-.1,.53-.15,.73-.36,1.44-.6,2.14-.13,.38-.28,.76-.43,1.14-.15,.38-.23,.57-.42,.99-.66,1.47-1.42,2.89-2.28,4.25-.36,.57-.73,1.13-1.13,1.67-.04,.06-.09,.12-.13,.17-.06,.08,.04-.05,.04-.05-.02,.03-.05,.06-.07,.09-.09,.11-.18,.22-.27,.33-.15,.18-.31,.35-.48,.52-.06,.06-.13,.12-.19,.18-.03,.03-.07,.05-.1,.08-.09,.09,.19-.14,.04-.03-.37,.26-.54,.73-.3,1.15,.21,.37,.78,.57,1.15,.3,.95-.67,1.65-1.69,2.29-2.64,.92-1.35,1.73-2.78,2.44-4.24,.75-1.54,1.43-3.14,1.87-4.8,.35-1.32,.63-2.82,.25-4.17-.38-1.34-1.46-2.1-2.81-2.22-2.66-.24-5.35,.87-7.6,2.17-2.29,1.33-4.34,3.01-6.34,4.73-1.52,1.3-3.1,2.53-4.62,3.83-1.78,1.52-3.52,3.12-5.03,4.91-1.34,1.6-2.63,3.43-3.09,5.51-.1,.47-.17,.96-.17,1.44-.01,.55,.54,.94,1.06,.81,1.19-.31,1.99-1.38,2.61-2.36,.7-1.11,1.33-2.27,2-3.4,1.74-2.95,3.26-6.01,4.93-9,1.58-2.85,3.35-5.6,4.52-8.65,.74-1.93,1.17-4.05,.86-6.11-.26-1.71-1.35-3.22-3.2-3.25-1.11-.02-2.21,.46-3.16,1-1.3,.74-2.51,1.68-3.68,2.6-4.4,3.44-7.99,7.69-11.15,12.27-.81,1.17-1.58,2.37-2.37,3.55-.07,.1-.14,.21-.22,.31-.02,.02-.17,.22-.1,.14,.05-.07-.12,.15-.15,.19-.3,.38-.6,.77-.9,1.16-.62,.81-1.23,1.64-1.72,2.54-.44,.8-.88,1.75-.84,2.69,.02,.43,.13,.88,.4,1.23,.29,.39,.95,.63,1.32,.17,.86-1.06,1.26-2.37,1.66-3.66,.18-.59,.36-1.2,.61-1.76,.33-.75,.74-1.47,1.12-2.19,1.22-2.35,2.45-4.71,3.57-7.11,1.6-3.43,3.13-7.01,3.87-10.74,.34-1.7,.6-3.63,.02-5.3-.58-1.67-2.03-2.75-3.83-2.68-2.01,.08-3.91,1.2-5.52,2.32-1.65,1.15-3.18,2.47-4.65,3.85-1.85,1.74-3.47,3.64-4.85,5.78-1.61,2.49-2.92,5.17-4.27,7.8-.34,.67-.68,1.33-1.03,1.99,.48,.28,.97,.57,1.45,.85,.75-1.41,1.36-2.9,1.84-4.41,.52-1.65,.93-3.43,.83-5.17-.08-1.49-.58-3.02-1.83-3.92-.81-.58-1.84-.67-2.78-.4-1.07,.31-2.01,.97-2.85,1.67-.99,.83-1.88,1.78-2.71,2.76-1.8,2.13-3.39,4.44-4.87,6.81-.56,.9-1.11,1.82-1.63,2.75-.34,.6-.73,1.14-1.16,1.68-.66,.85-1.4,1.8-1.4,2.94,0,1.08,1.68,1.08,1.68,0h0Z"/><path class="cls-4" d="M103.37,165.03c-5.02,6.04-8.2,13.32-11.04,20.58-1.43,3.65-2.78,7.33-4.24,10.96-.69,1.72-1.42,3.43-2.2,5.12-.96,2.08-1.77,4.22-2.57,6.37-.44,1.19-.89,2.37-1.39,3.54-.5,1.16-1.08,2.27-1.64,3.4-.48,.97-.86,1.92-1.12,2.96-.2,.8-.38,1.82-.94,2.41-.74,.79,.45,1.98,1.19,1.19,1.22-1.3,1.18-3.17,1.86-4.72,.44-1.01,.98-1.98,1.46-2.97,.51-1.05,.96-2.14,1.4-3.23,.83-2.1,1.57-4.25,2.43-6.34,.77-1.85,1.64-3.65,2.42-5.5,3.01-7.2,5.41-14.66,8.82-21.7,1.86-3.85,4.03-7.59,6.77-10.88,.29-.35,.34-.85,0-1.19-.3-.3-.9-.35-1.19,0h0Z"/><path class="cls-4" d="M158.76,249.5c-.7-4.74-2.1-9.33-3.46-13.9-1.32-4.46-2.47-8.97-3.64-13.48-.59-2.28-1.2-4.55-1.87-6.81-.66-2.23-1.44-4.42-2.17-6.64-1.43-4.34-2.55-8.77-3.97-13.11-1.58-4.79-3.93-9.31-5.04-14.25-.24-1.06-1.86-.61-1.62,.45,.49,2.17,1.18,4.28,2,6.35,.83,2.12,1.76,4.2,2.51,6.36,1.5,4.29,2.62,8.69,3.98,13.02,.69,2.21,1.49,4.38,2.18,6.59,.7,2.24,1.33,4.51,1.93,6.78,1.2,4.52,2.29,9.06,3.6,13.55,1.5,5.13,3.16,10.24,3.94,15.54,.07,.45,.63,.7,1.03,.59,.48-.13,.65-.58,.59-1.03h0Z"/><path class="cls-4" d="M239,225.23c-3.32-5.55-6.64-11.1-9.96-16.66-3.31-5.53-6.61-11.06-9.92-16.58l-9.96-16.66c-1.65-2.76-3.31-5.53-4.96-8.29-1.57-2.62-3.08-5.27-4.78-7.81-3.14-4.67-6.75-9.07-9.32-14.1-.31-.6-.6-1.22-.87-1.84-.18-.42-.79-.51-1.15-.3-.43,.25-.48,.73-.3,1.15,2.26,5.18,5.82,9.65,9.03,14.25,1.68,2.4,3.19,4.89,4.69,7.4,1.65,2.76,3.31,5.53,4.96,8.29l9.96,16.66,9.96,16.66c3.31,5.53,6.61,11.06,9.92,16.58,.42,.7,.83,1.39,1.25,2.09,.55,.93,2.01,.08,1.45-.85h0Z"/><path class="cls-4" d="M62.67,21.47c1.24,1.04,2.55,1.99,3.95,2.8,.65,.38,1.32,.68,1.89,1.18,.3,.26,.61,.52,.96,.72,.33,.18,.68,.32,1,.5,.57,.33,1.01,.87,1.49,1.31,.55,.5,1.16,.96,1.87,1.19,.39,.13,.82,.13,1.19,.3,.3,.13,.57,.35,.84,.54,.64,.46,1.32,.79,2.03,1.11,.68,.31,1.33,.65,1.92,1.13,.61,.5,1.12,1.1,1.76,1.55,.27,.19,.57,.35,.85,.52,.15,.09,.3,.18,.45,.27,.05,.03,.1,.07,.15,.1l.1,.09c-.07-.12-.08-.14-.05-.05-.03,.35,.54,.75,.8,.88,.38,.19,.8,.29,1.2,.43,1.5,.54,2.99,1.07,4.45,1.7,.72,.31,1.49,.54,2.19,.89,.57,.28,1.06,.66,1.53,1.09,1.03,.94,2.18,2.35,3.66,2.51,.27,.03,.52-.02,.75,.14,.25,.17,.44,.45,.64,.67,.48,.54,1.08,.97,1.71,1.34,1.29,.76,2.66,1.32,3.89,2.19,1.35,.95,2.63,1.89,4.18,2.52,1.5,.61,3.08,.98,4.52,1.74,.7,.37,1.38,.78,2.08,1.15,.72,.38,1.47,.69,2.19,1.05,1.42,.71,2.9,1.5,4.13,2.52,1.19,.98,2.23,2.16,3.54,3,.65,.41,1.39,.63,2.03,1.05,.31,.2,.59,.46,.91,.65,.34,.21,.71,.37,1.07,.55,1.31,.63,2.33,1.58,3.48,2.45,.58,.44,1.19,.8,1.87,1.07,.71,.28,1.36,.65,2.05,.98,.34,.17,.68,.3,1,.51,.27,.18,.52,.39,.81,.54,.58,.31,1.21,.47,1.83,.67,.57,.18,1.05,.43,1.44,.9,.29,.35,.89,.3,1.19,0,.35-.35,.29-.84,0-1.19-.47-.56-1.07-.92-1.74-1.18-.54-.21-1.12-.32-1.66-.55-.62-.27-1.13-.74-1.75-1.02-.74-.34-1.43-.77-2.18-1.08-.64-.26-1.22-.54-1.79-.95-.54-.39-1.03-.83-1.55-1.24-.59-.47-1.2-.9-1.88-1.23-.73-.36-1.39-.71-2.05-1.19-.62-.45-1.36-.68-2.02-1.06-.64-.37-1.2-.86-1.75-1.36-1.19-1.08-2.36-2.09-3.73-2.94-1.41-.87-2.91-1.53-4.39-2.28-1.43-.73-2.78-1.62-4.3-2.15-1.55-.54-3.12-.97-4.52-1.85-1.31-.82-2.48-1.84-3.86-2.56-1.22-.64-2.62-1.15-3.55-2.21-.49-.55-.99-1.11-1.75-1.24-.32-.05-.65,0-.95-.13-.32-.15-.62-.38-.89-.6-1.05-.88-1.95-1.95-3.16-2.6-.69-.37-1.44-.59-2.16-.89-.76-.32-1.51-.67-2.28-.97-.75-.3-1.53-.52-2.29-.8-.35-.13-.69-.26-1.04-.37-.07-.02-.15-.05-.22-.07-.05-.01-.28-.07-.11,0,.07,.03,.05,.1,0-.02-.06-.18-.14-.32-.26-.46-.48-.55-1.2-.83-1.8-1.21-.61-.39-1.08-.99-1.64-1.44-.63-.51-1.28-.92-2.01-1.26-.68-.32-1.38-.6-2-1.04-.66-.47-1.26-.86-2.07-1.02-.69-.15-1.19-.42-1.71-.89-.52-.48-1-1.02-1.59-1.42-.61-.42-1.3-.62-1.86-1.11-.61-.54-1.27-.89-1.98-1.29-.69-.39-1.36-.81-2.01-1.26-.64-.45-1.26-.92-1.86-1.42-.35-.29-.85-.34-1.19,0-.3,.3-.35,.9,0,1.19h0Z"/><path class="cls-4" d="M65.01,94.34c.84-.17,1.1-.89,.99-1.65-.09-.68-.99-.73-1.4-.37-.51,.44-.76,1.11-.95,1.74-.2,.67-.35,1.36-.49,2.04-.17,.82-.34,1.62-.71,2.38-.38,.76-.83,1.48-1.26,2.22-.85,1.46-1.39,3.07-2.24,4.53-.77,1.32-1.79,2.47-2.79,3.62-1.01,1.17-2.02,2.33-2.89,3.61-.9,1.34-1.45,2.81-2.11,4.27-.66,1.46-1.58,2.77-2.41,4.14-.41,.67-.82,1.35-1.29,1.98-.45,.62-1,1.16-1.46,1.77-.44,.59-.78,1.23-1.29,1.76-.56,.58-1.02,1.16-1.44,1.86-.89,1.47-1.78,2.94-2.5,4.5-.77,1.65-1.51,3.31-2.26,4.97-.72,1.58-1.34,3.26-2.27,4.74-.45,.71-.95,1.38-1.39,2.09-.43,.69-.78,1.43-1.12,2.17-.69,1.51-1.35,3.03-2.24,4.44-.89,1.41-1.29,3.06-2.03,4.55-.8,1.61-1.7,3.16-2.61,4.71-.88,1.5-1.75,3.02-2.47,4.6-.71,1.54-1.54,3.26-1.55,4.99,0,.35,.04,.72-.02,1.07-.07,.44-.27,.87-.4,1.29-.26,.82-.49,1.66-.68,2.5-.19,.82-.3,1.64-.6,2.42-.24,.64-.47,1.23-.55,1.91-.03,.28-.03,.33-.09,.58,0,.02-.05,.16,0,.04-.03,.07-.05,.04-.02,.05,.04,0-.04,0-.01,0-.04-.02,.25-.08-.02-.04-.45,.07-.7,.63-.59,1.03,.13,.48,.58,.66,1.03,.59,.64-.1,1.06-.64,1.23-1.23,.08-.28,.1-.57,.13-.85,0-.04,.04-.36,.02-.2,.02-.15,.06-.28,.11-.42,.24-.75,.58-1.46,.73-2.24,.17-.88,.37-1.75,.61-2.62,.23-.82,.6-1.65,.74-2.49,.13-.81-.02-1.63,.18-2.43,.42-1.63,1.2-3.23,1.98-4.72,1.65-3.16,3.75-6.1,5.05-9.43,.29-.75,.55-1.51,.92-2.22,.38-.73,.86-1.4,1.24-2.14,.77-1.49,1.33-3.09,2.16-4.55,.82-1.45,1.89-2.72,2.57-4.25,.74-1.65,1.49-3.3,2.24-4.95,.74-1.64,1.45-3.31,2.32-4.89,.42-.76,.86-1.51,1.31-2.25,.4-.67,.78-1.28,1.32-1.85,.57-.59,1-1.24,1.46-1.92,.42-.61,.94-1.12,1.4-1.71,.98-1.26,1.72-2.67,2.59-4.01,.92-1.41,1.58-2.9,2.24-4.44,.6-1.39,1.43-2.65,2.39-3.83,.96-1.19,2-2.31,2.95-3.5,.5-.62,.99-1.25,1.41-1.92,.47-.74,.84-1.53,1.19-2.33,.35-.77,.69-1.54,1.1-2.28,.42-.74,.88-1.45,1.27-2.21,.77-1.47,.99-3.06,1.39-4.64,.13-.5,.25-1.11,.64-1.45l-1.4-.37c-.03-.13,.02-.23,.15-.29,.19-.14,.2-.18,.03-.13-.45,.09-.7,.62-.59,1.03,.13,.46,.59,.68,1.03,.59h0Z"/><path class="cls-4" d="M105.19,165.05c0-.47,0-.94,0-1.41h-1.68c.1,.85-.34,1.66-.68,2.4-.45,.98-.98,1.91-1.45,2.88-.95,1.95-2.01,3.87-3.16,5.71-.57,.93-1.33,1.62-2.11,2.37-.78,.76-1.34,1.57-1.84,2.53-.51,.98-1.05,1.94-1.5,2.95-.45,.99-.88,1.99-1.32,2.99-.47,1.06-.93,2.13-1.35,3.21-.4,1.04-.71,2.11-1.08,3.17-.38,1.11-.84,2.18-1.19,3.3-.32,1.03-.5,2.1-.77,3.14-.13,.51-.26,1.03-.49,1.5-.24,.49-.48,.97-.62,1.49-.27,1.02-.46,2.07-.67,3.1-.23,1.1-.48,2.19-.94,3.22-.42,.94-.92,1.84-1.43,2.74-1,1.78-1.91,3.55-2.48,5.52-.22,.75-.45,1.56-.77,2.22-.08,.17-.17,.35-.27,.51-.07,.12-.21,.33-.22,.35-.04,.05-.09,.11-.14,.16-.02,.02-.2,.19-.15,.15,.09-.07-.11,.07-.1,.07-.04,.03-.09,.05-.13,.07,.09-.04,.09-.04,0,0-1.02,.33-.59,1.96,.45,1.62,1.47-.48,2.12-2.12,2.57-3.46,.22-.66,.4-1.33,.61-1.99,.26-.84,.63-1.64,1.03-2.42,1-1.94,2.24-3.78,2.97-5.86,.39-1.09,.57-2.24,.83-3.37,.23-1.01,.34-2.08,.8-3.02,.51-1.02,.78-2.09,1.03-3.2,.25-1.12,.54-2.2,.94-3.28,.81-2.19,1.46-4.43,2.37-6.58,.87-2.05,1.72-4.16,2.76-6.13,.26-.49,.53-.96,.78-1.45,.23-.45,.45-.91,.77-1.3,.7-.86,1.63-1.51,2.33-2.37,.77-.96,1.31-2.05,1.93-3.1,.64-1.08,1.27-2.16,1.81-3.3,.55-1.15,1.17-2.25,1.7-3.41,.44-.97,1-2.05,.87-3.15-.05-.45-.35-.84-.84-.84-.45,0-.84,.38-.84,.84,0,.47,0,.94,0,1.41,0,1.08,1.68,1.08,1.68,0h0Z"/><path class="cls-4" d="M96.15,140.54c.54,.55,1.14,1.08,1.85,1.39,.76,.33,1.53,.35,2.34,.38,.89,.03,1.77,.16,2.66,.05,.89-.11,1.56-.54,2.23-1.1,.25-.21,.49-.43,.76-.62,.13-.09,.33-.25,.49-.29,.1-.02,.27,.03,.39,.03,.5-.03,.89-.32,1.28-.62,.33-.26,.69-.43,1.08-.57,.91-.32,1.84-.55,2.68-1.02,.38-.21,.75-.46,1.13-.66,.39-.2,.81-.33,1.22-.48,.77-.28,1.47-.68,2-1.32,.41-.5,.74-1.05,1.07-1.6,.31-.5,.61-.99,1.02-1.31,.19-.15,.35-.23,.6-.28,.1-.02,.16-.02,.32-.03,.1,0,.33,.04,.42,0-.26,.12-.51-.33-.62-.47,.02,.02,.04,.23,0,.02,.02,.14,.04,.29,.05,.43,.04,.44,.03,.88-.07,1.31-.2,.93-.72,1.72-1.19,2.53-.45,.78-.77,1.67-1.33,2.38-.59,.76-1.1,1.52-1.55,2.37-.44,.85-.91,1.67-1.42,2.48-.48,.77-.8,1.59-1.2,2.4-.38,.75-.9,1.4-1.44,2.04-.63,.74-1.25,1.48-1.82,2.27-.59,.8-1.13,1.65-1.57,2.54-.46,.91-.94,1.85-1.31,2.8-.33,.85-.46,1.76-.73,2.63-.27,.86-.63,1.68-.97,2.5-.65,1.59-1.23,3.31-.82,5.04,.22,.91,.73,1.64,1.31,2.34,.53,.64,1.09,1.25,1.74,1.77,.73,.57,1.55,1.01,2.5,1.03,.97,.01,1.79-.47,2.28-1.29,.16-.27,.3-.54,.51-.78,.32-.38,.68-.72,1.04-1.06,.69-.66,1.25-1.42,1.9-2.13,.59-.64,1.29-1.14,1.87-1.8,.57-.64,1.06-1.34,1.55-2.05,1.17-1.68,2.28-3.4,3.41-5.11,.27-.41,.53-.85,.83-1.24,.27-.35,.61-.65,.94-.94,.68-.61,1.26-1.28,1.86-1.98,.68-.79,1.39-1.55,2.01-2.38,.56-.74,1.14-1.42,1.81-2.06,.63-.61,1.24-1.24,1.66-2.02,.52-.95-.93-1.8-1.45-.85-.4,.73-1,1.28-1.59,1.86-.69,.66-1.26,1.39-1.83,2.16-.6,.8-1.3,1.52-1.95,2.28-.59,.69-1.18,1.32-1.85,1.93-.71,.64-1.23,1.39-1.76,2.18-.57,.85-1.12,1.71-1.68,2.57-.99,1.5-1.95,3.1-3.15,4.45-.57,.65-1.28,1.16-1.87,1.8-.61,.67-1.14,1.4-1.79,2.02-.63,.61-1.31,1.22-1.75,1.99-.14,.24-.23,.49-.47,.63-.32,.18-.71,.14-1.05,.02-.7-.24-1.27-.82-1.76-1.34-.53-.56-1.11-1.17-1.44-1.88-.67-1.44-.02-3.11,.53-4.48,.32-.8,.67-1.58,.95-2.39,.29-.85,.44-1.74,.71-2.59,.28-.89,.77-1.76,1.18-2.6,.43-.87,.93-1.7,1.5-2.49,1.02-1.44,2.37-2.67,3.25-4.21,.46-.79,.74-1.66,1.21-2.44,.48-.8,.97-1.57,1.4-2.4,.41-.79,.82-1.6,1.38-2.29,.6-.75,1.01-1.55,1.45-2.4,.44-.84,.97-1.62,1.32-2.51,.35-.86,.5-1.83,.39-2.76-.08-.67-.17-1.45-1.06-1.52-.64-.05-1.29,.04-1.87,.32-1.18,.57-1.78,1.83-2.45,2.88-.33,.51-.61,.91-1.19,1.22-.74,.39-1.56,.56-2.29,.97-.38,.22-.75,.46-1.14,.66-.42,.21-.88,.34-1.32,.48-.45,.14-.89,.29-1.32,.47-.44,.19-.78,.44-1.16,.72-.07,.05-.18,.15-.25,.17-.17,.05-.42-.03-.61,.01-.4,.08-.77,.31-1.1,.54-.58,.42-1.11,1.07-1.79,1.34s-1.55,.12-2.25,.08c-.72-.05-1.47,.03-2.16-.2-.56-.19-1.07-.68-1.5-1.12-.76-.77-1.95,.42-1.19,1.19h0Z"/><path class="cls-4" d="M114.02,173.47l.32,.06c-.2-.2-.39-.39-.59-.59,.11,.35,.12,.71,.17,1.07,.05,.33,.15,.64,.27,.95,.27,.7,.63,1.29,1.22,1.76,1.07,.85,2.67,1.43,4.05,1.32,.65-.05,1.33-.33,1.92-.41,.63-.09,1.19-.16,1.72-.55,.59-.43,1.14-.78,1.84-.99,.65-.2,1.31-.32,1.96-.51,.75-.22,1.45-.5,2.04-1.01,.5-.42,.86-.98,1.27-1.48,.48-.58,1.04-1.1,1.53-1.68,.5-.59,.93-1.23,1.43-1.82,.95-1.12,2.11-2.04,3.19-3.03,.54-.5,1.08-1.02,1.54-1.61,.45-.57,.79-1.2,1.2-1.79,.2-.29,.44-.58,.73-.8,.29-.22,.62-.38,.89-.62,.31-.28,.54-.64,.62-1.05,.08-.36,.02-.74,.09-1.09,.14-.67,.72-1.37,1.15-1.88,.56-.66,1.18-1.26,1.79-1.86l-1.19-1.19c-.22,.22-.43,.43-.65,.65-.77,.77,.42,1.95,1.19,1.19,.22-.22,.43-.43,.65-.65,.77-.77-.42-1.95-1.19-1.19-1.01,1.01-2.07,2.02-2.8,3.26-.38,.64-.62,1.25-.65,2,0,.22,.02,.39-.11,.55-.17,.21-.49,.32-.71,.48-1.11,.82-1.57,2.1-2.45,3.11-.94,1.08-2.07,1.97-3.12,2.94-.51,.47-1.01,.97-1.46,1.5-.46,.56-.87,1.16-1.34,1.71-.48,.56-1.01,1.07-1.49,1.63-.39,.47-.73,.99-1.18,1.41-.9,.84-2.39,.88-3.52,1.24-.71,.23-1.38,.55-1.98,1.01-.2,.15-.42,.31-.6,.36-.06,.02-.25,.05-.24,.05-.03,0-.28,.03-.39,.05-.68,.09-1.35,.41-2.03,.39-.63-.01-1.34-.21-1.91-.48-.6-.29-1.1-.66-1.38-1.28-.13-.29-.25-.61-.29-.92-.06-.4-.07-.81-.19-1.2-.09-.27-.3-.53-.59-.59l-.32-.06c-.44-.09-.91,.13-1.03,.59-.11,.42,.14,.94,.59,1.03h0Z"/><path class="cls-4" d="M32.03,74.48c.97,.56,1.69,1.45,2.66,2.01,.92,.53,1.58,1.35,2.44,1.95,.43,.3,.91,.5,1.39,.72,.56,.25,1.08,.56,1.62,.85,.99,.53,2.02,1.01,3.11,1.3,1.16,.31,2.33,.59,3.48,.95,.56,.18,1.12,.36,1.66,.59,.48,.21,.83,.58,1.29,.83,.48,.25,.99,.37,1.5,.54,.57,.2,1.1,.5,1.62,.8,.98,.57,1.92,1.18,2.78,1.92,.83,.72,1.62,1.49,2.48,2.17,.97,.77,2.05,1.4,3.08,2.09,2.12,1.41,4.23,2.83,6.38,4.2,1.06,.67,2.07,1.4,3.09,2.14,1,.73,2.06,1.4,3.04,2.16,.95,.73,1.81,1.58,2.77,2.31,.96,.74,2.01,1.35,3.01,2.04,.96,.67,1.73,1.56,2.68,2.24,.38,.27,.81,.39,1.22,.6,.54,.28,1.06,.6,1.61,.87,1.02,.49,2.07,.97,3.01,1.6,.82,.55,1.27,1.37,1.96,2.04,.77,.76,1.8,1.03,2.66,1.64,.85,.61,1.41,1.55,2.15,2.28,.37,.36,.77,.7,1.26,.88,.5,.19,.88,.34,1.29,.7,.82,.73,1.54,1.36,2.56,1.79,1.02,.43,2.08,.73,3.12,1.1,1.13,.4,2.04,1.03,3.06,1.63,1,.59,2.08,1.07,3.12,1.58,1.14,.56,2.41,.75,3.54,1.31,1.03,.51,1.91,1.27,2.94,1.78,1.06,.52,2.05,1.19,3.06,1.8,1.03,.62,2.12,1.09,3.18,1.64,1.07,.55,2.1,1.16,3.19,1.67,2.22,1.06,4.6,1.73,6.81,2.82,2.1,1.03,3.94,2.65,6.19,3.38,1,.33,2.06,.3,3.06,.67,1.1,.41,2.11,.87,3.26,1.15,1.08,.27,1.72,1.05,2.65,1.6,1.06,.63,2.19,.62,3.37,.85,.56,.11,1.09,.32,1.65,.44,.58,.12,1.17,.18,1.77,.2,1.08,.03,1.08-1.65,0-1.68-1.19-.03-2.23-.48-3.39-.65-1.16-.17-2.15-.26-3.1-1.01-.4-.32-.79-.67-1.25-.92-.51-.28-1.07-.42-1.63-.55-1.15-.27-2.16-.85-3.27-1.2-.98-.31-2.03-.26-2.99-.65-1.07-.43-2.06-1.09-3.04-1.71-2.07-1.29-4.26-2.24-6.53-3.11-1.14-.44-2.28-.87-3.36-1.43-1.07-.55-2.11-1.15-3.19-1.68-1.05-.51-2.06-1.02-3.05-1.64-1.04-.65-2.11-1.21-3.19-1.8-.99-.55-1.82-1.28-2.88-1.71-1.15-.47-2.33-.73-3.43-1.31-1.07-.55-2.19-.99-3.19-1.67-.94-.63-1.92-1.1-2.99-1.48-1.03-.36-2.1-.64-3.09-1.1-.95-.45-1.58-1.26-2.42-1.85-.42-.3-.91-.37-1.35-.61-.44-.23-.79-.7-1.11-1.07-.71-.82-1.37-1.63-2.34-2.17-.9-.51-1.7-.82-2.37-1.65-.66-.82-1.33-1.48-2.25-2.03-.96-.57-1.98-1.03-2.98-1.53-.5-.25-.96-.57-1.47-.79-.48-.22-.88-.38-1.29-.73-.91-.78-1.75-1.57-2.75-2.25-.98-.66-1.99-1.25-2.9-2.01-.95-.79-1.85-1.64-2.86-2.36-.99-.7-1.98-1.39-2.96-2.1-2.05-1.48-4.22-2.77-6.32-4.19-1.06-.71-2.11-1.44-3.17-2.14-.99-.65-2.01-1.24-2.92-2.01-.84-.71-1.62-1.48-2.47-2.17-.89-.72-1.86-1.34-2.85-1.91-.5-.29-1.02-.55-1.56-.76-.51-.2-1.07-.28-1.54-.57-.38-.24-.7-.54-1.11-.73-.6-.27-1.23-.48-1.86-.69-1.11-.36-2.24-.66-3.37-.94-1.14-.29-2.17-.75-3.21-1.31-.91-.5-1.99-.85-2.83-1.47-.42-.3-.77-.69-1.16-1.03-.46-.4-.94-.71-1.46-1.02-.9-.54-1.57-1.38-2.49-1.91-.94-.54-1.79,.91-.85,1.45h0Z"/><path class="cls-4" d="M145.78,87.41c.68,.35,1.36,.69,1.98,1.14,.65,.47,1.26,.99,1.89,1.48,.66,.52,1.34,1.02,2.03,1.49,.63,.43,1.29,.83,1.83,1.38,.51,.51,.98,1.05,1.54,1.51,.6,.49,1.22,.95,1.8,1.45,.54,.47,1.03,.96,1.4,1.57,.42,.68,.8,1.34,1.29,1.97,.88,1.14,1.88,2.18,2.71,3.37,.42,.61,.8,1.25,1.09,1.93,.3,.68,.55,1.38,.95,2.01,.89,1.36,1.95,2.58,3.01,3.8,.84,.97,1.41,2.27,1.6,3.54,.1,.71,.09,1.48,.05,2.2-.03,.7-.15,1.4-.52,2.01-.64,1.05-2.06,1.46-3.21,1.45-1.08,0-1.08,1.67,0,1.68,1.32,0,2.75-.42,3.78-1.25,1.22-.98,1.6-2.59,1.64-4.09,.04-1.53-.1-2.97-.71-4.39-.3-.72-.69-1.38-1.17-1.99-.5-.65-1.09-1.22-1.6-1.86-.49-.63-.99-1.28-1.43-1.94-.45-.69-.7-1.47-1.04-2.21-.66-1.45-1.7-2.69-2.72-3.9-.48-.57-.98-1.14-1.42-1.75-.46-.65-.79-1.37-1.27-2.01-.99-1.31-2.42-2.12-3.59-3.23-.67-.63-1.23-1.32-1.98-1.86-.81-.58-1.64-1.11-2.44-1.7-.78-.59-1.52-1.22-2.3-1.81-.74-.56-1.53-1-2.36-1.42-.96-.49-1.81,.96-.85,1.45h0Z"/><path class="cls-4" d="M136.09,65.05c1.1,.29,1.87-.59,2.38-1.44,.22-.37,.41-.77,.64-1.14,.04-.07,.09-.14,.14-.21,.06-.08-.03,.04-.03,.05,.05-.05,.1-.1,.14-.15,.26-.26,.53-.51,.8-.75,1.13-1.03,2.03-2.18,2.92-3.41,.43-.59,.76-1.17,1.08-1.83,.3-.62,.71-1.11,1.16-1.62,.49-.55,.98-1.1,1.39-1.71,.39-.57,.72-1.15,1.17-1.68,.9-1.08,1.92-2.05,2.78-3.16,.87-1.13,1.64-2.34,2.51-3.47,.86-1.11,1.9-2.07,2.76-3.19,.86-1.12,1.47-2.35,2.19-3.56,.73-1.22,1.63-2.21,2.61-3.23,.5-.52,.97-1.08,1.4-1.67,.21-.28,.41-.57,.62-.85,.16-.23,.31-.56,.52-.75,.22-.2,.54-.12,.78-.26,.3-.16,.58-.44,.8-.7,.41-.49,.71-1.09,1.21-1.49,.54-.43,1.14-.77,1.68-1.22,.55-.46,1.08-.94,1.6-1.44,1.1-1.03,2.22-2.01,3.39-2.97,2.3-1.89,4.63-3.75,6.57-6.03,.47-.55,.91-1.13,1.42-1.65,.49-.5,1.01-.97,1.52-1.45,.53-.5,1.03-1.03,1.59-1.5,.54-.44,1.13-.83,1.72-1.21,1.25-.83,2.44-1.74,3.67-2.62,1.29-.93,2.6-1.83,3.9-2.75,.63-.45,1.26-.9,1.88-1.37-.41-.32-.82-.63-1.23-.95l-.04,.23c-.07,.45,.12,.9,.59,1.03,.4,.11,.96-.14,1.03-.59l.04-.23c.06-.34,0-.67-.3-.88-.25-.18-.66-.27-.93-.07-2.28,1.71-4.66,3.29-6.95,4.98-1.07,.79-2.17,1.53-3.27,2.28-1.1,.75-2.01,1.64-2.98,2.55-.96,.9-1.84,1.82-2.69,2.83-.82,.98-1.7,1.91-2.64,2.77-2.05,1.88-4.32,3.49-6.36,5.37-1.05,.97-2.05,2.03-3.21,2.87-.57,.41-1.16,.73-1.61,1.28-.39,.48-.69,1.09-1.21,1.46l.42-.11c-.87,.07-1.47,.45-1.95,1.17-.43,.64-.87,1.28-1.37,1.87-.99,1.19-2.14,2.2-3.03,3.48-.85,1.23-1.45,2.62-2.31,3.85-.86,1.23-1.96,2.23-2.89,3.4-.96,1.21-1.79,2.53-2.73,3.76-.92,1.19-2.04,2.2-2.96,3.38-.5,.63-.88,1.35-1.37,1.98-.45,.58-.97,1.1-1.44,1.66-.52,.63-.83,1.3-1.2,2.02-.36,.69-.87,1.31-1.33,1.93-.51,.7-1.07,1.33-1.7,1.92-.55,.51-1.18,.99-1.61,1.62-.3,.44-.51,.93-.79,1.38-.16,.25-.18,.29-.37,.48-.02,.02-.14,.11-.06,.06,.08-.06-.08,.04-.1,.05,.17-.07,.05-.02,.01-.02,.05,0,.28,.02,.11-.02-1.05-.28-1.49,1.34-.45,1.62h0Z"/><path class="cls-4" d="M106.34,37.99c0-.94,.51-1.78,.77-2.67,.29-.99,.51-2.01,.9-2.97,.74-1.77,2.05-3.22,3.32-4.62,.63-.7,1.27-1.37,1.96-2.01,.77-.72,1.27-1.56,1.77-2.47,.23-.42,.47-.83,.68-1.26,.23-.47,.43-.98,.75-1.39,.24-.32,.57-.56,.85-.85,.33-.34,.59-.74,.88-1.1,1.08-1.31,2.36-2.38,3.84-3.2,.74-.41,1.52-.82,2.32-1.1,.69-.24,1.15-.14,1.9,.11,.72,.25,1.53,.51,2.11,1.02,.62,.55,.85,1.41,.93,2.21,.05,.46,.05,.92,.05,1.38,0,.5,.04,1.02-.03,1.52-.12,.86-.47,1.69-.87,2.45-.27,.51-.57,1.01-.81,1.53-.23,.5-.38,1.03-.54,1.55-.32,1.03-1.08,1.78-1.56,2.73-.53,1.03-.97,2.13-1.42,3.2-.19,.46-.31,.94-.49,1.4-.24,.6-.42,1.07-.33,1.73,.06,.45,.64,.7,1.03,.59,.49-.13,.65-.58,.59-1.03-.01-.09,.12-.34,.16-.44,.09-.22,.19-.44,.27-.67,.16-.47,.3-.92,.5-1.37,.44-.98,.8-2.01,1.34-2.95,.23-.41,.53-.77,.79-1.15,.31-.45,.53-.94,.69-1.47,.15-.48,.26-.97,.48-1.42,.23-.48,.5-.93,.74-1.4,.47-.89,.87-1.84,1.04-2.84,.17-1.01,.14-2.13,.06-3.15-.08-.98-.27-2.02-.81-2.86-.57-.87-1.44-1.39-2.38-1.78-.82-.34-1.71-.69-2.61-.73-.86-.04-1.64,.33-2.4,.68-1.71,.78-3.32,1.75-4.68,3.06-.66,.64-1.2,1.35-1.77,2.06-.31,.39-.71,.68-1.04,1.05-.36,.42-.62,.89-.86,1.38-.46,.94-.94,1.89-1.5,2.78-.52,.82-1.35,1.37-2,2.08-1.54,1.7-3.21,3.4-4.22,5.47-.55,1.12-.85,2.31-1.19,3.5-.32,1.15-.91,2.2-.92,3.41,0,1.08,1.68,1.08,1.68,0h0Z"/><path class="cls-4" d="M150.69,169.62c-.01,1.81-.25,3.66,.03,5.46,.2,1.31,.99,2.13,2.33,2.23,1.34,.11,2.86,.29,4.17-.11,.76-.23,1.45-.68,2.14-1.06,.8-.44,1.63-.74,2.45-1.11,1.52-.69,3-1.79,4.05-3.08,.47-.57,.89-1.18,1.32-1.77,.53-.73,1.16-1.36,1.76-2.03,1.17-1.29,2.27-2.65,3.52-3.86,1.19-1.16,2.62-1.99,3.87-3.09,.52-.46,1.16-.78,1.65-1.27,.58-.58,.97-1.37,1.37-2.08,.77-1.38,1.46-2.82,2.37-4.11,.45-.63,1.01-1.16,1.44-1.81,.47-.7,.81-1.39,1.41-2,.53-.54,.98-1.13,1.41-1.75,.54-.77,1.12-1.46,1.72-2.18,1.02-1.23,1.37-2.82,2.54-3.98,.55-.54,.96-1.07,1.22-1.81,.26-.74,.5-1.31,.94-1.96,.4-.59,.57-1.21,.78-1.89,.25-.82,.61-1.59,1.01-2.34,.79-1.47,1.76-2.83,2.65-4.23,.41-.64,.83-1.28,1.11-1.99,.28-.71,.32-1.46,.54-2.19,.49-1.67,1.64-3.33,2.63-4.74,.98-1.39,2.25-2.56,3.17-3.99,.43-.66,.77-1.38,1.27-1.99,.54-.66,1.12-1.27,1.61-1.98,.95-1.41,1.77-2.89,2.78-4.27,1.06-1.46,2.17-2.88,3.22-4.34,1.01-1.4,1.85-2.9,2.81-4.32,.92-1.36,2.07-2.56,3.05-3.87,1.15-1.53,2.28-3.07,3.34-4.67,.86-1.29,2.04-2.38,2.72-3.78,.32-.67,.48-1.39,.76-2.07,.34-.8,.68-1.59,1.02-2.39,.33-.78,.88-1.34,1.42-1.97,.57-.66,1.07-1.39,1.54-2.13,.44-.69,.8-1.41,1.26-2.08,.52-.76,1.1-1.47,1.62-2.24,.44-.66,.79-1.33,1.09-2.06,.36-.88,.84-1.64,1.32-2.46,.4-.69,.66-1.39,.89-2.15,.23-.76,.57-1.34,.98-2.01,.91-1.47,1.52-3.11,2.43-4.59,1.79-2.91,3.26-6.12,4.48-9.32,.64-1.69,1.22-3.43,1.71-5.17,.5-1.76,.77-3.56,1.22-5.33,.45-1.77,.52-3.62,.88-5.41,.36-1.78,.67-3.58,1.17-5.33,.52-1.83,1.23-3.6,1.8-5.41,.25-.78,.6-1.49,.9-2.25,.31-.77,.39-1.61,.68-2.39,.6-1.6,1.82-3.11,2.94-4.36,.72-.81-.47-2-1.19-1.19-1.13,1.27-2.17,2.67-2.96,4.18-.35,.66-.55,1.34-.72,2.07-.2,.86-.58,1.59-.91,2.41-.67,1.63-1.14,3.38-1.71,5.05-.57,1.68-.97,3.4-1.31,5.14-.35,1.78-.67,3.54-.89,5.34-.11,.88-.32,1.71-.55,2.57-.24,.86-.33,1.74-.52,2.62-.73,3.45-2,6.84-3.48,10.03-.72,1.55-1.33,3.16-2.21,4.63-.87,1.45-1.68,2.88-2.42,4.4-.67,1.37-1.55,2.53-1.99,4-.23,.77-.55,1.42-.97,2.11-.49,.79-.85,1.58-1.22,2.43-.66,1.51-1.78,2.73-2.68,4.09-.96,1.45-1.75,2.91-2.9,4.23-1.07,1.23-1.59,2.74-2.23,4.21-.3,.68-.44,1.42-.77,2.09-.36,.73-.88,1.35-1.39,1.97-1.07,1.31-1.96,2.75-2.96,4.12-1.02,1.41-2.06,2.81-3.18,4.14-1.07,1.27-1.9,2.62-2.79,4.01-.92,1.43-1.93,2.8-2.95,4.17-1.04,1.39-2.12,2.76-3.06,4.22-.9,1.4-1.69,2.76-2.78,4.01-1.08,1.24-1.75,2.75-2.84,4-1.12,1.27-2.13,2.6-3.01,4.06-.85,1.41-1.66,2.85-1.95,4.48-.28,1.54-1.25,2.79-2.1,4.07-.86,1.31-1.73,2.64-2.38,4.07-.32,.71-.56,1.42-.78,2.16-.21,.7-.67,1.16-1.01,1.79-.34,.64-.4,1.42-.79,2.02-.43,.65-1.11,1.13-1.56,1.79-.43,.62-.75,1.3-1.07,1.98-.37,.79-.98,1.35-1.51,2.02-.49,.62-.9,1.29-1.37,1.92-.49,.64-1.13,1.15-1.59,1.82-.41,.59-.69,1.24-1.15,1.79-.51,.61-1.01,1.22-1.44,1.89-.86,1.33-1.54,2.77-2.34,4.14-.38,.66-.73,1.18-1.36,1.62-.64,.44-1.19,.97-1.79,1.46-.63,.51-1.34,.9-1.97,1.41-.62,.5-1.2,1.05-1.75,1.62-1.23,1.28-2.35,2.65-3.56,3.94-1.1,1.17-1.88,2.59-3,3.74-1.26,1.29-2.74,1.97-4.35,2.68-1.45,.64-2.65,1.67-4.3,1.7-.68,.01-1.36-.05-2.04-.08-.67-.04-.96-.09-1.09-.8-.31-1.69-.01-3.52,0-5.23,0-1.08-1.67-1.08-1.68,0h0Z"/><path class="cls-4" d="M254.62,16.77c1.08,0,1.08-1.68,0-1.68s-1.08,1.68,0,1.68h0Z"/><path class="cls-4" d="M137.94,181.23c-.03-.28-.07-.55-.14-.82-.51,.22-1.02,.43-1.54,.65,.27,.42,.21,.97,.36,1.44,.18,.59,.52,1.1,.8,1.64,.54,1.02,.87,2.13,1.28,3.2,.21,.55,.41,1.09,.54,1.67,.13,.54,.33,1.1,.36,1.66,.03,.59,.07,1.14,.33,1.69,.22,.45,.5,.77,.54,1.28,.04,.58,.16,1.08,.48,1.58,.15,.23,.33,.45,.47,.69,.18,.31,.3,.65,.45,.98,.49,1.12,.93,2.24,1.37,3.38,.43,1.11,1.01,2.16,1.43,3.28,.44,1.13,.44,2.3,.69,3.47,.24,1.14,.55,2.26,.91,3.36,.39,1.16,.88,2.26,1.34,3.39,.44,1.07,.72,2.19,1.07,3.29,.39,1.23,.85,2.45,1.22,3.69,.16,.53,.29,1.05,.36,1.6,.08,.62,.08,1.26,.2,1.88,.21,1.14,.8,2.18,1.1,3.29,.14,.51,.33,1.01,.4,1.53,.07,.53,.1,1.06,.29,1.57,.19,.53,.48,1.01,.71,1.52,.25,.57,.46,1.16,.67,1.75,.24,.65,.54,1.29,.74,1.96,.19,.62,.31,1.25,.56,1.86,.21,.5,.54,.96,.64,1.49,.12,.68,.11,1.39,.18,2.07,.14,1.29,.36,2.6,.63,3.86,.27,1.28,.8,2.47,.99,3.77,.13,.84,1.43,.76,1.62,0l.05-.2c.26-1.05-1.36-1.5-1.62-.45l-.05,.2h1.62c-.17-1.16-.62-2.22-.9-3.35-.27-1.1-.41-2.23-.6-3.34-.2-1.16-.03-2.46-.48-3.57-.19-.46-.46-.87-.62-1.34-.21-.62-.32-1.27-.55-1.88-.43-1.13-.83-2.28-1.31-3.39-.2-.48-.48-.92-.66-1.41-.2-.54-.2-1.09-.3-1.64-.2-1.11-.59-2.2-1.01-3.24-.2-.51-.41-1.03-.5-1.58-.1-.62-.11-1.26-.2-1.89-.18-1.21-.61-2.36-1.01-3.51-.41-1.18-.76-2.37-1.14-3.56-.35-1.11-.84-2.16-1.27-3.25-.44-1.12-.82-2.27-1.13-3.44-.14-.54-.27-1.09-.38-1.64-.12-.59-.16-1.2-.24-1.8-.18-1.22-.75-2.36-1.26-3.47-.51-1.1-.89-2.23-1.35-3.34-.47-1.13-.91-2.31-1.6-3.32-.16-.23-.29-.43-.32-.7-.04-.3-.03-.61-.11-.91-.14-.55-.58-.97-.71-1.51-.08-.32-.05-.66-.08-.99-.04-.38-.14-.73-.23-1.09-.15-.61-.26-1.22-.49-1.81-.48-1.25-.89-2.54-1.46-3.76-.26-.55-.66-1.06-.84-1.65-.2-.63-.16-1.26-.53-1.84-.51-.81-1.76-.29-1.54,.65,.03,.12,.06,.25,.08,.37,.05,.45,.35,.84,.84,.84,.41,0,.89-.39,.84-.84h0Z"/><path class="cls-4" d="M188.59,143.58c.73,.79,1.22,1.8,1.68,2.76,.5,1.06,.78,2.25,1.42,3.24,.68,1.06,1.56,1.97,2.23,3.04,.68,1.1,1.16,2.32,1.7,3.5,1.07,2.33,2.68,4.37,3.67,6.73,.46,1.1,1.17,2.04,1.7,3.11,.26,.52,.38,1.08,.52,1.63,.17,.64,.35,1.28,.55,1.91,.41,1.27,.92,2.52,1.58,3.69,.62,1.08,1.35,2.09,2.09,3.09,.76,1.01,1.53,2.01,2.23,3.07,.73,1.12,1.37,2.29,2.08,3.43,.36,.58,.77,1.14,1.11,1.74,.3,.53,.52,1.1,.71,1.67,.4,1.19,.73,2.41,1.43,3.47,.33,.49,.7,.94,1.03,1.43,.36,.52,.65,1.09,.99,1.62,.7,1.09,1.51,2.11,2.31,3.13,1.7,2.16,3.38,4.35,4.93,6.61,.71,1.03,1.41,2.05,2.36,2.89,.44,.39,.91,.77,1.25,1.26,.33,.49,.56,1.04,.91,1.51,.17,.22,.35,.4,.56,.58,.14,.12,.27,.2,.31,.33,.29,1.04,1.91,.6,1.62-.45-.16-.56-.53-.87-.94-1.25-.41-.37-.61-.94-.89-1.4-.67-1.09-1.76-1.77-2.57-2.73-.82-.97-1.48-2.08-2.22-3.11-.82-1.14-1.67-2.27-2.53-3.38-.82-1.07-1.67-2.12-2.49-3.19-.39-.52-.77-1.04-1.13-1.59-.33-.52-.61-1.06-.95-1.57-.66-.99-1.42-1.86-1.83-3-.44-1.21-.74-2.48-1.38-3.62-.33-.6-.74-1.15-1.1-1.73-.37-.59-.73-1.19-1.09-1.79-.66-1.12-1.35-2.2-2.12-3.25-1.51-2.04-3.14-4.02-4.11-6.4-.5-1.23-.85-2.51-1.18-3.79-.31-1.21-.89-2.19-1.53-3.25-.65-1.06-1.06-2.25-1.67-3.33-.63-1.1-1.33-2.16-1.95-3.27-.64-1.16-1.14-2.4-1.71-3.6-.57-1.2-1.27-2.25-2.09-3.29-.37-.48-.75-.95-1.06-1.47-.32-.54-.49-1.13-.71-1.71-.41-1.07-.92-2.13-1.53-3.1-.29-.47-.62-.93-1-1.34-.74-.8-1.92,.39-1.19,1.19h0Z"/><path class="cls-4" d="M148.05,124.57c.18,.66,.66,.87,1.15,1.26,.5,.41,.89,.95,1.29,1.44,.81,.98,1.73,1.86,2.51,2.87,.75,.97,1.47,2.04,1.9,3.19,.21,.57,.35,1.13,.42,1.73,.08,.74,.27,1.34,.59,2.01,.05,.11,.1,.22,.13,.34,0,.04,.02,.08,.03,.11,.04,.18-.01-.13,0,0,.02,.21,.03,.42,.04,.63,0,.12,0,.25-.01,.37,0,.05,0,.09-.01,.14-.02,.15,.04-.17-.01,.08-.02,.06-.04,.25-.05,.19-.01-.06-.05,.04,.01-.02,.04-.04,.34-.19,.21-.16-.44,.09-.7,.62-.59,1.03,.13,.46,.59,.68,1.03,.59,1.08-.23,1.13-1.71,1.08-2.57-.04-.57-.16-1.06-.41-1.57-.3-.61-.35-1.18-.44-1.84-.39-2.79-2.43-5.23-4.28-7.22-.54-.59-1.05-1.19-1.57-1.8-.25-.29-.51-.57-.81-.81-.16-.13-.32-.24-.49-.35-.06-.04-.12-.1-.11-.07-.29-1.04-1.91-.6-1.62,.45h0Z"/><path class="cls-4" d="M95.76,137.33c1.28,.18,2.08,1.45,3.32,1.81,1.15,.33,2.53-.2,3.54-.74,.51-.27,1-.61,1.34-1.08,.41-.57,.59-1.27,.66-1.96,.14-1.41-.28-2.85-.85-4.13-.28-.64-.56-1.33-.96-1.9-.57-.8-1.34-1.46-2.04-2.15-.77-.76-1.96,.42-1.19,1.19,.54,.54,1.12,1.06,1.63,1.63,.38,.43,.58,.98,.83,1.49,.47,.97,.86,2.02,.92,3.1,.03,.5,0,1.03-.21,1.49-.18,.4-.35,.51-.79,.77-.43,.25-.88,.43-1.35,.56-.13,.04-.27,.07-.4,.1-.11,.02-.18,.03-.2,.03-.1,0-.2,0-.3,0-.04,0-.17-.02,0,0-.06-.01-.12-.03-.17-.04-.57-.16-1.05-.62-1.52-.96-.54-.4-1.13-.75-1.8-.84-.45-.06-.9,.11-1.03,.59-.11,.39,.13,.97,.59,1.03h0Z"/><path class="cls-4" d="M105.84,163.57c.62-1.12,1.53-2.04,2.78-2.42,1.12-.34,2.56-.32,3.57,.11,.54,.23,.94,.56,1.33,.99,.22,.24,.4,.5,.58,.77,.09,.14,.19,.27,.29,.41,.09,.14,.12,.12,.1,.26-.01,.09-.14,.32-.23,.5-.15,.28-.31,.54-.45,.82-.24,.47-.4,.97-.58,1.47-.21,.57-.35,1.01-.71,1.53-.01,.02-.1,.12-.02,.03-.05,.06-.11,.12-.16,.18-.04,.04-.08,.07-.12,.1,.09-.07,0,0-.05,.02-.04,.02-.19,.08-.04,.03-.06,.02-.13,.04-.19,.05-.14,.03,.19,0-.06,0-.09,0-.18,0-.27-.02-.45-.06-.84,.43-.84,.84,0,.5,.39,.78,.84,.84,1.58,.2,2.47-1.19,2.99-2.46,.12-.29,.22-.58,.32-.87,.05-.14,.1-.28,.15-.41,.02-.05,.04-.1,.06-.16,.02-.05,.04-.1,.06-.15-.03,.07-.03,.08,0,.02,.28-.64,.72-1.2,.93-1.87,.29-.95-.29-1.7-.82-2.42-.49-.67-1.05-1.26-1.76-1.7-1.37-.85-3.16-.96-4.72-.68-1.93,.35-3.47,1.66-4.4,3.34-.53,.95,.92,1.79,1.45,.85h0Z"/><path class="cls-4" d="M115.09,173.42c-.01,.16,0,.01,.03-.06-.05,.1,.06-.1,.07-.13,.12-.21,.26-.42,.41-.62,.21-.26,.46-.61,.75-.79,.39-.24,.97-.16,1.41-.22,.56-.08,1.03-.37,1.52-.63,.81-.43,1.82,.2,2.5,.64,.86,.56,1.5,1.34,1.51,2.39,0,.25,.03,.54-.04,.75-.06,.18-.18,.34-.28,.49-.11,.16-.23,.35-.34,.49-.08,.1-.19,.19-.26,.29-.1,.13,.09-.01,.03,0-1.06,.22-.61,1.85,.45,1.62,.59-.13,1-.73,1.33-1.19,.35-.48,.68-.98,.77-1.59,.22-1.52-.24-2.93-1.36-3.99-.52-.49-1.14-.9-1.79-1.2-.64-.3-1.37-.59-2.1-.56-.75,.03-1.25,.47-1.91,.74-.58,.24-1.27,.08-1.87,.31-.67,.25-1.14,.78-1.57,1.33-.45,.57-.88,1.17-.95,1.91-.04,.45,.42,.84,.84,.84,.49,0,.8-.39,.84-.84h0Z"/><path class="cls-4" d="M134.49,176.08c0,.11,.03-.14,.05-.17,0-.02,.03-.07,.09-.17,.08-.13,.27-.33,.44-.48,.35-.29,.82-.53,1.25-.73,.88-.41,2.05-.89,3.1-.96,.62-.04,1.19,.06,1.78,.27,.28,.1,.54,.22,.81,.34,.11,.05,.23,.11,.33,.18,.04,.02,.07,.04,.11,.07,.08,.05-.06-.06,.05,.04,.04,.03,.07,.07,.11,.11-.01-.01-.07-.09-.02-.01,.08,.14,.03,.03,.07,.15,.08,.27,.11,.54,.12,.82,.02,.56-.05,1.08-.37,1.55,.11-.17-.02,.02-.07,.08-.08,.1-.16,.19-.25,.28-.18,.2-.37,.4-.57,.6-.18,.18-.36,.35-.56,.51,.09-.07-.14,.09-.18,.11-.02,.02-.06,.03-.08,.05,.06-.06,.09-.04,.2-.05-1.08,.06-1.08,1.75,0,1.68,.61-.04,1.09-.45,1.53-.84,.41-.37,.8-.78,1.15-1.21,.95-1.16,1.21-3.02,.56-4.4-.27-.59-.8-.94-1.37-1.21-.8-.38-1.61-.68-2.49-.78-1.52-.17-3.05,.42-4.42,1.01-1.38,.59-2.9,1.52-3.03,3.17-.04,.45,.41,.84,.84,.84,.49,0,.8-.39,.84-.84h0Z"/><path class="cls-4" d="M152.59,174.94l-.02,.25c-.06,.81,1.22,1.17,1.57,.42,.26-.57,.5-1.16,.72-1.75,.14-.36,.27-.78,.51-.95,.31-.21,.66-.27,1.06-.38,.48-.14,.94-.32,1.39-.54,.31-.15,.68-.37,.97-.39,.4-.03,.8,.18,1.12,.4,.6,.43,.74,1.04,.67,1.8-.04,.45,.41,.84,.84,.84,.49,0,.8-.39,.84-.84,.1-1.13-.27-2.27-1.17-2.99-.47-.38-1.04-.69-1.64-.82-.67-.14-1.27,0-1.88,.27-.5,.22-.96,.48-1.49,.64-.49,.14-.99,.26-1.44,.51-1.21,.66-1.42,2.22-1.96,3.37,.52,.14,1.04,.28,1.57,.42l.02-.25c.04-.45-.41-.84-.84-.84-.48,0-.8,.39-.84,.84h0Z"/><path class="cls-4" d="M155.87,135.71c-.61,.1-1.17,.37-1.71,.66-.42,.22-.85,.48-1.33,.51-.42,.03-.86-.1-1.26-.19-.21-.05-.42-.1-.62-.16-.22-.06-.06,0,.06,.07-.04-.02-.07-.11,0,.01-.02-.05-.06-.09-.08-.13-.44-.81-.54-1.95-1.09-2.81-.33-.52-.87-1.16-.92-1.8-.03-.43,.46-.72,.74-1.02,.41-.43,.72-1.08,1.25-1.37,.6-.33,1.5-.11,2.15-.1,1.08,.01,1.08-1.67,0-1.68-.84-.01-1.74-.17-2.54,.12-.74,.27-1.21,.81-1.68,1.41-.43,.54-1.03,.97-1.36,1.58-.44,.84-.19,1.76,.21,2.56,.18,.36,.4,.7,.62,1.04,.08,.13,.17,.26,.25,.4,0,0,.1,.2,.05,.11-.04-.08,.04,.12,.05,.14,.2,.58,.34,1.19,.57,1.76,.25,.61,.56,1.1,1.21,1.33,.48,.17,1.01,.25,1.51,.34,.85,.15,1.6,.06,2.39-.3,.67-.3,1.25-.72,1.99-.84,.45-.07,.7-.63,.59-1.03-.13-.48-.58-.66-1.03-.59h0Z"/><path class="cls-4" d="M164.08,125.03c-.51,0-.92,.17-1.39,.32-.49,.16-1.02,.06-1.53,.06-.22,0-.43,0-.65,0-.04,0-.08,0-.12,0,.01,0,.14,.03,.05,0-.07-.02-.23-.08-.08-.01-.05-.02-.16-.12-.07-.04-.08-.07-.15-.15-.22-.23-.15-.18-.27-.4-.37-.61-.22-.45-.33-.95-.46-1.42-.12-.46-.28-.9-.45-1.34-.16-.41-.35-.89-.4-1.29-.01-.09,0-.36,0-.38,.03-.16,.07-.26,.21-.39,.3-.27,.74-.29,1.15-.29,.56,0,1.11,.06,1.66,.07,1.08,0,1.08-1.67,0-1.68-1.17-.01-2.47-.28-3.54,.36-1.15,.69-1.35,2-1,3.2,.15,.51,.37,1,.54,1.51,.2,.59,.32,1.21,.53,1.8,.4,1.1,1.11,2.29,2.37,2.41,.26,.02,.52,0,.77,0,.37,0,.74,.04,1.11,.03,.38-.01,.75-.08,1.11-.21,.28-.11,.49-.19,.76-.2,1.08,0,1.08-1.69,0-1.68h0Z"/><path class="cls-4" d="M168.65,113.62c-.77,0-1.51-.06-2.26,.18-.5,.16-.94,.2-1.46,.21-.47,0-.66-.13-.86-.62-.21-.51-.31-1.07-.45-1.6-.17-.61-.15-1.22-.21-1.85-.06-.66-.42-1.3-.4-1.96,0-.24-.02,.03,.02-.18,.03-.1,.03-.11,0-.04,.05-.08,.05-.09,0-.03,.08-.05,.19-.1,.37-.16,.46-.15,.96-.32,1.45-.26,.45,.06,.84-.43,.84-.84,0-.5-.39-.78-.84-.84-.5-.06-1.05,.07-1.53,.21-.51,.14-1.06,.3-1.44,.67-.94,.93-.4,2.24-.17,3.32,.13,.6,.07,1.25,.18,1.86,.1,.57,.27,1.14,.43,1.69,.34,1.2,1.04,2.26,2.4,2.31,.61,.02,1.26,0,1.85-.18,.29-.09,.57-.2,.88-.22,.41-.03,.82,0,1.22,0,1.08,0,1.08-1.68,0-1.68h0Z"/><path class="cls-4" d="M162.94,83.94c-.5,0-1.04,0-1.48,.26-.46,.28-.73,.77-.93,1.25-.43,1.07-.51,2.19,0,3.24,.48,.99,1.3,1.83,2.03,2.65,.78,.89,1.79,1.67,3.05,1.51,.45-.06,.84-.35,.84-.84,0-.41-.39-.9-.84-.84-.8,.1-1.27-.36-1.83-.98-.56-.63-1.15-1.25-1.59-1.97-.08-.13-.21-.36-.24-.45-.03-.09-.06-.18-.09-.28-.06-.25,0,.11-.02-.13-.01-.38,.06-.72,.18-1.1,.03-.09,.06-.18,.1-.27-.05,.12,.05-.1,.06-.12,.04-.08,.08-.16,.14-.23-.1,.13,.03-.03,.06-.04-.09,.07-.09,.07-.01,.03-.1,.04-.12,.05-.06,.03,.03-.01,.06-.02,.1-.02-.1,0-.11,.01-.05,0,.19-.02,.39-.01,.59,0,1.08,.02,1.08-1.66,0-1.68h0Z"/><path class="cls-4" d="M101.85,24.25c-.61,.15-1.08,.56-1.28,1.16-.14,.44-.11,.91-.1,1.36,.02,.84-.02,1.86,.86,2.31,.42,.21,.9,.24,1.37,.24,.62,0,1.22,.13,1.83-.08,.59-.2,1.02-.56,1.39-1.05,.29-.38,.53-.77,.8-1.11,.88-1.08,1.6-2.22,2.17-3.49,.18-.41,.12-.9-.3-1.15-.36-.21-.97-.12-1.15,.3-.39,.87-.83,1.71-1.39,2.49-.29,.41-.62,.78-.92,1.18-.12,.16-.23,.33-.35,.49-.05,.07-.09,.14-.14,.21-.02,.03-.05,.07-.07,.1-.15,.21,.05-.05-.04,.06-.05,.06-.11,.12-.16,.18-.03,.03-.06,.06-.09,.08,.03-.03,.11-.07-.03,.01-.14,.08-.2,.12-.39,.16-.2,.03-.46-.01-.68-.03-.23-.02-.45-.01-.68-.02-.08,0-.15,0-.23-.01-.16,0,.13,.04-.06-.01-.03,0-.21-.06-.08-.01,.11,.04,.04,.02,.01,0-.12-.08,.12,.11,.04,.04-.12-.11,.05,.08,.02,.03-.08-.12,0,.06,0,.02,0-.05-.03-.14-.04-.19,.04,.18,0,0,0-.08-.02-.4-.03-.81-.02-1.21,0-.04,0-.08,0-.12,0-.02,.03-.23,0-.11-.01,.08,.04-.13,.05-.17,0,.02-.06,.11,0,.05,.07-.08-.09,.08-.09,.07,0-.01,.11-.05,.04-.03-.08,.02,.16-.04,.15-.04,1.05-.26,.61-1.88-.45-1.62h0Z"/><path class="cls-4" d="M123.3,14.02c-.01,.52-.2,.89-.46,1.33-.34,.57-.61,1.15-.81,1.78-.21,.67-.35,1.36-.62,2.01-.26,.62-.48,1.21-.39,1.9,.27,1.97,2.41,2.84,4.15,3,.95,.09,1.99-.04,2.81-.54,.92-.57,.08-2.02-.85-1.45-.06,.04-.12,.07-.18,.11-.13,.08,.08-.02-.07,.03-.16,.06-.33,.1-.5,.14-.04,0-.23,.04-.18,.03,.05,0-.14,.01-.19,.02-.19,.01-.39,.01-.58,0-.64-.03-1.35-.2-1.91-.52-.29-.17-.47-.31-.63-.52-.15-.19-.24-.44-.23-.61,0-.54,.35-1.06,.52-1.56,.19-.59,.33-1.2,.53-1.79,.18-.54,.49-1,.77-1.5,.32-.58,.48-1.18,.5-1.84,.02-1.08-1.66-1.08-1.68,0h0Z"/><path class="cls-4" d="M142.24,19.68c-2.27-.43-3.49,2.13-4.29,3.82-.46,.98-.91,1.91-1.05,3.01-.16,1.23,.12,2.54,1.43,2.95,.52,.16,1.09,.16,1.63,.17,.12,0,.25,0,.37,.01,.04,0,.08,0,.12,0,.24,.01-.15-.04,.06,0,.03,0,.06,.02,.1,.02,.15,.01,.04,.05,0-.01,.08,.11-.03-.03-.04-.04-.03-.04-.13-.29-.1-.15,.27,1.05,1.89,.6,1.62-.45-.24-.97-1.29-1.05-2.12-1.07-.2,0-.41,0-.61-.02-.27-.02-.2,0-.45-.06-.05-.01-.1-.03-.15-.04,.01,0,.11,.05,.02,.01-.05-.02-.22-.16-.1-.06-.09-.08,0,.05-.05-.07,0,0-.06-.2-.07-.28-.12-.86,.25-1.81,.61-2.56,.37-.76,.71-1.53,1.15-2.26,.26-.43,.48-.73,.86-1.07,.09-.07,0-.02,.16-.11,.05-.03,.23-.12,.18-.1-.09,.03,.26-.05,.16-.04-.1,.01,.31,.04,.13,0,.45,.08,.91-.12,1.03-.59,.11-.41-.14-.95-.59-1.03h0Z"/><path class="cls-4" d="M153.97,28.81c-.93,.36-1.71,1.32-2.11,2.21-.48,1.06-.9,2.2-1.24,3.32-.26,.86-.43,1.78-.47,2.68-.05,.96,.14,2.17,1.21,2.51,.51,.16,1.02-.05,1.51,.04,.27,.05,.52,.21,.78,.3,.39,.14,.75,.14,1.15,.07,.45-.07,.7-.63,.59-1.03-.13-.48-.58-.66-1.03-.59-.14,.02-.36-.12-.5-.17-.33-.14-.63-.25-.99-.27-.25-.02-.49,.03-.74,.05-.04,0-.22,.03-.18,.02-.1-.02-.13-.03-.07-.02,.07,.08,.08,.08,.03,0l-.03-.06c.04,.09,.04,.09,.01,0,0-.04-.05-.26-.05-.21-.01-.08-.02-.38-.01-.55,.01-.48,.08-.89,.17-1.35,.2-.99,.57-1.94,.92-2.88,.2-.54,.38-1.1,.7-1.58,.11-.17,.26-.34,.41-.5,.08-.09,.16-.17,.26-.25,0,0,.26-.16,.13-.11,.42-.16,.72-.57,.59-1.03-.11-.41-.61-.75-1.03-.59h0Z"/><path class="cls-4" d="M143.62,156.3c-.07-.57,.45-.84,.81-1.23,.53-.55,.84-1.29,1.39-1.81,.26-.25,.58-.43,.86-.65,.26-.21,.47-.45,.68-.7,.51-.61,1.04-1.19,1.6-1.76,.57-.58,1.13-1.17,1.66-1.78,.44-.5,.81-1.07,1.27-1.55,.85-.87,2.02-1.62,2.34-2.86,.27-1.05-1.36-1.5-1.62-.45-.11,.43-.54,.84-.9,1.18-.43,.4-.89,.78-1.27,1.23-1.03,1.25-2.07,2.44-3.22,3.58-.54,.54-.97,1.21-1.53,1.73-.26,.24-.58,.43-.86,.65-.32,.25-.56,.56-.79,.89-.21,.29-.38,.59-.61,.87-.22,.27-.49,.49-.73,.74-.51,.52-.86,1.15-.77,1.9,.06,.45,.35,.84,.84,.84,.41,0,.9-.39,.84-.84h0Z"/><path class="cls-4" d="M130.65,146.57c.01,.06,.01-.02,.05-.06,.07-.09,.24-.23,.36-.33,.31-.27,.57-.56,.8-.9,.57-.82,.91-1.76,1.53-2.55,.63-.79,1.35-1.5,1.91-2.34,.49-.75,.89-1.56,1.6-2.13,.35-.29,.3-.89,0-1.19-.35-.35-.83-.29-1.19,0-.79,.64-1.28,1.57-1.83,2.41-.6,.93-1.43,1.69-2.08,2.58-.6,.81-.9,1.9-1.61,2.63-.3,.3-.63,.54-.89,.89-.32,.43-.39,.93-.28,1.45,.23,1.06,1.85,.61,1.62-.45h0Z"/><path class="cls-4" d="M156.82,160.53c.74-.97,1.2-2.12,1.94-3.08,.34-.45,.72-.87,1.05-1.32,.36-.49,.61-1.02,.9-1.55,.61-1.11,1.29-2.21,1.45-3.49,.03-.23,.06-.52,.15-.67,.03-.05,.19-.22,.29-.34,.4-.49,.5-1,.38-1.61-.08-.45-.62-.7-1.03-.59-.47,.13-.67,.59-.59,1.03,0,.02-.04,.07,0,.04-.15,.15-.3,.33-.42,.5-.34,.47-.36,1-.45,1.56-.17,1.11-.93,2.11-1.43,3.09-.51,.97-1.21,1.74-1.85,2.62-.69,.94-1.14,2.02-1.85,2.96-.27,.36-.06,.94,.3,1.15,.43,.25,.88,.06,1.15-.3h0Z"/><path class="cls-4" d="M138.97,100.3c.09,0,.02,.02-.04-.03-.05-.05-.11-.1-.16-.15-.17-.17-.33-.33-.52-.47-.18-.13-.38-.21-.54-.37-.17-.16-.3-.36-.45-.54-.69-.86-1.71-1.22-2.58-1.86-.83-.61-1.82-.97-2.62-1.63-.85-.69-1.63-1.42-2.67-1.81-.88-.33-1.51,1.14-.65,1.54,1.69,.77,2.94,2.19,4.49,3.18,1.63,1.04,3.38,1.8,4.75,3.2,.76,.78,1.94-.41,1.19-1.19-1.44-1.48-3.25-2.33-4.97-3.4-1.6-.99-2.87-2.46-4.6-3.25-.22,.51-.43,1.02-.65,1.54,.94,.35,1.65,1.2,2.45,1.79,.43,.32,.9,.56,1.37,.81,.5,.27,.94,.61,1.42,.92,.43,.28,.93,.49,1.34,.79,.38,.28,.62,.71,.94,1.05,.33,.35,.76,.55,1.1,.89,.39,.38,.82,.68,1.38,.68,1.08,0,1.08-1.68,0-1.68h0Z"/><path class="cls-4" d="M127.18,108.29c-.2,0,0,0,0,0,0,0-.13-.03-.14-.04-.1-.03-.09-.03,0,0-.06-.03-.12-.05-.17-.08-.1-.05-.19-.11-.29-.18-.02-.01-.17-.12-.09-.06,.09,.06-.07-.06-.08-.07-.4-.33-.75-.7-1.11-1.07-.84-.86-1.84-1.51-2.9-2.06-.37-.2-.82-.12-1.08,.22-.25,.32-.24,.82,.07,1.1l.25,.23c.32,.3,.87,.34,1.19,0,.3-.32,.35-.87,0-1.19l-.25-.23c-.34,.44-.68,.88-1.02,1.32,.57,.3,1.13,.61,1.65,.99,0,0,.2,.15,.11,.08,.07,.05,.14,.11,.21,.17,.09,.08,.19,.16,.28,.25,.17,.16,.34,.34,.5,.51,.77,.79,1.69,1.74,2.87,1.78,.44,.01,.86-.4,.84-.84-.02-.47-.37-.83-.84-.84h0Z"/><path class="cls-4" d="M118.76,43.09c-.1,.54-.49,1.01-.69,1.57-.11,.3-.17,.61-.24,.92-.04,.16-.07,.32-.12,.48-.04,.15-.07,.22-.11,.3-.01,.03-.07,.11-.02,.04-.03,.05-.08,.09-.11,.13-.09,.09-.18,.18-.27,.27-.2,.2-.4,.42-.54,.67-.17,.29-.25,.6-.25,.94,0,.09,0,.18,0,.27,0,.14,.04-.09,.07-.15,.03-.08,.08-.14,.16-.16,.12-.06,.13-.07,0-.03,.35,.27,.71,.54,1.06,.81,0-.18,0-.03-.02,.02,.05-.1,.04-.05-.03,0-.41-.17-.82-.33-1.23-.5-.02-.09-.04,.11,0,.02,.03-.09-.04,.07-.06,.1-.05,.07-.14,.14-.2,.18l1.15,.3c.1,.21,.02,.06,.01,0-.02-.15-.02,.13,0,.02,.02-.11,0-.24,0-.35-.01,.12-.01,.07,0-.02,.01-.06,.02-.12,.04-.18,.03-.14,.07-.28,.12-.41,.05-.14,.1-.28,.15-.42,.05-.14,0,.01,.03-.07,.03-.06,.06-.13,.08-.19,.12-.26,.25-.52,.39-.77,.63-1.17,1.51-2.17,1.5-3.57,0-1.08-1.69-1.08-1.68,0,0,.28-.07,.63-.15,.82-.15,.32-.34,.61-.53,.9-.29,.45-.56,.92-.8,1.4-.54,1.09-1.18,2.48-.63,3.68,.19,.41,.79,.52,1.15,.3,.76-.47,1.24-1.29,1.04-2.19-.11-.49-.81-.82-1.23-.5-.5,.37-.76,.81-.78,1.43-.02,.55,.55,.95,1.06,.81,.42-.12,.78-.39,.92-.81,.08-.25,.07-.51,.07-.77,0-.05,0-.05,0,0-.01,.06,0,.06,0-.03-.06,.06,0,.03,.02-.03,.09-.19-.06,.04,.07-.11,.04-.04,.08-.08,.12-.13,.23-.24,.47-.46,.66-.73,.42-.58,.46-1.32,.65-1.99,.17-.6,.65-1.16,.78-1.84,.08-.45-.12-.91-.59-1.03-.41-.11-.95,.14-1.03,.59h0Z"/><path class="cls-4" d="M130.9,48.26c.01-.13-.04,.1,0,.03-.05,.09-.1,.18-.16,.27-.1,.14-.22,.27-.33,.39-.3,.33-.62,.64-.88,1.01-.53,.77-.96,1.71-1.3,2.57-.24,.62-.43,1.27-.68,1.89-.08,.19-.23,.52-.38,.77-.04,.06-.08,.13-.13,.19,.11-.14-.03,.03-.05,.04-.13,.11,.13-.04-.02,.02-.16,.06,.17-.05,0,0-1.05,.26-.6,1.88,.45,1.62,.74-.18,1.2-.91,1.5-1.56,.35-.75,.59-1.54,.87-2.31,.03-.07,.05-.14,.08-.21,.02-.06,.02-.04-.02,.05,.02-.04,.03-.07,.05-.11,.12-.24,.24-.48,.35-.72,.22-.46,.5-1.07,.76-1.41,.63-.83,1.5-1.4,1.59-2.53,.04-.45-.41-.84-.84-.84-.49,0-.8,.39-.84,.84h0Z"/></g></g></g></svg>