<?xml version="1.0" encoding="UTF-8"?><svg id="Capa_1" xmlns="http://www.w3.org/2000/svg" viewBox="0 0 114.27 148.22"><defs><style>.cls-1{fill:#004c71;}.cls-2{fill:#01658f;}.cls-3{fill:#128eb3;}.cls-4{fill:#1e1e1c;}</style></defs><g><path class="cls-2" d="M83.58,27.26c-1.14,0-2.23,.16-3.28,.43,2.09,3.77,3.28,8.11,3.28,12.73s-1.19,8.96-3.28,12.73c1.05,.27,2.15,.43,3.28,.43,7.27,0,13.16-5.89,13.16-13.16s-5.89-13.16-13.16-13.16Z"/><path class="cls-2" d="M34.23,27.69c-1.05-.27-2.15-.43-3.28-.43-7.27,0-13.16,5.89-13.16,13.16s5.89,13.16,13.16,13.16c1.14,0,2.23-.16,3.28-.43-2.09-3.77-3.28-8.11-3.28-12.73s1.19-8.96,3.28-12.73Z"/><path class="cls-2" d="M69.99,17.39c.27-1.05,.43-2.15,.43-3.28,0-7.27-5.89-13.16-13.16-13.16s-13.16,5.89-13.16,13.16c0,1.13,.16,2.23,.43,3.28,3.77-2.09,8.11-3.28,12.73-3.28s8.96,1.19,12.73,3.28Z"/><path class="cls-2" d="M44.53,63.46c-.27,1.05-.43,2.15-.43,3.28,0,7.27,5.89,13.16,13.16,13.16s13.16-5.89,13.16-13.16c0-1.14-.16-2.23-.43-3.28-3.77,2.09-8.11,3.28-12.73,3.28s-8.96-1.2-12.73-3.28Z"/><path class="cls-2" d="M77.05,78.83c.81,.8,1.69,1.47,2.63,2.02,1.19-4.14,3.41-8.06,6.68-11.32,3.27-3.27,7.18-5.49,11.32-6.68-.55-.93-1.21-1.82-2.02-2.62-5.14-5.14-13.47-5.14-18.61,0-5.14,5.14-5.14,13.47,0,18.61Z"/><path class="cls-2" d="M16.84,18c.55,.93,1.21,1.82,2.02,2.62,5.14,5.14,13.47,5.14,18.61,0,5.14-5.14,5.14-13.47,0-18.61-.8-.8-1.69-1.47-2.63-2.02-1.18,4.15-3.41,8.06-6.68,11.32-3.27,3.27-7.18,5.49-11.32,6.68Z"/><path class="cls-2" d="M79.68,0c-.94,.55-1.82,1.21-2.63,2.02-5.14,5.14-5.14,13.47,0,18.61,5.14,5.14,13.47,5.14,18.61,0,.8-.8,1.47-1.69,2.02-2.62-4.15-1.19-8.06-3.41-11.33-6.68-3.27-3.26-5.49-7.17-6.68-11.32Z"/><path class="cls-2" d="M34.84,80.84c.94-.55,1.82-1.21,2.63-2.02,5.14-5.14,5.14-13.47,0-18.61-5.14-5.14-13.47-5.14-18.61,0-.8,.8-1.47,1.69-2.02,2.62,4.14,1.19,8.05,3.41,11.32,6.68,3.27,3.27,5.49,7.18,6.68,11.32Z"/><path class="cls-2" d="M73.29,27.69c-5.68,1.46-9.88,6.6-9.88,12.73s4.2,11.27,9.88,12.73c2.09-3.77,3.28-8.11,3.28-12.73s-1.2-8.96-3.28-12.73Z"/><path class="cls-2" d="M50.68,40.42c0-6.13-4.2-11.27-9.88-12.73-2.09,3.77-3.28,8.11-3.28,12.73s1.19,8.96,3.28,12.73c5.68-1.46,9.88-6.6,9.88-12.73Z"/><path class="cls-2" d="M57.26,33.84c6.13,0,11.27-4.2,12.73-9.88-3.77-2.09-8.11-3.28-12.73-3.28s-8.96,1.19-12.73,3.28c1.46,5.68,6.6,9.88,12.73,9.88Z"/><path class="cls-2" d="M57.26,47c-6.13,0-11.26,4.2-12.73,9.88,3.77,2.09,8.11,3.28,12.73,3.28s8.96-1.19,12.73-3.28c-1.46-5.68-6.6-9.88-12.73-9.88Z"/><path class="cls-1" d="M83.58,27.26c-1.14,0-2.23,.16-3.28,.43,2.09,3.77,3.28,8.11,3.28,12.73s-1.19,8.96-3.28,12.73c1.05,.27,2.15,.43,3.28,.43,7.27,0,13.16-5.89,13.16-13.16s-5.89-13.16-13.16-13.16Z"/><path class="cls-1" d="M34.23,27.69c-1.05-.27-2.15-.43-3.28-.43-7.27,0-13.16,5.89-13.16,13.16s5.89,13.16,13.16,13.16c1.14,0,2.23-.16,3.28-.43-2.09-3.77-3.28-8.11-3.28-12.73s1.19-8.96,3.28-12.73Z"/><path class="cls-1" d="M69.99,17.39c.27-1.05,.43-2.15,.43-3.28,0-7.27-5.89-13.16-13.16-13.16s-13.16,5.89-13.16,13.16c0,1.13,.16,2.23,.43,3.28,3.77-2.09,8.11-3.28,12.73-3.28s8.96,1.19,12.73,3.28Z"/><path class="cls-1" d="M44.53,63.46c-.27,1.05-.43,2.15-.43,3.28,0,7.27,5.89,13.16,13.16,13.16s13.16-5.89,13.16-13.16c0-1.14-.16-2.23-.43-3.28-3.77,2.09-8.11,3.28-12.73,3.28s-8.96-1.2-12.73-3.28Z"/><path class="cls-2" d="M77.05,78.83c.81,.8,1.69,1.47,2.63,2.02,1.19-4.14,3.41-8.06,6.68-11.32,3.27-3.27,7.18-5.49,11.32-6.68-.55-.93-1.21-1.82-2.02-2.62-5.14-5.14-13.47-5.14-18.61,0-5.14,5.14-5.14,13.47,0,18.61Z"/><path class="cls-2" d="M16.84,18c.55,.93,1.21,1.82,2.02,2.62,5.14,5.14,13.47,5.14,18.61,0,5.14-5.14,5.14-13.47,0-18.61-.8-.8-1.69-1.47-2.63-2.02-1.18,4.15-3.41,8.06-6.68,11.32-3.27,3.27-7.18,5.49-11.32,6.68Z"/><path class="cls-2" d="M79.68,0c-.94,.55-1.82,1.21-2.63,2.02-5.14,5.14-5.14,13.47,0,18.61,5.14,5.14,13.47,5.14,18.61,0,.8-.8,1.47-1.69,2.02-2.62-4.15-1.19-8.06-3.41-11.33-6.68-3.27-3.26-5.49-7.17-6.68-11.32Z"/><path class="cls-2" d="M34.84,80.84c.94-.55,1.82-1.21,2.63-2.02,5.14-5.14,5.14-13.47,0-18.61-5.14-5.14-13.47-5.14-18.61,0-.8,.8-1.47,1.69-2.02,2.62,4.14,1.19,8.05,3.41,11.32,6.68,3.27,3.27,5.49,7.18,6.68,11.32Z"/><path class="cls-3" d="M73.29,27.69c-5.68,1.46-9.88,6.6-9.88,12.73s4.2,11.27,9.88,12.73c2.09-3.77,3.28-8.11,3.28-12.73s-1.2-8.96-3.28-12.73Z"/><path class="cls-3" d="M50.68,40.42c0-6.13-4.2-11.27-9.88-12.73-2.09,3.77-3.28,8.11-3.28,12.73s1.19,8.96,3.28,12.73c5.68-1.46,9.88-6.6,9.88-12.73Z"/><path class="cls-3" d="M57.26,33.84c6.13,0,11.27-4.2,12.73-9.88-3.77-2.09-8.11-3.28-12.73-3.28s-8.96,1.19-12.73,3.28c1.46,5.68,6.6,9.88,12.73,9.88Z"/><path class="cls-3" d="M57.26,47c-6.13,0-11.26,4.2-12.73,9.88,3.77,2.09,8.11,3.28,12.73,3.28s8.96-1.19,12.73-3.28c-1.46-5.68-6.6-9.88-12.73-9.88Z"/></g><g><path class="cls-4" d="M7.4,123.28h1.41v8.05h-1.41v-8.05Z"/><path class="cls-4" d="M14.03,131.33v-3.84c0-.33-.06-.6-.18-.8-.12-.2-.32-.31-.61-.31-.18,0-.36,.05-.53,.14-.17,.09-.32,.22-.46,.4-.13,.17-.24,.39-.33,.63-.08,.25-.13,.53-.13,.84v2.94h-1.35v-3c0-.48-.03-.87-.09-1.19-.07-.32-.13-.58-.2-.78-.08-.23-.18-.41-.28-.56l1.07-.43c.08,.08,.16,.19,.24,.32,.06,.11,.13,.25,.19,.41,.06,.16,.11,.34,.15,.55,.21-.48,.5-.82,.89-1.03,.39-.21,.79-.32,1.22-.32,.61,0,1.05,.18,1.33,.55,.27,.37,.41,.87,.41,1.5v3.97h-1.34Z"/><path class="cls-4" d="M18.62,125.27c.23,0,.46,.02,.68,.07,.22,.05,.42,.1,.59,.16,.21,.07,.4,.15,.57,.23l-.4,.93c-.16-.07-.32-.13-.48-.19-.13-.05-.28-.09-.45-.13-.16-.04-.33-.06-.48-.06-.18,0-.34,.04-.47,.13-.13,.09-.2,.22-.2,.39,0,.45,.33,.81,.99,1.06,.25,.1,.47,.19,.66,.3,.2,.11,.37,.23,.51,.38,.14,.14,.25,.31,.32,.49,.07,.18,.11,.41,.11,.66,0,.22-.05,.44-.14,.65-.09,.21-.22,.4-.4,.57-.18,.17-.39,.3-.65,.4-.26,.1-.55,.15-.87,.15-.26,0-.52-.03-.77-.09-.25-.06-.48-.12-.69-.2-.2-.07-.36-.14-.48-.2l-.18-.09,.44-1,.16,.08c.1,.06,.23,.13,.39,.2,.16,.07,.33,.14,.51,.2,.18,.06,.35,.08,.5,.08,.28,0,.48-.05,.62-.16,.13-.11,.2-.26,.2-.44,0-.21-.07-.39-.22-.56s-.37-.31-.66-.42c-.61-.23-1.05-.49-1.32-.78-.26-.29-.4-.67-.4-1.14,0-.22,.05-.43,.15-.64,.1-.2,.24-.38,.42-.54,.18-.15,.39-.27,.64-.36,.25-.09,.51-.13,.79-.13Z"/><path class="cls-4" d="M21.11,125.41h1.07l.24-1.39,1.12-.25v1.64h1.46l-.17,.96h-1.29v3.52c0,.21,.05,.34,.17,.4,.11,.06,.23,.09,.37,.09,.11,0,.22,0,.33-.02,.11-.02,.21-.04,.3-.06,.1-.03,.2-.05,.3-.08l.23,.89-.11,.04c-.07,.03-.18,.06-.31,.1-.14,.04-.3,.07-.49,.1-.18,.03-.39,.04-.61,.04s-.43-.02-.61-.07c-.19-.05-.35-.13-.48-.23-.13-.11-.24-.24-.31-.41-.08-.17-.11-.37-.11-.62v-3.67h-1.07v-.96Z"/><path class="cls-4" d="M27.29,123c.13,.15,.2,.34,.2,.58s-.07,.44-.21,.59c-.14,.16-.34,.24-.61,.24s-.45-.07-.59-.23c-.14-.16-.21-.34-.21-.56,0-.25,.07-.45,.21-.61,.14-.16,.35-.24,.63-.24,.25,0,.44,.07,.58,.23Zm-.95,8c-.22-.25-.33-.57-.33-.97v-4.62h1.36v4.5c0,.18,.03,.3,.08,.37,.05,.06,.14,.09,.25,.09h.1s.07,0,.1-.01c.03,0,.07,0,.1-.01l.14,.86c-.05,.03-.13,.06-.21,.08-.07,.02-.16,.05-.27,.06-.11,.01-.23,.02-.36,.02-.42,0-.74-.12-.96-.38Z"/><path class="cls-4" d="M28.4,125.41h1.07l.24-1.39,1.11-.25v1.64h1.46l-.17,.96h-1.3v3.52c0,.21,.06,.34,.17,.4,.11,.06,.23,.09,.36,.09,.11,0,.23,0,.33-.02,.11-.02,.21-.04,.3-.06,.1-.03,.2-.05,.29-.08l.23,.89-.1,.04c-.07,.03-.18,.06-.32,.1-.14,.04-.3,.07-.49,.1-.19,.03-.39,.04-.61,.04s-.43-.02-.61-.07c-.19-.05-.35-.13-.48-.23-.13-.11-.24-.24-.31-.41-.08-.17-.11-.37-.11-.62v-3.67h-1.07v-.96Z"/><path class="cls-4" d="M36.87,125.41h1.36v3.06c0,.47,.03,.87,.09,1.19,.06,.32,.13,.58,.2,.78,.09,.24,.18,.42,.29,.56l-1.06,.43c-.09-.08-.18-.2-.26-.33-.07-.11-.13-.25-.19-.41-.07-.16-.12-.36-.14-.58-.21,.47-.51,.8-.9,1-.39,.2-.79,.29-1.21,.29-.63,0-1.07-.18-1.34-.55-.26-.36-.4-.86-.4-1.5v-3.94h1.35v3.92c0,.34,.06,.6,.18,.79,.12,.19,.32,.28,.61,.28,.17,0,.35-.05,.52-.15,.17-.1,.33-.24,.46-.42,.14-.18,.25-.4,.33-.66,.08-.26,.13-.55,.13-.86v-2.9Z"/><path class="cls-4" d="M39.22,125.41h1.07l.24-1.39,1.12-.25v1.64h1.46l-.16,.96h-1.3v3.52c0,.21,.06,.34,.17,.4,.11,.06,.23,.09,.37,.09,.11,0,.22,0,.33-.02,.11-.02,.21-.04,.3-.06,.1-.03,.2-.05,.3-.08l.23,.89-.1,.04c-.07,.03-.18,.06-.32,.1-.14,.04-.3,.07-.49,.1-.19,.03-.39,.04-.61,.04s-.43-.02-.62-.07c-.19-.05-.35-.13-.48-.23-.14-.11-.24-.24-.32-.41-.08-.17-.11-.37-.11-.62v-3.67h-1.07v-.96Z"/><path class="cls-4" d="M48.33,126.08c.41,.54,.62,1.28,.62,2.22,0,.44-.05,.86-.17,1.24-.11,.38-.28,.72-.5,1-.23,.28-.51,.5-.85,.67-.34,.16-.74,.25-1.19,.25s-.84-.07-1.17-.21c-.33-.14-.6-.34-.81-.6-.21-.26-.37-.58-.47-.95-.1-.37-.15-.79-.15-1.26s.06-.87,.17-1.25c.11-.39,.28-.72,.51-1,.23-.28,.51-.5,.85-.67,.34-.16,.74-.25,1.19-.25,.91,0,1.57,.27,1.99,.81Zm-2.67,.34c-.15,.1-.26,.25-.34,.43-.08,.19-.14,.4-.17,.65-.03,.25-.05,.52-.05,.81s.02,.57,.05,.83c.03,.26,.1,.49,.2,.69,.09,.2,.22,.34,.38,.46,.16,.11,.37,.16,.62,.16,.23,0,.42-.05,.56-.15,.15-.1,.26-.25,.34-.43,.08-.18,.14-.4,.17-.65,.03-.25,.05-.51,.05-.79s-.02-.57-.06-.83c-.03-.26-.1-.49-.2-.69-.1-.2-.22-.35-.39-.46-.16-.11-.37-.16-.62-.16-.23,0-.42,.05-.56,.15Z"/><path class="cls-4" d="M57.46,131.42s-.05-.05-.11-.11c-.06-.07-.12-.16-.18-.28-.07-.12-.13-.27-.19-.45-.07-.18-.11-.39-.12-.62-.13,.48-.35,.83-.65,1.08-.29,.25-.7,.36-1.21,.36-.37,0-.69-.07-.97-.21-.27-.14-.5-.34-.68-.6-.18-.25-.32-.57-.4-.93-.09-.37-.13-.77-.13-1.21s.07-.87,.21-1.25c.14-.39,.33-.72,.58-.99,.25-.28,.55-.5,.9-.65,.35-.16,.74-.24,1.15-.24,.14,0,.29,0,.46,.02,.16,.01,.32,.04,.48,.06v-2.69l1.36,.24v5.52c0,.47,.03,.87,.08,1.18,.06,.32,.12,.57,.19,.76,.07,.2,.14,.33,.2,.42,.06,.09,.09,.14,.1,.16l-1.06,.43Zm-1.69-1.19c.16-.13,.31-.31,.43-.53,.12-.22,.22-.46,.29-.74,.07-.28,.1-.56,.1-.86v-1.71c-.08-.02-.2-.05-.35-.08-.16-.03-.3-.05-.43-.05-.3,0-.55,.05-.74,.15-.19,.1-.35,.25-.47,.43-.12,.18-.2,.4-.25,.65-.05,.25-.07,.53-.07,.83,0,.28,0,.54,.02,.8,.01,.25,.06,.48,.12,.67,.07,.19,.17,.35,.29,.46,.13,.11,.3,.17,.51,.17,.2,0,.38-.07,.55-.2Z"/><path class="cls-4" d="M59.4,127.11c.14-.4,.35-.74,.6-1.02,.26-.27,.56-.48,.91-.62,.35-.14,.72-.21,1.13-.21,.36,0,.66,.05,.91,.13,.25,.09,.45,.2,.61,.36,.16,.15,.27,.33,.35,.53,.08,.21,.11,.43,.11,.67,0,.28-.08,.56-.24,.81-.16,.26-.39,.49-.68,.68-.3,.2-.66,.35-1.08,.46-.42,.11-.89,.17-1.42,.18,.03,.18,.06,.35,.12,.51,.05,.16,.13,.31,.23,.43,.1,.12,.23,.22,.39,.29,.15,.07,.35,.11,.59,.11,.17,0,.36-.02,.56-.06,.2-.04,.38-.09,.54-.14,.2-.06,.39-.13,.58-.21l.35,.84c-.21,.1-.43,.19-.66,.27-.21,.07-.45,.13-.71,.19-.27,.06-.55,.08-.86,.08-.46,0-.85-.07-1.17-.21s-.59-.33-.8-.59c-.21-.25-.36-.56-.45-.92-.09-.36-.14-.76-.14-1.19,0-.53,.07-1,.22-1.4Zm1.89-.73c-.17,.12-.31,.28-.41,.48-.1,.2-.18,.42-.22,.65-.04,.24-.07,.49-.08,.73,.38-.01,.7-.06,.97-.15,.26-.08,.48-.19,.64-.31,.17-.12,.29-.26,.37-.4,.07-.14,.11-.28,.11-.43,0-.23-.07-.42-.2-.55-.13-.14-.31-.21-.53-.21-.26,0-.48,.06-.65,.18Z"/><path class="cls-4" d="M72.67,124.9c-.19-.21-.39-.37-.6-.47-.21-.11-.46-.16-.73-.16-.34,0-.63,.08-.87,.23-.23,.16-.42,.37-.56,.64-.14,.27-.25,.59-.31,.96-.06,.36-.09,.76-.09,1.17s.03,.81,.09,1.18c.06,.37,.16,.69,.31,.96,.15,.28,.34,.5,.59,.65,.25,.16,.56,.24,.94,.24,.18,0,.35-.02,.53-.05,.16-.03,.32-.06,.46-.1,.14-.04,.26-.07,.35-.1,.09-.03,.15-.05,.17-.06l.33,1-.15,.06c-.1,.04-.25,.09-.44,.14-.19,.05-.41,.1-.67,.14-.26,.04-.54,.06-.85,.06-1.06,0-1.86-.34-2.39-1.02-.54-.68-.8-1.67-.8-2.98,0-.63,.07-1.2,.21-1.72,.14-.52,.36-.97,.65-1.34,.29-.37,.65-.66,1.09-.87,.44-.21,.96-.31,1.55-.31,.47,0,.86,.08,1.17,.26,.3,.17,.55,.37,.74,.6l-.73,.87Z"/><path class="cls-4" d="M75.64,123c.13,.15,.2,.34,.2,.58s-.07,.44-.21,.59c-.14,.16-.34,.24-.61,.24s-.45-.07-.59-.23c-.14-.16-.21-.34-.21-.56,0-.25,.07-.45,.21-.61,.14-.16,.34-.24,.62-.24,.25,0,.45,.07,.58,.23Zm-.95,8c-.23-.25-.34-.57-.34-.97v-4.62h1.36v4.5c0,.18,.03,.3,.08,.37,.05,.06,.14,.09,.25,.09h.1s.07,0,.1-.01c.03,0,.07,0,.11-.01l.14,.86c-.05,.03-.13,.06-.21,.08-.07,.02-.16,.05-.27,.06-.11,.01-.23,.02-.36,.02-.42,0-.74-.12-.96-.38Z"/><path class="cls-4" d="M77.31,127.11c.15-.4,.35-.74,.61-1.02,.26-.27,.56-.48,.91-.62,.35-.14,.73-.21,1.13-.21,.36,0,.66,.05,.91,.13,.25,.09,.45,.2,.61,.36,.16,.15,.28,.33,.35,.53,.08,.21,.11,.43,.11,.67,0,.28-.08,.56-.24,.81-.16,.26-.39,.49-.68,.68-.3,.2-.66,.35-1.08,.46-.42,.11-.89,.17-1.41,.18,.02,.18,.06,.35,.11,.51,.05,.16,.13,.31,.23,.43,.1,.12,.23,.22,.39,.29,.16,.07,.35,.11,.59,.11,.17,0,.36-.02,.56-.06,.2-.04,.38-.09,.55-.14,.2-.06,.39-.13,.58-.21l.36,.84c-.21,.1-.43,.19-.66,.27-.21,.07-.45,.13-.71,.19-.27,.06-.56,.08-.86,.08-.46,0-.85-.07-1.17-.21-.32-.14-.59-.33-.8-.59-.2-.25-.36-.56-.45-.92-.1-.36-.14-.76-.14-1.19,0-.53,.07-1,.22-1.4Zm1.89-.73c-.17,.12-.31,.28-.41,.48-.11,.2-.18,.42-.22,.65-.04,.24-.07,.49-.08,.73,.38-.01,.71-.06,.97-.15,.27-.08,.48-.19,.65-.31,.17-.12,.29-.26,.36-.4,.08-.14,.12-.28,.12-.43,0-.23-.07-.42-.2-.55-.14-.14-.31-.21-.53-.21-.26,0-.48,.06-.65,.18Z"/><path class="cls-4" d="M86.76,131.33v-3.84c0-.33-.06-.6-.18-.8-.12-.2-.32-.31-.61-.31-.18,0-.36,.05-.53,.14-.17,.09-.32,.22-.46,.4-.13,.17-.24,.39-.33,.63-.08,.25-.12,.53-.12,.84v2.94h-1.35v-3c0-.48-.03-.87-.09-1.19-.07-.32-.13-.58-.2-.78-.09-.23-.18-.41-.28-.56l1.07-.43c.08,.08,.16,.19,.24,.32,.06,.11,.13,.25,.19,.41,.07,.16,.11,.34,.15,.55,.21-.48,.51-.82,.89-1.03,.39-.21,.8-.32,1.22-.32,.61,0,1.05,.18,1.33,.55,.28,.37,.41,.87,.41,1.5v3.97h-1.34Z"/><path class="cls-4" d="M92.81,126.8c-.12-.13-.24-.25-.36-.34-.12-.1-.29-.14-.5-.14-.12,0-.25,.02-.4,.05-.15,.04-.28,.12-.41,.26-.13,.14-.23,.34-.32,.61-.08,.27-.13,.64-.13,1.09s.04,.84,.13,1.12c.08,.27,.19,.49,.32,.63,.13,.15,.27,.25,.42,.29,.15,.04,.29,.06,.44,.06,.11,0,.23-.01,.34-.03,.12-.02,.23-.04,.34-.07,.11-.03,.21-.05,.29-.08,.08-.02,.14-.04,.18-.06l.33,.86s-.08,.03-.16,.07c-.08,.04-.2,.08-.34,.12-.14,.04-.31,.08-.51,.11-.2,.04-.42,.05-.67,.05-.46,0-.85-.07-1.18-.21-.33-.14-.59-.33-.8-.59-.21-.25-.37-.56-.46-.92-.1-.36-.15-.76-.15-1.19,0-.52,.07-.98,.21-1.39,.14-.4,.33-.75,.58-1.02,.25-.27,.53-.48,.87-.62,.33-.14,.69-.22,1.07-.22s.69,.07,.94,.22c.26,.14,.48,.34,.66,.59l-.76,.72Z"/><path class="cls-4" d="M95.71,123c.13,.15,.2,.34,.2,.58s-.07,.44-.21,.59c-.13,.16-.34,.24-.61,.24s-.45-.07-.59-.23c-.14-.16-.21-.34-.21-.56,0-.25,.07-.45,.21-.61,.14-.16,.34-.24,.62-.24,.25,0,.45,.07,.58,.23Zm-.95,8c-.22-.25-.33-.57-.33-.97v-4.62h1.36v4.5c0,.18,.03,.3,.08,.37,.06,.06,.14,.09,.25,.09h.1s.07,0,.1-.01c.04,0,.07,0,.11-.01l.14,.86c-.06,.03-.13,.06-.21,.08-.07,.02-.16,.05-.27,.06-.11,.01-.23,.02-.36,.02-.42,0-.74-.12-.96-.38Z"/><path class="cls-4" d="M102.29,128.47c0,.47,.03,.87,.09,1.19,.06,.32,.12,.58,.2,.78,.08,.24,.18,.42,.28,.56l-1.06,.43c-.1-.1-.2-.23-.29-.37-.07-.12-.14-.28-.2-.46-.06-.18-.11-.39-.12-.63-.14,.48-.36,.83-.65,1.08-.3,.25-.7,.36-1.2,.36-.38,0-.7-.07-.97-.21-.27-.14-.5-.34-.68-.6-.18-.25-.32-.57-.41-.93-.08-.37-.13-.77-.13-1.21s.07-.87,.21-1.25c.14-.39,.33-.72,.58-.99,.25-.28,.55-.5,.9-.65,.35-.16,.73-.24,1.15-.24,.24,0,.49,.02,.74,.05,.26,.04,.5,.07,.72,.11,.22,.04,.41,.07,.56,.11,.16,.04,.25,.06,.27,.07v2.81Zm-2.17,1.78c.17-.13,.31-.31,.43-.53,.12-.22,.22-.47,.28-.75,.07-.28,.1-.57,.1-.86v-1.71c-.08-.02-.2-.05-.36-.08-.16-.03-.3-.05-.43-.05-.3,0-.55,.05-.74,.15-.2,.1-.35,.25-.47,.43-.12,.18-.21,.4-.25,.65-.05,.25-.07,.53-.07,.83,0,.28,0,.54,.02,.8,.02,.25,.06,.48,.12,.68,.07,.19,.16,.35,.29,.47,.13,.11,.3,.17,.51,.17,.2,0,.38-.06,.55-.2Z"/><path class="cls-4" d="M105.63,125.27c.23,0,.46,.02,.68,.07,.22,.05,.42,.1,.6,.16,.2,.07,.39,.15,.57,.23l-.4,.93c-.16-.07-.31-.13-.47-.19-.13-.05-.28-.09-.45-.13-.16-.04-.32-.06-.48-.06-.18,0-.34,.04-.47,.13-.13,.09-.2,.22-.2,.39,0,.45,.33,.81,.99,1.06,.25,.1,.46,.19,.66,.3,.2,.11,.37,.23,.51,.38,.13,.14,.24,.31,.31,.49s.11,.41,.11,.66c0,.22-.05,.44-.14,.65-.09,.21-.23,.4-.4,.57-.18,.17-.4,.3-.65,.4-.26,.1-.55,.15-.88,.15-.26,0-.52-.03-.77-.09-.26-.06-.49-.12-.69-.2-.2-.07-.36-.14-.48-.2l-.18-.09,.44-1,.15,.08c.1,.06,.23,.13,.39,.2,.16,.07,.33,.14,.51,.2,.18,.06,.35,.08,.5,.08,.28,0,.48-.05,.61-.16,.14-.11,.2-.26,.2-.44,0-.21-.08-.39-.22-.56-.15-.17-.37-.31-.66-.42-.61-.23-1.05-.49-1.31-.78-.27-.29-.4-.67-.4-1.14,0-.22,.05-.43,.15-.64,.1-.2,.25-.38,.42-.54,.18-.15,.39-.27,.64-.36,.24-.09,.51-.13,.8-.13Z"/><path class="cls-4" d="M3.09,137.55h1.12l3.1,8.05h-1.51l-.74-2.1H2.16l-.76,2.1H0l3.09-8.05Zm1.61,4.9c-.25-.71-.47-1.36-.66-1.95-.18-.58-.32-1.04-.41-1.37-.11,.36-.26,.83-.44,1.4-.18,.58-.4,1.22-.64,1.92h2.15Z"/><path class="cls-4" d="M8.13,148.22v-5.62c0-.48-.03-.87-.09-1.19-.06-.32-.13-.58-.2-.78-.09-.23-.18-.42-.29-.56l1.07-.43c.1,.1,.18,.22,.26,.36,.06,.12,.13,.26,.19,.43,.06,.17,.11,.37,.14,.6,.13-.48,.35-.83,.64-1.08,.29-.24,.7-.37,1.23-.37,.37,0,.69,.07,.96,.21,.28,.14,.5,.34,.68,.6,.18,.26,.31,.57,.4,.93,.09,.37,.13,.77,.13,1.21s-.07,.87-.2,1.25c-.13,.39-.33,.72-.58,.99-.25,.28-.55,.5-.9,.65-.35,.16-.74,.24-1.17,.24-.15,0-.3,0-.46-.02-.16-.02-.31-.03-.47-.05v2.39l-1.36,.23Zm2.18-7.49c-.17,.13-.31,.31-.43,.53-.12,.22-.22,.47-.29,.75-.07,.28-.1,.56-.1,.86v1.71c.08,.03,.2,.05,.36,.09,.16,.03,.3,.05,.42,.05,.3,0,.55-.05,.75-.15,.2-.1,.36-.25,.48-.43,.12-.18,.2-.4,.25-.65,.05-.25,.07-.53,.07-.83,0-.28,0-.54-.02-.8-.01-.25-.06-.48-.13-.68-.06-.2-.16-.35-.29-.47-.13-.11-.3-.17-.51-.17-.2,0-.38,.07-.55,.21Z"/><path class="cls-4" d="M14.72,145.27c-.21-.25-.32-.57-.32-.96v-7.1l1.36-.25v7.22c0,.18,.04,.31,.11,.38,.07,.07,.17,.11,.31,.11,.08,0,.16,0,.23-.01,.08,0,.14-.02,.21-.04,.07-.02,.13-.03,.19-.05l.17,.86c-.1,.04-.22,.08-.35,.11-.11,.03-.24,.06-.39,.07-.15,.02-.32,.03-.51,.03-.45,0-.78-.13-1-.38Z"/><path class="cls-4" d="M19.15,137.26c.13,.15,.2,.34,.2,.58s-.07,.44-.21,.59c-.14,.16-.34,.24-.61,.24s-.45-.08-.59-.23c-.14-.16-.21-.34-.21-.56,0-.25,.07-.45,.21-.61,.14-.16,.35-.24,.62-.24,.25,0,.45,.07,.58,.23Zm-.95,8c-.22-.25-.33-.57-.33-.97v-4.63h1.36v4.51c0,.18,.03,.3,.08,.37,.05,.06,.14,.1,.25,.1h.1s.07,0,.1-.01c.03,0,.07,0,.11-.01l.14,.86c-.05,.03-.13,.06-.21,.08-.07,.02-.16,.04-.27,.06-.11,.01-.23,.02-.36,.02-.42,0-.74-.13-.96-.38Z"/><path class="cls-4" d="M24.17,141.07c-.12-.13-.24-.25-.37-.34-.12-.1-.29-.14-.49-.14-.12,0-.25,.02-.4,.05-.15,.04-.29,.12-.41,.26-.13,.13-.23,.34-.31,.61-.08,.27-.13,.64-.13,1.09s.04,.84,.13,1.11c.08,.27,.19,.49,.32,.64,.13,.15,.27,.25,.42,.29,.15,.05,.3,.07,.44,.07,.11,0,.23,0,.34-.03,.12-.02,.23-.04,.34-.07,.11-.03,.21-.06,.29-.08,.08-.02,.15-.04,.19-.06l.33,.86s-.08,.03-.16,.07c-.08,.04-.2,.08-.34,.12-.15,.04-.31,.08-.51,.11-.2,.04-.42,.06-.67,.06-.46,0-.85-.07-1.17-.21-.33-.14-.59-.33-.81-.59-.21-.25-.36-.56-.46-.91-.1-.36-.15-.76-.15-1.19,0-.53,.07-.99,.21-1.4,.14-.4,.33-.74,.58-1.01,.25-.27,.54-.48,.87-.62,.33-.15,.69-.22,1.07-.22s.69,.07,.95,.22c.26,.14,.48,.34,.66,.59l-.76,.72Z"/><path class="cls-4" d="M30.49,142.73c0,.48,.03,.87,.09,1.2,.06,.32,.12,.58,.2,.78,.09,.24,.18,.43,.29,.56l-1.06,.43c-.1-.1-.2-.23-.29-.37-.07-.13-.14-.28-.2-.46-.06-.18-.1-.39-.12-.63-.14,.48-.35,.83-.65,1.08-.3,.25-.7,.36-1.21,.36-.37,0-.7-.07-.97-.21-.28-.13-.5-.33-.69-.59-.18-.25-.32-.57-.4-.93-.09-.37-.13-.77-.13-1.21s.07-.87,.21-1.25c.13-.39,.33-.72,.58-.99,.25-.28,.55-.5,.9-.65,.35-.16,.73-.24,1.16-.24,.24,0,.48,.02,.74,.05,.26,.04,.5,.07,.72,.11,.22,.04,.41,.07,.56,.11,.16,.04,.24,.06,.27,.07v2.8Zm-2.18,1.78c.17-.13,.31-.31,.43-.53,.12-.22,.22-.46,.29-.75,.07-.28,.1-.57,.1-.86v-1.71c-.08-.02-.2-.05-.36-.08-.16-.03-.3-.05-.43-.05-.3,0-.55,.05-.74,.16-.2,.1-.35,.25-.47,.43-.12,.18-.2,.4-.25,.65-.05,.25-.07,.53-.07,.83,0,.28,0,.54,.02,.8,.02,.25,.06,.48,.12,.67,.07,.2,.17,.36,.29,.47,.13,.11,.3,.17,.51,.17,.2,0,.38-.06,.55-.2Z"/><path class="cls-4" d="M36.38,145.69s-.05-.05-.11-.11c-.05-.07-.12-.16-.18-.28-.07-.12-.13-.27-.2-.45-.06-.18-.1-.39-.12-.62-.14,.48-.35,.83-.65,1.08-.3,.25-.7,.36-1.21,.36-.37,0-.7-.07-.97-.21-.27-.13-.5-.33-.69-.59-.18-.25-.32-.57-.4-.93-.09-.37-.13-.77-.13-1.21s.07-.87,.21-1.25c.14-.39,.33-.72,.58-.99,.25-.28,.55-.5,.89-.65,.35-.16,.74-.24,1.15-.24,.14,0,.3,0,.46,.02,.16,.02,.32,.04,.48,.06v-2.69l1.36,.24v5.52c0,.48,.03,.87,.08,1.18,.05,.32,.12,.57,.19,.76,.07,.19,.14,.33,.2,.42,.06,.09,.09,.15,.1,.17l-1.06,.43Zm-1.69-1.19c.17-.13,.31-.31,.44-.53,.12-.22,.22-.46,.28-.74,.07-.28,.1-.56,.1-.86v-1.71c-.08-.02-.2-.05-.36-.08-.16-.03-.3-.05-.42-.05-.3,0-.55,.05-.74,.16-.2,.1-.35,.25-.47,.43-.12,.18-.2,.4-.25,.65-.05,.25-.07,.53-.07,.83,0,.28,0,.54,.02,.8,.02,.25,.06,.48,.13,.67,.07,.2,.16,.35,.29,.46,.13,.12,.3,.17,.51,.17,.2,0,.38-.07,.55-.2Z"/><path class="cls-4" d="M43.24,142.73c0,.48,.03,.87,.09,1.2,.06,.32,.13,.58,.2,.78,.09,.24,.18,.43,.29,.56l-1.06,.43c-.11-.1-.2-.23-.29-.37-.07-.13-.14-.28-.2-.46-.06-.18-.1-.39-.12-.63-.13,.48-.35,.83-.65,1.08-.3,.25-.7,.36-1.21,.36-.37,0-.7-.07-.97-.21-.28-.13-.5-.33-.68-.59-.18-.25-.32-.57-.41-.93-.08-.37-.13-.77-.13-1.21s.07-.87,.21-1.25c.14-.39,.33-.72,.58-.99,.25-.28,.55-.5,.9-.65,.35-.16,.74-.24,1.16-.24,.24,0,.48,.02,.74,.05,.26,.04,.5,.07,.72,.11,.22,.04,.41,.07,.56,.11,.16,.04,.25,.06,.27,.07v2.8Zm-2.17,1.78c.16-.13,.31-.31,.43-.53,.12-.22,.21-.46,.28-.75,.07-.28,.1-.57,.1-.86v-1.71c-.08-.02-.2-.05-.36-.08-.15-.03-.3-.05-.43-.05-.3,0-.55,.05-.74,.16-.2,.1-.35,.25-.47,.43-.12,.18-.2,.4-.25,.65-.05,.25-.07,.53-.07,.83,0,.28,0,.54,.02,.8,.02,.25,.06,.48,.13,.67,.07,.2,.16,.36,.29,.47,.13,.11,.3,.17,.51,.17,.2,0,.38-.06,.55-.2Z"/><path class="cls-4" d="M46.58,139.53c.23,0,.46,.02,.68,.07,.22,.05,.42,.1,.59,.17,.2,.07,.4,.15,.57,.23l-.4,.93c-.16-.07-.32-.13-.47-.19-.14-.05-.28-.1-.45-.14-.16-.04-.32-.07-.48-.07-.18,0-.34,.05-.47,.13-.13,.09-.2,.22-.2,.39,0,.45,.33,.8,.99,1.06,.25,.1,.47,.19,.66,.3,.2,.11,.37,.23,.51,.38,.14,.14,.25,.3,.31,.49,.07,.18,.11,.4,.11,.66,0,.22-.05,.44-.14,.65-.09,.21-.23,.4-.4,.57-.18,.16-.4,.3-.66,.4-.26,.1-.55,.15-.87,.15-.26,0-.52-.03-.77-.09-.26-.06-.48-.12-.69-.2-.2-.07-.36-.14-.48-.2l-.18-.08,.44-1,.15,.08c.1,.06,.23,.13,.39,.2,.16,.07,.33,.14,.51,.2,.18,.06,.35,.09,.5,.09,.28,0,.48-.05,.62-.17,.14-.11,.2-.26,.2-.44,0-.21-.07-.39-.22-.56-.15-.17-.37-.31-.66-.42-.61-.23-1.05-.49-1.31-.78-.27-.3-.4-.67-.4-1.14,0-.22,.05-.43,.16-.64,.1-.2,.24-.38,.42-.54,.18-.15,.39-.28,.64-.36,.25-.09,.51-.13,.8-.13Z"/><path class="cls-4" d="M57.6,143.19c0,.24,.02,.45,.05,.65,.04,.2,.08,.39,.12,.59,.04,.2,.08,.39,.12,.59,.04,.2,.06,.42,.06,.66,0,.84-.21,1.47-.64,1.88-.43,.41-1.01,.62-1.74,.62-.24,0-.48-.02-.71-.06-.24-.05-.46-.09-.66-.15-.2-.06-.37-.11-.52-.17-.14-.06-.23-.1-.29-.12l.33-1.04c.11,.05,.23,.1,.37,.15,.14,.05,.28,.1,.43,.15,.15,.05,.3,.08,.46,.12,.16,.03,.31,.05,.47,.05,.44,0,.76-.13,.96-.4,.2-.27,.3-.61,.3-1.03,0-.38-.08-.77-.24-1.18-.22,.42-.52,.72-.89,.9-.37,.18-.75,.27-1.16,.27-.63,0-1.07-.18-1.34-.55-.27-.36-.4-.86-.4-1.5v-3.95h1.35v3.91c0,.33,.06,.6,.18,.78,.12,.19,.32,.29,.61,.29,.15,0,.31-.05,.48-.13,.17-.09,.33-.21,.46-.36,.14-.16,.25-.34,.34-.56,.09-.22,.13-.45,.13-.71v-3.22h1.39l-.06,3.52Z"/><path class="cls-4" d="M67.14,137.55l-.18,1.07h-2v6.97h-1.4v-6.97h-2.03v-1.07h5.61Z"/><path class="cls-4" d="M66.96,141.37c.15-.41,.35-.74,.61-1.02,.26-.27,.56-.48,.91-.62,.35-.14,.73-.21,1.13-.21,.36,0,.66,.04,.91,.13,.25,.09,.46,.21,.61,.35,.16,.15,.28,.33,.35,.54,.07,.21,.11,.43,.11,.67,0,.28-.08,.56-.24,.81-.16,.26-.39,.48-.68,.68-.3,.2-.66,.35-1.08,.46-.42,.11-.89,.18-1.42,.18,.02,.18,.06,.35,.11,.51,.05,.16,.13,.31,.23,.43,.1,.12,.23,.22,.39,.29,.16,.07,.36,.11,.6,.11,.18,0,.36-.02,.56-.06,.2-.04,.38-.09,.55-.14,.2-.06,.39-.13,.58-.21l.36,.84c-.21,.1-.43,.19-.67,.27-.21,.07-.44,.13-.72,.19-.27,.06-.55,.08-.85,.08-.46,0-.85-.07-1.18-.21-.33-.14-.59-.33-.8-.59-.21-.25-.36-.56-.45-.91-.1-.36-.14-.76-.14-1.19,0-.53,.07-1,.22-1.41Zm1.89-.73c-.17,.12-.31,.28-.41,.48-.1,.19-.18,.41-.22,.65-.04,.24-.07,.48-.08,.73,.38-.02,.7-.07,.97-.15,.27-.08,.48-.19,.65-.31,.17-.12,.29-.26,.36-.4,.07-.15,.11-.29,.11-.43,0-.23-.07-.41-.2-.55-.14-.14-.32-.21-.54-.21-.26,0-.48,.06-.65,.18Z"/><path class="cls-4" d="M75.93,141.07c-.12-.13-.24-.25-.36-.34-.12-.1-.29-.14-.49-.14-.12,0-.25,.02-.4,.05-.15,.04-.28,.12-.41,.26-.13,.13-.23,.34-.32,.61-.08,.27-.12,.64-.12,1.09s.04,.84,.12,1.11c.08,.27,.19,.49,.32,.64,.13,.15,.27,.25,.42,.29,.15,.05,.29,.07,.44,.07,.11,0,.22,0,.34-.03,.12-.02,.24-.04,.35-.07,.11-.03,.21-.06,.29-.08,.08-.02,.15-.04,.19-.06l.33,.86s-.08,.03-.16,.07c-.08,.04-.2,.08-.34,.12-.14,.04-.31,.08-.51,.11-.2,.04-.42,.06-.66,.06-.46,0-.85-.07-1.18-.21-.33-.14-.59-.33-.8-.59-.21-.25-.36-.56-.47-.91-.1-.36-.15-.76-.15-1.19,0-.53,.07-.99,.21-1.4,.14-.4,.33-.74,.58-1.01,.25-.27,.54-.48,.87-.62,.33-.15,.69-.22,1.07-.22s.69,.07,.94,.22c.26,.14,.48,.34,.66,.59l-.76,.72Z"/><path class="cls-4" d="M81.28,145.59v-3.84c0-.33-.06-.6-.18-.8-.12-.2-.32-.3-.6-.3-.18,0-.36,.05-.53,.13-.17,.09-.32,.23-.46,.4-.13,.17-.24,.38-.33,.63-.08,.25-.12,.53-.12,.84v2.94h-1.36v-3c0-.48-.03-.87-.1-1.19-.06-.32-.13-.58-.2-.78-.09-.23-.18-.42-.29-.56l1.07-.43c.08,.09,.16,.2,.24,.32,.07,.11,.13,.25,.19,.41,.06,.16,.11,.35,.15,.55,.21-.48,.5-.82,.89-1.03,.39-.21,.8-.31,1.23-.31,.61,0,1.05,.18,1.33,.55,.27,.37,.41,.87,.41,1.5v3.97h-1.34Z"/><path class="cls-4" d="M88.46,140.34c.41,.54,.62,1.28,.62,2.22,0,.44-.06,.86-.16,1.24-.11,.39-.28,.72-.51,1-.23,.28-.51,.5-.85,.66-.34,.16-.74,.25-1.19,.25s-.84-.07-1.17-.21c-.33-.14-.6-.34-.82-.6-.21-.26-.37-.58-.47-.95-.1-.37-.15-.79-.15-1.26s.06-.87,.17-1.25c.11-.38,.28-.72,.5-1,.22-.28,.51-.5,.85-.66s.74-.25,1.19-.25c.91,0,1.57,.27,1.98,.81Zm-2.67,.34c-.15,.1-.26,.25-.34,.44-.08,.18-.14,.4-.17,.65-.03,.25-.05,.51-.05,.8s.02,.57,.05,.83c.04,.26,.1,.49,.2,.69,.1,.19,.23,.35,.39,.45,.16,.11,.37,.17,.62,.17,.23,0,.42-.05,.57-.15,.15-.1,.26-.25,.35-.43,.08-.19,.14-.4,.17-.65,.03-.25,.04-.51,.04-.8s-.01-.57-.05-.83c-.03-.26-.1-.49-.2-.69-.09-.2-.22-.35-.39-.46-.16-.11-.37-.17-.62-.17-.23,0-.42,.05-.56,.16Z"/><path class="cls-4" d="M90.52,145.27c-.21-.25-.32-.57-.32-.96v-7.1l1.36-.25v7.22c0,.18,.04,.31,.11,.38,.07,.07,.18,.11,.31,.11,.08,0,.16,0,.23-.01,.08,0,.14-.02,.21-.04,.07-.02,.14-.03,.19-.05l.17,.86c-.1,.04-.22,.08-.34,.11-.11,.03-.24,.06-.39,.07-.15,.02-.32,.03-.51,.03-.46,0-.79-.13-1-.38Z"/><path class="cls-4" d="M97.88,140.34c.41,.54,.62,1.28,.62,2.22,0,.44-.06,.86-.17,1.24-.11,.39-.28,.72-.5,1-.23,.28-.51,.5-.85,.66-.34,.16-.73,.25-1.19,.25s-.84-.07-1.17-.21c-.33-.14-.6-.34-.82-.6s-.37-.58-.47-.95c-.1-.37-.15-.79-.15-1.26s.05-.87,.17-1.25c.11-.38,.28-.72,.5-1,.22-.28,.51-.5,.85-.66,.34-.16,.74-.25,1.19-.25,.91,0,1.58,.27,1.99,.81Zm-2.67,.34c-.15,.1-.26,.25-.34,.44-.08,.18-.14,.4-.17,.65-.03,.25-.05,.51-.05,.8s.02,.57,.05,.83c.04,.26,.1,.49,.2,.69,.1,.19,.22,.35,.39,.45,.16,.11,.37,.17,.62,.17,.23,0,.42-.05,.56-.15,.15-.1,.26-.25,.34-.43,.08-.19,.14-.4,.17-.65,.04-.25,.05-.51,.05-.8s-.02-.57-.06-.83c-.03-.26-.1-.49-.19-.69-.1-.2-.23-.35-.39-.46-.16-.11-.37-.17-.62-.17-.23,0-.42,.05-.56,.16Z"/><path class="cls-4" d="M100.58,146.64c.12,.05,.24,.1,.38,.15,.14,.05,.28,.1,.43,.15,.15,.05,.3,.08,.46,.12,.15,.03,.31,.05,.46,.05,.44,0,.76-.13,.96-.4,.2-.27,.3-.61,.3-1.03s-.09-.83-.26-1.25c-.13,.4-.35,.71-.63,.92-.29,.21-.67,.31-1.15,.31-.37,0-.7-.07-.97-.21-.28-.13-.5-.33-.68-.59-.18-.25-.32-.57-.4-.93-.09-.37-.13-.77-.13-1.21s.07-.87,.21-1.25c.14-.39,.33-.72,.59-.99,.25-.28,.55-.5,.89-.65,.35-.16,.73-.24,1.15-.24,.19,0,.39,.01,.61,.03,.22,.02,.43,.06,.64,.09,.21,.04,.41,.07,.6,.11,.18,.04,.34,.07,.48,.11l-.06,3.27c-.01,.24,0,.45,.04,.65,.04,.2,.07,.39,.12,.59,.05,.2,.09,.39,.13,.59,.04,.2,.06,.42,.06,.66,0,.84-.21,1.47-.64,1.88-.43,.41-1.01,.62-1.74,.62-.24,0-.48-.02-.71-.06-.24-.05-.46-.09-.66-.15-.2-.06-.38-.11-.52-.17-.14-.06-.23-.1-.28-.12l.33-1.04Zm1.7-2.12c.16-.13,.31-.29,.43-.51,.12-.21,.22-.45,.29-.72,.07-.27,.11-.55,.11-.83v-1.81c-.07-.02-.2-.05-.35-.08-.16-.03-.3-.05-.43-.05-.3,0-.55,.05-.75,.16-.2,.1-.35,.25-.47,.43-.12,.18-.2,.4-.25,.65-.05,.25-.07,.53-.07,.83,0,.28,0,.54,.02,.8,.02,.25,.06,.48,.12,.67,.07,.2,.17,.36,.29,.47,.13,.11,.3,.17,.51,.17,.19,0,.37-.06,.53-.19Z"/><path class="cls-4" d="M106.16,145.27c-.22-.25-.33-.57-.33-.97v-4.63h1.36v4.51c0,.18,.03,.3,.09,.37,.05,.06,.14,.1,.25,.1h.1s.07,0,.1-.01c.03,0,.06,0,.11-.01l.14,.86c-.06,.03-.13,.06-.21,.08-.07,.02-.16,.04-.27,.06-.11,.01-.23,.02-.36,.02-.42,0-.74-.13-.96-.38Zm-.26-6.69l1.66-2.26,.94,.79c-.24,.29-.48,.57-.72,.82-.24,.26-.45,.47-.65,.66-.23,.21-.45,.41-.66,.59l-.57-.61Z"/><path class="cls-4" d="M113.69,142.73c0,.48,.03,.87,.09,1.2,.06,.32,.12,.58,.2,.78,.09,.24,.18,.43,.29,.56l-1.06,.43c-.1-.1-.2-.23-.28-.37-.08-.13-.14-.28-.21-.46-.06-.18-.1-.39-.12-.63-.13,.48-.35,.83-.65,1.08-.3,.25-.7,.36-1.21,.36-.38,0-.7-.07-.97-.21-.27-.13-.5-.33-.68-.59-.18-.25-.32-.57-.4-.93-.09-.37-.13-.77-.13-1.21s.07-.87,.21-1.25c.14-.39,.33-.72,.58-.99,.25-.28,.55-.5,.9-.65,.35-.16,.73-.24,1.15-.24,.24,0,.49,.02,.74,.05,.26,.04,.5,.07,.72,.11,.22,.04,.41,.07,.56,.11,.16,.04,.25,.06,.27,.07v2.8Zm-2.18,1.78c.17-.13,.31-.31,.44-.53,.12-.22,.22-.46,.28-.75,.07-.28,.1-.57,.1-.86v-1.71c-.08-.02-.2-.05-.36-.08-.16-.03-.3-.05-.43-.05-.3,0-.55,.05-.74,.16-.19,.1-.35,.25-.48,.43-.12,.18-.2,.4-.25,.65-.05,.25-.07,.53-.07,.83,0,.28,0,.54,.03,.8,.02,.25,.06,.48,.12,.67,.07,.2,.17,.36,.29,.47,.13,.11,.29,.17,.51,.17,.2,0,.38-.06,.55-.2Z"/></g><g><path class="cls-4" d="M20.34,88.19h6.76v27.75h-6.76v-27.75Z"/><path class="cls-4" d="M46.33,94.95c-.76-.93-1.5-1.55-2.21-1.87-.71-.31-1.42-.47-2.13-.47-1.78,0-3.07,.83-3.87,2.48-.81,1.65-1.21,3.94-1.21,6.86,0,1.4,.09,2.67,.27,3.83,.18,1.16,.48,2.15,.92,2.97,.43,.82,1.01,1.46,1.74,1.93,.72,.46,1.63,.7,2.72,.7,.96,0,1.89-.12,2.81-.35,.91-.23,1.76-.5,2.52-.8l1.48,4.59c-.85,.35-1.91,.67-3.2,.94-1.28,.27-2.76,.41-4.43,.41-4.21,0-7.28-1.19-9.22-3.59-1.94-2.39-2.91-5.79-2.91-10.19,0-2.13,.25-4.08,.76-5.86,.5-1.78,1.27-3.32,2.29-4.61,1.02-1.3,2.31-2.31,3.85-3.03,1.54-.72,3.37-1.09,5.48-1.09,1.09,0,2.05,.1,2.89,.29,.84,.19,1.57,.44,2.2,.76,.63,.31,1.18,.68,1.66,1.09,.48,.41,.91,.83,1.29,1.27l-3.69,3.73Z"/><path class="cls-4" d="M61.01,88.19h6.03l10.17,27.75h-6.85l-2.05-6.68h-8.97l-2.14,6.68h-6.72l10.53-27.75Zm5.78,16.07c-.27-.79-.55-1.62-.84-2.48-.29-.86-.56-1.7-.82-2.52-.26-.82-.5-1.59-.72-2.32-.22-.72-.41-1.33-.58-1.82-.16,.52-.35,1.14-.57,1.86-.22,.72-.46,1.5-.72,2.32-.26,.82-.53,1.65-.82,2.5-.29,.85-.57,1.67-.84,2.46h5.9Z"/><path class="cls-4" d="M94.17,88.19l-.86,4.96h-6.39v22.79h-6.76v-22.79h-6.6v-4.96h20.62Z"/></g></svg>