<?xml version="1.0" encoding="UTF-8"?><svg xmlns="http://www.w3.org/2000/svg" viewBox="0 0 695.38 462.85"><defs><style>.cls-1{fill:#ebebeb;}.cls-2{fill:#f0f0f0;}.cls-3{fill:#eb996e;}.cls-4{fill:#f5f5f5;}.cls-5,.cls-6,.cls-7{fill:#fff;}.cls-8{fill:#fafafa;}.cls-9{fill:#ffbe9d;}.cls-10{fill:#7f7f7f;}.cls-11{fill:#92e3a9;}.cls-12{fill:#89ce9a;}.cls-13{fill:#8ee8b9;}.cls-14{fill:#bfefc6;}.cls-15{fill:#cccfd0;}.cls-16{fill:#ccc;}.cls-17{fill:#e0e0e0;}.cls-18{fill:#455a64;}.cls-19{fill:#63ba8e;}.cls-20{fill:#263238;}.cls-21{fill:#5e5e5e;}.cls-22{fill:#4dc165;}.cls-6{stroke:#000;}.cls-6,.cls-7{stroke-miterlimit:10;}.cls-7{stroke:#fff;}.cls-23{opacity:.3;}</style></defs><g id="Background_Complete"><g><path class="cls-17" d="M65.89,269.52c-.14,0-.26-2.69-.26-6s.12-6,.26-6,.26,2.69,.26,6-.12,6-.26,6Z"/><path class="cls-17" d="M65.89,293.52c-.14,0-.26-2.69-.26-6s.12-6,.26-6,.26,2.69,.26,6-.12,6-.26,6Z"/><path class="cls-17" d="M65.89,317.52c-.14,0-.26-2.69-.26-6s.12-6,.26-6,.26,2.69,.26,6-.12,6-.26,6Z"/><path class="cls-17" d="M65.89,341.52c-.14,0-.26-2.69-.26-6s.12-6,.26-6,.26,2.69,.26,6-.12,6-.26,6Z"/><path class="cls-17" d="M65.89,365.52c-.14,0-.26-2.69-.26-6s.12-6,.26-6,.26,2.69,.26,6-.12,6-.26,6Z"/><path class="cls-17" d="M75.55,379.87c0,.14-2.69,.26-6,.26-1.38,0-2.66-.02-3.66-.05h-.01c-.11,0-.2-.1-.19-.21,.05-1.43,.12-2.34,.21-2.34s.16,.91,.21,2.34l-.21-.21c1-.03,2.27-.05,3.66-.05,3.31,0,6,.12,6,.26Z"/><path class="cls-17" d="M99.55,379.87c0,.14-2.69,.26-6,.26s-6-.12-6-.26,2.69-.26,6-.26,6,.12,6,.26Z"/><path class="cls-17" d="M123.55,379.87c0,.14-2.69,.26-6,.26s-6-.12-6-.26,2.69-.26,6-.26,6,.12,6,.26Z"/><path class="cls-17" d="M142.96,379.87c0,.14-1.66,.26-3.71,.26s-3.71-.12-3.71-.26,1.66-.26,3.71-.26,3.71,.12,3.71,.26Z"/></g><g><path class="cls-17" d="M304.61,35.88c0-.14,1.34-.26,3-.26s3,.12,3,.26-1.34,.26-3,.26-3-.12-3-.26Z"/><path class="cls-17" d="M283.92,35.88c0-.14,2.32-.26,5.17-.26s5.17,.12,5.17,.26-2.32,.26-5.17,.26-5.17-.12-5.17-.26Z"/><path class="cls-17" d="M263.23,35.88c0-.14,2.32-.26,5.17-.26s5.17,.12,5.17,.26-2.32,.26-5.17,.26-5.17-.12-5.17-.26Z"/><path class="cls-17" d="M246.88,41.88c-.14,0-.26-2.69-.26-6,.52-.52,.15-.14,.26-.26h.61c.2,0,.4,0,.6,0,.38,0,.76,.01,1.13,.02,.66,.02,1.29,.04,1.91,.06,1.09,.05,1.76,.11,1.76,.18s-.67,.14-1.76,.18c-.62,.02-1.25,.04-1.91,.06-.37,0-.74,.01-1.13,.02h-1.21c.12-.11-.26,.26,.26-.25,0,3.31-.12,6-.26,6Z"/><path class="cls-17" d="M246.88,65.14c-.14,0-.26-2.6-.26-5.81s.12-5.82,.26-5.82,.26,2.6,.26,5.82-.12,5.81-.26,5.81Z"/><path class="cls-17" d="M246.88,82.77c-.14,0-.26-1.34-.26-3s.12-3,.26-3,.26,1.34,.26,3-.12,3-.26,3Z"/></g><g><path class="cls-17" d="M551.3,122.8c0,.14-2.69,.26-6,.26s-6-.12-6-.26,2.69-.26,6-.26,6,.12,6,.26Z"/><path class="cls-17" d="M575.3,122.8c0,.14-2.69,.26-6,.26s-6-.12-6-.26,2.69-.26,6-.26,6,.12,6,.26Z"/><path class="cls-17" d="M599.3,122.8c0,.14-2.69,.26-6,.26s-6-.12-6-.26,2.69-.26,6-.26,6,.12,6,.26Z"/><path class="cls-17" d="M623.3,122.8c0,.14-2.69,.26-6,.26s-6-.12-6-.26,2.69-.26,6-.26,6,.12,6,.26Z"/><path class="cls-17" d="M647.3,122.8c0,.14-2.69,.26-6,.26s-6-.12-6-.26,2.69-.26,6-.26,6,.12,6,.26Z"/><path class="cls-17" d="M670.84,123.26s-.07-.16-.1-.46l.1,.1c-.9,.09-3.04,.16-5.53,.16-3.31,0-6-.12-6-.26s2.69-.26,6-.26c2.49,0,4.63,.07,5.53,.16h.02s.09,.05,.08,.1c-.03,.3-.06,.46-.1,.46Z"/><path class="cls-17" d="M670.84,147.26c-.14,0-.26-2.69-.26-6s.12-6,.26-6,.26,2.69,.26,6-.12,6-.26,6Z"/><path class="cls-17" d="M670.84,171.26c-.14,0-.26-2.69-.26-6s.12-6,.26-6,.26,2.69,.26,6-.12,6-.26,6Z"/><path class="cls-17" d="M670.84,195.26c-.14,0-.26-2.69-.26-6s.12-6,.26-6,.26,2.69,.26,6-.12,6-.26,6Z"/><path class="cls-17" d="M670.84,219.26c-.14,0-.26-2.69-.26-6s.12-6,.26-6,.26,2.69,.26,6-.12,6-.26,6Z"/><path class="cls-17" d="M670.84,243.26c-.14,0-.26-2.69-.26-6s.12-6,.26-6,.26,2.69,.26,6-.12,6-.26,6Z"/><path class="cls-17" d="M659.36,255.79c0-.14,2.69-.26,6-.26,2.45,0,4.55,.06,5.48,.15l-.11,.11c.03-.34,.07-.52,.11-.52s.07,.18,.11,.52c0,.05-.03,.1-.09,.1h-.02c-.93,.09-3.03,.16-5.48,.16-3.31,0-6-.12-6-.26Z"/><path class="cls-17" d="M635.36,255.79c0-.14,2.69-.26,6-.26s6,.12,6,.26-2.69,.26-6,.26-6-.12-6-.26Z"/></g><g><path class="cls-1" d="M610.07,96.6l2.43,39.43c.09,1.4,1.25,2.5,2.66,2.5h70.98c1.47,0,2.66-1.19,2.66-2.66v-30.71c0-1.48-1.2-2.67-2.68-2.66l-43.65,.28c-.71,0-1.38-.27-1.89-.77l-7.59-7.47c-.5-.49-1.17-.77-1.87-.77h-18.4c-1.54,0-2.75,1.29-2.66,2.83Z"/><rect class="cls-4" x="611.25" y="97.84" width="77.56" height="46.35"/><path class="cls-1" d="M605.08,101.99l5.92,48.33c.11,.86,.83,1.5,1.7,1.5h75.59c.89,0,1.64-.69,1.71-1.58l3.81-48.33c.08-1-.71-1.85-1.71-1.85h-85.31c-1.03,0-1.82,.9-1.7,1.92Z"/></g><path class="cls-1" d="M51.27,63.41c6.46-2.71,11.06-9.37,11.09-17.22,.04-10.28-7.74-18.66-17.39-18.7-9.64-.04-17.49,8.26-17.54,18.54-.03,7.92,4.6,14.67,11.13,17.39-26.87,4.05-25.65,33.25-25.65,33.25l63.54,.29s1.45-29.52-25.19-33.55Z"/><path class="cls-4" d="M579.91,39.2c4.8-2.01,8.21-6.96,8.24-12.79,.03-7.63-5.75-13.85-12.91-13.88-7.16-.03-12.99,6.13-13.02,13.76-.02,5.88,3.41,10.89,8.26,12.91-19.95,3.01-19.04,24.68-19.04,24.68l47.17,.22s1.08-21.92-18.7-24.9Z"/><path class="cls-4" d="M143.27,31.76c3.05-1.28,5.22-4.42,5.23-8.13,.02-4.85-3.65-8.8-8.2-8.83-4.55-.02-8.25,3.9-8.27,8.75-.02,3.74,2.17,6.92,5.25,8.2-12.68,1.91-12.1,15.69-12.1,15.69l29.98,.14s.68-13.93-11.89-15.83Z"/><path class="cls-4" d="M403.38,415.42c3.93-1.65,6.73-5.7,6.75-10.48,.03-6.26-4.71-11.36-10.58-11.38-5.87-.03-10.65,5.03-10.67,11.28-.02,4.82,2.8,8.93,6.77,10.58-16.35,2.46-15.61,20.24-15.61,20.24l38.67,.18s.88-17.97-15.33-20.42Z"/><g><rect class="cls-4" x="584.78" y="344.23" width="93.81" height="90.76"/><polygon class="cls-17" points="592.05 427.23 618 380.52 639.23 410.37 652.13 394.52 671.32 427.23 592.05 427.23"/><path class="cls-17" d="M648.27,371.44c0,3.73-3.02,6.75-6.75,6.75s-6.75-3.02-6.75-6.75,3.02-6.75,6.75-6.75,6.75,3.02,6.75,6.75Z"/><g class="cls-23"><path class="cls-17" d="M671.32,427.48s-.01-.13-.02-.37c0-.27-.01-.62-.02-1.06-.01-.97-.03-2.33-.04-4.08-.02-3.6-.06-8.81-.1-15.41-.05-13.26-.12-32.14-.2-54.8l.38,.38c-22.96,.02-50.17,.04-79.26,.06-.11,.09,.84-.84,.44-.43v5.15c0,1.72,0,3.42,0,5.12,0,3.4,0,6.77,0,10.11,0,6.67,0,13.2-.01,19.56-.01,12.71-.03,24.73-.04,35.78l-.39-.39c23.66,.08,43.42,.15,57.31,.2,6.93,.04,12.39,.08,16.16,.1,1.84,.02,3.28,.03,4.29,.05,.46,0,.83,.02,1.11,.02,.25,0,.38,.01,.39,.02,0,0-.11,.01-.35,.02-.27,0-.62,.01-1.07,.02-.99,.01-2.4,.03-4.21,.05-3.76,.02-9.19,.06-16.08,.1-13.95,.05-33.8,.12-57.56,.2h-.39v-.39c-.01-11.06-.03-23.07-.04-35.78,0-6.36,0-12.89-.01-19.56,0-3.33,0-6.7,0-10.11,0-1.7,0-3.41,0-5.12v-5.15c-.4,.39,.54-.56,.45-.46,29.09,.02,56.3,.05,79.26,.06h.39v.38c-.08,22.77-.15,41.73-.2,55.05-.04,6.57-.08,11.75-.1,15.33-.02,1.73-.03,3.06-.04,4.01,0,.42-.02,.76-.02,1.02,0,.23-.01,.34-.02,.33Z"/></g></g><g><rect class="cls-1" y="279.41" width="39.92" height="38.62"/><polygon class="cls-17" points="3.1 314.72 14.14 294.85 23.17 307.55 28.66 300.81 36.83 314.72 3.1 314.72"/><path class="cls-17" d="M27.02,290.98c0,1.59-1.29,2.87-2.87,2.87s-2.87-1.29-2.87-2.87,1.29-2.87,2.87-2.87,2.87,1.29,2.87,2.87Z"/><g class="cls-23"><path class="cls-17" d="M36.83,314.83s0-.06,0-.16c0-.12,0-.26,0-.45,0-.41-.01-.99-.02-1.74,0-1.53-.02-3.75-.04-6.56-.02-5.64-.05-13.67-.08-23.32l.16,.16c-9.77,0-21.35,.02-33.73,.03-.05,.04,.36-.36,.19-.18h0v2.19c0,.73,0,1.46,0,2.18,0,1.45,0,2.88,0,4.3,0,2.84,0,5.62,0,8.32,0,5.41-.01,10.52-.02,15.23l-.17-.17c10.07,.03,18.48,.06,24.39,.08,2.95,.02,5.27,.03,6.88,.04,.79,0,1.39,.01,1.82,.02h.47c.11,.01,.16,.02,.17,.02,0,0-.05,0-.15,0-.12,0-.26,0-.45,0-.42,0-1.02,.01-1.79,.02-1.6,.01-3.91,.02-6.84,.04-5.94,.02-14.38,.05-24.49,.08h-.17v-.17c0-4.7-.01-9.82-.02-15.23,0-2.71,0-5.48,0-8.32,0-1.42,0-2.85,0-4.3,0-.72,0-1.45,0-2.18v-2.18h0c-.17,.16,.23-.25,.19-.2,12.38,0,23.96,.02,33.73,.03h.16v.16c-.04,9.69-.06,17.76-.08,23.42-.02,2.8-.03,5-.04,6.52,0,.73-.01,1.3-.02,1.71,0,.18,0,.32,0,.43,0,.1,0,.14,0,.14Z"/></g></g><g><path class="cls-4" d="M19.97,350.06l2.25,36.44c.08,1.3,1.16,2.31,2.46,2.31H90.27c1.36,0,2.46-1.1,2.46-2.46v-28.38c0-1.37-1.11-2.47-2.48-2.46l-40.34,.26c-.65,0-1.28-.25-1.74-.71l-7.01-6.91c-.46-.45-1.08-.71-1.73-.71H22.42c-1.42,0-2.54,1.2-2.46,2.61Z"/><rect class="cls-8" x="21.06" y="351.2" width="71.68" height="42.83"/><path class="cls-4" d="M15.35,355.05l5.47,44.66c.1,.79,.77,1.39,1.57,1.39H92.25c.83,0,1.51-.64,1.58-1.46l3.52-44.66c.07-.92-.65-1.71-1.58-1.71H16.93c-.95,0-1.69,.83-1.57,1.78Z"/></g><g><path class="cls-1" d="M362.39,227.67c-.06,0-.13-.68-.22-1.96-.03-.64-.09-1.43-.26-2.36-.14-.93-.28-2-.62-3.17-.52-2.37-1.59-5.17-3.29-8.15-1.71-2.97-4.19-6.07-7.58-8.73-3.38-2.63-7.65-4.9-12.62-5.88-4.93-.95-10.51-.91-15.86,.99-2.69,.87-5.3,2.21-7.7,3.93-1.24,.81-2.33,1.84-3.48,2.82-1.04,1.1-2.12,2.17-3.02,3.42-3.81,4.83-6.05,11.1-6.26,17.62-.1,6.52,1.83,12.89,5.4,17.9,.84,1.29,1.87,2.42,2.85,3.56,1.09,1.04,2.13,2.12,3.34,2.99,2.32,1.83,4.86,3.3,7.5,4.3,5.25,2.16,10.82,2.47,15.79,1.76,5-.74,9.38-2.8,12.89-5.26,3.52-2.49,6.14-5.47,7.99-8.35,1.84-2.89,3.05-5.64,3.68-7.98,.4-1.15,.58-2.22,.77-3.13,.22-.91,.32-1.7,.38-2.34,.15-1.28,.26-1.95,.32-1.95,.06,0,.07,.68,.02,1.98,0,.65-.05,1.46-.22,2.4-.14,.94-.28,2.04-.63,3.23-.55,2.42-1.69,5.28-3.52,8.31-1.83,3.02-4.49,6.17-8.09,8.82-3.6,2.63-8.14,4.84-13.37,5.68-5.19,.81-11.04,.54-16.59-1.69-2.79-1.03-5.48-2.56-7.93-4.48-1.27-.91-2.37-2.04-3.53-3.13-1.04-1.2-2.14-2.38-3.03-3.74-3.79-5.28-5.84-12.02-5.73-18.9,.23-6.88,2.61-13.51,6.65-18.59,.96-1.31,2.11-2.44,3.21-3.59,1.21-1.04,2.37-2.11,3.68-2.96,2.54-1.79,5.3-3.19,8.14-4.09,5.65-1.96,11.5-1.94,16.65-.88,5.18,1.09,9.61,3.52,13.07,6.32,3.48,2.83,5.97,6.1,7.66,9.2,1.67,3.12,2.68,6.03,3.11,8.47,.3,1.21,.38,2.31,.48,3.26,.12,.95,.13,1.75,.1,2.4-.02,1.3-.06,1.98-.12,1.98Z"/><path class="cls-1" d="M356.21,208.37c.07,.1-.49,.58-1.56,1.38-.59,.42-1.25,.9-1.99,1.43-.39,.27-.81,.57-1.26,.86-.49,.25-.99,.52-1.52,.8-4.13,2.39-10.68,4.83-18.16,4.57-.93-.04-1.84-.08-2.75-.12-.89-.14-1.77-.28-2.64-.41-.43-.07-.86-.13-1.28-.22-.41-.11-.82-.22-1.23-.33-.81-.22-1.61-.42-2.37-.66-3.03-1.05-5.65-2.28-7.7-3.55-4.14-2.5-6.15-4.78-6-4.93,.17-.19,2.42,1.71,6.59,3.88,2.07,1.1,4.65,2.17,7.58,3.1,.74,.21,1.51,.38,2.29,.58,.39,.1,.79,.19,1.18,.29,.41,.06,.82,.12,1.23,.19,.83,.12,1.67,.25,2.52,.37,.86,.03,1.74,.07,2.62,.11,7.11,.25,13.41-1.89,17.58-3.95,.53-.23,1.05-.45,1.54-.67,.47-.24,.89-.51,1.3-.73,.78-.43,1.48-.82,2.11-1.16,1.17-.62,1.86-.92,1.93-.83Z"/><path class="cls-1" d="M306.79,245.93c-.07-.1,.49-.58,1.56-1.38,.59-.42,1.25-.9,1.99-1.43,.39-.27,.81-.57,1.26-.86,.49-.25,.99-.52,1.52-.8,4.13-2.39,10.68-4.83,18.16-4.57,.93,.04,1.84,.08,2.75,.12,.89,.14,1.77,.28,2.64,.41,.43,.07,.86,.13,1.28,.22l1.23,.33c.81,.22,1.61,.42,2.37,.66,3.03,1.05,5.65,2.28,7.7,3.55,4.14,2.5,6.15,4.78,6,4.93-.17,.19-2.42-1.71-6.59-3.88-2.07-1.1-4.65-2.17-7.58-3.1-.74-.21-1.51-.38-2.29-.58-.39-.1-.79-.19-1.18-.29-.41-.06-.82-.12-1.23-.19-.83-.12-1.67-.25-2.52-.37-.86-.03-1.74-.07-2.62-.11-7.11-.24-13.41,1.89-17.58,3.95-.53,.23-1.05,.45-1.54,.67-.47,.25-.89,.51-1.3,.73-.78,.43-1.48,.82-2.11,1.16-1.17,.62-1.86,.92-1.93,.83Z"/><path class="cls-1" d="M362.37,228.39c-.01,.47-13.85,.51-30.9,.1-17.06-.41-30.87-1.13-30.86-1.6,.01-.47,13.85-.51,30.9-.1,17.05,.41,30.87,1.13,30.86,1.6Z"/><path class="cls-1" d="M330.07,257.77c-.47-.01-.51-13.84-.1-30.89,.41-17.05,1.13-30.86,1.6-30.85,.47,.01,.51,13.84,.1,30.89-.41,17.05-1.13,30.86-1.6,30.85Z"/><path class="cls-1" d="M330.07,257.72c-.12,.18-3.52-2.13-7.45-7.35-1.94-2.61-3.98-5.97-5.52-10.02-1.53-4.05-2.49-8.82-2.39-13.84,.09-5.04,1.36-9.75,3.12-13.7,1.76-3.96,3.98-7.2,6.03-9.71,4.16-5.03,7.59-7.25,7.71-7.08,.17,.19-2.94,2.72-6.76,7.82-1.89,2.55-3.93,5.75-5.54,9.6-1.62,3.83-2.77,8.32-2.86,13.11-.1,4.79,.77,9.35,2.16,13.27,1.4,3.93,3.26,7.24,5.03,9.87,3.58,5.26,6.64,7.86,6.47,8.05Z"/><path class="cls-1" d="M332.26,196.04c.12-.18,3.52,2.13,7.45,7.35,1.94,2.61,3.98,5.97,5.52,10.02,1.53,4.05,2.49,8.82,2.39,13.84-.09,5.04-1.36,9.75-3.12,13.7-1.76,3.96-3.98,7.2-6.03,9.71-4.16,5.03-7.59,7.25-7.71,7.08-.17-.19,2.94-2.72,6.76-7.82,1.89-2.55,3.93-5.75,5.54-9.6,1.62-3.83,2.77-8.32,2.86-13.11,.1-4.79-.77-9.35-2.16-13.27-1.4-3.93-3.26-7.24-5.03-9.87-3.58-5.26-6.64-7.86-6.47-8.05Z"/></g></g><g id="Character_4"><g><g><g><rect class="cls-14" x="404.13" y="219.7" width="227.56" height="169"/><path class="cls-20" d="M631.68,388.71c0-1.76-.08-66.7-.21-169l.21,.21c-64.08,.01-142.7,.03-227.54,.05h-.02l.26-.26c0,60.71-.02,118.23-.02,169l-.24-.24c134.73,.14,225.48,.23,227.56,.24-2.08,0-92.82,.1-227.56,.24h-.24v-.24c0-50.78-.02-108.29-.02-169v-.26h.28c84.84,.02,163.46,.03,227.54,.05h.21v.21c-.13,102.3-.21,167.24-.21,169Z"/></g><path class="cls-17" d="M631.68,244.75c0,.14-50.83,.26-113.52,.26s-113.53-.12-113.53-.26,50.82-.26,113.53-.26,113.52,.12,113.52,.26Z"/><path class="cls-17" d="M417.95,232.12c0,1.89-1.53,3.43-3.43,3.43s-3.43-1.53-3.43-3.43,1.53-3.43,3.43-3.43,3.43,1.53,3.43,3.43Z"/><path class="cls-17" d="M428.27,232.12c0,1.89-1.53,3.43-3.43,3.43s-3.43-1.53-3.43-3.43,1.53-3.43,3.43-3.43,3.43,1.53,3.43,3.43Z"/><path class="cls-17" d="M438.6,232.12c0,1.89-1.53,3.43-3.43,3.43s-3.43-1.53-3.43-3.43,1.53-3.43,3.43-3.43,3.43,1.53,3.43,3.43Z"/></g><g><path class="cls-17" d="M526.88,207.1c-1.02-2.23-3.59-3.65-6.02-3.33-2.72-2.38-7.15-2.52-10.01-.31-2.07-1.37-4.88-1.57-7.12-.49-2.24,1.08-3.85,3.38-4.08,5.86-2.47-.52-5.2,.69-6.47,2.87-1.27,2.18-.98,5.15,.69,7.04-2.75,.74-4.68,3.75-4.21,6.56,.46,2.81,3.26,5.03,6.1,4.85l29.71-16.32c1.84-1.63,2.44-4.5,1.42-6.73Z"/><g><g><path class="cls-6" d="M494.87,230.93c1.67-12.74,12.84-22.06,25.67-21.43l1.28,.06c13.71,1.49,20.11,13.96,18.24,27.62l-4.27,45.69-.23,2.22-32.05,4.78,.62-11.67s-13.12-2.71-12.62-15.94c.24-6.39,1.8-19.5,3.35-31.35Z"/><path d="M504.03,278.19s8.41,.93,17.57-4.21c0,0-4.55,9.31-17.67,7.46l.1-3.26Z"/><path class="cls-20" d="M497.74,243.78c-.09,.99,.69,1.89,1.73,1.99,1.04,.11,1.95-.61,2.03-1.6,.08-.99-.69-1.89-1.72-2-1.04-.11-1.95,.61-2.03,1.61Z"/><path class="cls-20" d="M497.39,237.53c.22,.26,1.7-.73,3.73-.62,2.03,.08,3.47,1.2,3.7,.96,.11-.1-.1-.56-.73-1.07-.62-.5-1.68-1.01-2.95-1.07-1.27-.06-2.35,.36-2.99,.8-.65,.45-.88,.88-.77,1Z"/><path class="cls-20" d="M515.66,244.99c-.08,.99,.69,1.89,1.73,1.99,1.04,.11,1.95-.61,2.03-1.61,.08-.99-.69-1.89-1.72-2-1.04-.11-1.95,.61-2.03,1.61Z"/><path class="cls-20" d="M517.33,238.9c.22,.26,1.71-.73,3.74-.62,2.03,.08,3.47,1.2,3.7,.96,.11-.1-.1-.56-.73-1.07-.62-.5-1.68-1.01-2.95-1.07-1.27-.06-2.35,.36-2.99,.8-.65,.45-.88,.88-.77,1Z"/><path class="cls-20" d="M509.21,253.6c.02-.12-1.24-.4-3.27-.76-.52-.08-1-.21-1.07-.56-.1-.38,.14-.93,.42-1.52,.55-1.23,1.13-2.52,1.73-3.87,2.41-5.52,4.18-10.06,3.96-10.16-.22-.09-2.36,4.3-4.77,9.82-.58,1.36-1.14,2.66-1.67,3.9-.23,.58-.6,1.23-.37,2.02,.12,.39,.49,.69,.81,.8,.33,.12,.62,.14,.87,.17,2.05,.21,3.33,.29,3.34,.17Z"/><path class="cls-20" d="M515.12,255.3c-.33-.04-.44,2.17-2.41,3.64-1.96,1.48-4.3,1.11-4.33,1.42-.04,.14,.5,.45,1.49,.53,.97,.08,2.41-.16,3.61-1.06,1.2-.9,1.76-2.16,1.88-3.06,.13-.92-.09-1.48-.24-1.47Z"/><path class="cls-17" d="M517.2,230.92c.17,.56,2.21,.4,4.58,.81,2.38,.36,4.26,1.15,4.6,.67,.15-.23-.16-.77-.91-1.34-.74-.57-1.95-1.14-3.37-1.37-1.42-.23-2.74-.07-3.63,.24-.89,.31-1.35,.72-1.28,.99Z"/><path class="cls-17" d="M498.43,231.69c.33,.48,1.76,.07,3.44,.13,1.69,0,3.09,.46,3.44,0,.16-.23-.05-.7-.65-1.17-.59-.47-1.6-.87-2.76-.89-1.16-.02-2.18,.35-2.79,.79-.62,.44-.84,.91-.69,1.14Z"/><path class="cls-17" d="M496.44,224.93s3.9-8.1,7.98-9.84c4.95-2.1,6.76,3.31,11.43,2.25,4.67-1.06,9.39-3.07,13.92,.72,4.96,4.15,2.41,6.76,2.43,12.64,.11,23.84,4.12,30.78,5.91,19.64,.2-1.22,3.65-2.03,4.41-7.19,.99-6.69,1.65-14.84,.39-19.68-1.06-4.08-3.22-6.98-7.18-10.24-6.25-5.16-15.16-5.7-21.24-5.4-6.08,.31-18.1,6.69-18.06,17.08Z"/><path class="cls-6" d="M537.3,249.95c.18-2.04,2.02-3.56,4.04-3.26,2.45,.36,5.13,1.89,4.71,6.98-.74,9.02-9.64,6.42-9.64,6.16,0-.18,.54-6.1,.88-9.87Z"/><path d="M538.66,256.58s.15,.12,.4,.27c.25,.14,.69,.26,1.17,.12,.98-.27,1.91-1.72,2.08-3.34,.09-.82-.02-1.61-.26-2.29-.22-.68-.61-1.18-1.08-1.3-.47-.15-.83,.11-.96,.35-.14,.24-.1,.43-.15,.44-.03,.02-.18-.17-.08-.53,.05-.18,.18-.38,.4-.54,.23-.16,.56-.22,.89-.16,.69,.1,1.27,.8,1.53,1.53,.3,.74,.44,1.64,.34,2.56-.21,1.81-1.28,3.44-2.61,3.71-.65,.11-1.16-.12-1.42-.36-.26-.25-.29-.45-.26-.47Z"/></g><path class="cls-17" d="M537.99,232.43c-1.21,.74-2.49,1.51-3.91,1.58-1.42,.07-3-.82-3.17-2.24-.08-.63,.11-1.36-.28-1.86-.46-.6-1.38-.47-2.15-.43-2.64,.15-5.24-1.84-5.78-4.43-.72,.97-2.28,.85-3.26,.14-.98-.7-1.58-1.81-2.33-2.75-.75-.95-1.82-1.82-3.02-1.71-.67,.06-1.32,.43-1.99,.34-1.18-.16-1.69-1.58-1.81-2.77s-.19-2.57-1.17-3.26c-.9-.64-2.13-.36-3.23-.25-1.1,.11-2.5-.22-2.72-1.3-.12-.57,.15-1.15,.49-1.62,1.52-2.15,4.63-2.98,7.02-1.87,1.03-2.94,3.94-5.13,7.05-5.3,3.11-.17,6.24,1.68,7.6,4.49,2-1.64,4.81-2.23,7.29-1.53,2.49,.7,4.58,2.67,5.43,5.1,2.23-.47,4.69,.51,5.99,2.37,1.3,1.87,1.37,4.51,.16,6.44,1.58,1.01,2.89,2.69,2.83,4.56-.06,1.87-1.97,3.64-3.75,3.06,.66,1.49-.03,3.44-1.49,4.18-1.45,.74-3.44,.17-4.26-1.24"/></g><path class="cls-5" d="M543.95,229.22s.13,.77-.65,1.71c-.38,.45-1.03,.9-1.86,.99-.82,.1-1.81-.15-2.54-.88l.39-.04c-.49,.76-1.11,1.52-1.92,2.16-.52,.41-1.08,.75-1.7,.94-.6,.21-1.28,.2-1.83,.08-1.14-.18-2.11-.85-2.53-1.63-.45-.76-.56-1.45-.64-1.92-.07-.47-.06-.73-.03-.73,.04,0,.1,.25,.23,.69,.13,.44,.31,1.1,.75,1.76,.79,1.34,3.55,2.14,5.42,.4,.74-.6,1.35-1.32,1.82-2.03l.17-.26,.21,.22c.59,.61,1.43,.86,2.14,.8,.72-.05,1.3-.4,1.68-.78,.77-.79,.8-1.52,.88-1.5Z"/><path class="cls-5" d="M527.9,207.73s-.24,.05-.65,.2c-.4,.15-1,.46-1.46,1.12l-.12,.17-.12-.17c-.79-1.17-2.13-2.7-4.19-3.75-1.02-.52-2.23-.9-3.52-.96-1.29-.07-2.65,.23-3.88,.9-.95,.52-1.77,1.23-2.39,2.05-.6,.82-.99,1.75-1.13,2.67l-.04,.28-.27-.09c-1.34-.44-2.74-.25-3.78,.27-1.06,.52-1.76,1.35-2.16,2.1-.81,1.55-.6,2.67-.7,2.65-.02,0-.08-.26-.07-.74,.01-.48,.11-1.21,.51-2.04,.39-.81,1.11-1.74,2.24-2.33,1.11-.59,2.62-.83,4.11-.37l-.31,.2c.14-1.01,.55-2.02,1.19-2.91,.66-.88,1.53-1.65,2.55-2.2,1.31-.71,2.78-1.04,4.16-.95,1.38,.08,2.64,.5,3.7,1.06,2.14,1.14,3.47,2.76,4.22,4.01h-.23c.54-.71,1.21-.99,1.65-1.11,.45-.11,.7-.08,.7-.06Z"/><path d="M518.16,256.77c-.15,0-.16-.96-.88-1.79-.7-.85-1.64-1.01-1.63-1.15,0-.06,.26-.13,.67-.04,.4,.09,.94,.37,1.36,.85"/><path d="M519.09,254.31c-.13,.07-.44-.26-.91-.5-.46-.25-.91-.32-.93-.47-.03-.14,.55-.32,1.17,0,.62,.32,.8,.91,.67,.96Z"/><path d="M528.83,275.99s.13-.06,.25-.23c.12-.16,.22-.47,.06-.8-.13-.35-.52-.67-.77-1.27-.12-.28-.15-.73,.06-1.05,.19-.32,.45-.52,.62-.74,.73-.87-1.28-1.58-.97-2.72,.07-.48,.33-.79,.53-.94,.21-.15,.36-.16,.37-.13,.05,.06-.5,.33-.54,1.1-.02,.38,.2,.72,.62,1.1,.2,.19,.44,.44,.58,.78,.17,.34,.07,.85-.18,1.13-.23,.29-.47,.48-.59,.69-.12,.19-.13,.4-.05,.63,.15,.45,.54,.84,.67,1.31,.16,.48-.05,.91-.27,1.07-.23,.17-.4,.11-.4,.08Z"/><path d="M531.65,275.7s-.04-.14-.1-.33c-.06-.2-.23-.45-.47-.78-.12-.17-.25-.35-.36-.6-.11-.24-.18-.57-.09-.89,.18-.64,.73-1.03,1-1.48,.3-.45,.07-.85-.3-1.26-.17-.21-.35-.42-.46-.68-.11-.26-.13-.52-.11-.74,.12-.94,.76-1.19,.76-1.12,.06,.05-.4,.39-.39,1.14,0,.38,.18,.71,.56,1.09,.18,.2,.4,.42,.53,.77,.14,.35,.05,.79-.14,1.08-.38,.59-.87,.93-.99,1.35-.14,.39,.11,.81,.3,1.16,.2,.35,.35,.69,.35,.94,.01,.25-.07,.38-.1,.37Z"/></g><g><path class="cls-11" d="M553.88,348.68l11.99,11.56-3.88-22.11,24.35-7.7s6.47,30.34,7.59,37.52c2.02,12.88-.46,31.18-12.46,32.47-12.98,1.39-22.78-11.41-29.02-19.81-4.8-6.46-12.54-17.75-12.54-17.75l13.96-14.17"/><path class="cls-11" d="M461.13,329.01c-3.91,12.3-9.37,14.16-11.53,49.4-.42,6.87,1.06,16.04,7.58,18.26,7.24,2.46,18.32-2.02,21.8-7.96v-24.27l-17.85-35.42Z"/><path class="cls-20" d="M477.26,380.48c-.13,.04-.8-2.46-2.4-5.18-1.57-2.73-3.41-4.56-3.31-4.65,.04-.04,.54,.37,1.26,1.13,.71,.77,1.62,1.91,2.42,3.3,.8,1.39,1.35,2.74,1.66,3.74,.31,1,.41,1.64,.36,1.66Z"/><path class="cls-11" d="M455.24,343.2c.21-.73,12.22-33.44,16.06-40.6,4.59-8.56,14.23-12.35,20.21-12.72,5.98-.37,70.03,4.73,70.03,4.73,0,0,17.94,4.51,21.57,20.74,4.55,20.35,8.21,40.43,8.21,40.43l-32.1,6.93-3.78-9.51-60.31,13.46-14.73-21.78-25.16-1.68Z"/><g><polygon class="cls-11" points="565.77 296.48 540.75 285.45 537.95 274.66 508.75 288.47 502.63 281.71 500.07 289.33 493.67 291.42 481.08 316.24 478.76 373.77 478.98 388.71 565.28 389.28 564.58 364.82 565.77 296.48"/><path class="cls-17" d="M537.95,274.66s-3.26,.94-11.65,5.42c-8.21,4.38-17.55,8.39-17.55,8.39l.71,13.19,31.07-15.6"/><polyline class="cls-17" points="502.63 281.71 508.75 288.47 505.48 302.6 500.03 289.83"/><g class="cls-23"><path d="M508.63,289.93c-.27,.2-1.97,16.31-1.97,16.31l31.15-18.82-28.36,14.24-.82-11.73Z"/></g></g><path d="M508.92,388.91s-.64-23.89-.07-38.86c.47-12.32-1.47-43.75-1.47-43.75l-4.06-.65s-7.58,30.56-10.42,68l-1.15,15.15"/><path class="cls-20" d="M558.37,325.53s.13,.45,.29,1.27c.16,.9,.38,2.08,.63,3.5,.52,3.03,1.22,7.08,1.99,11.55,.79,4.51,1.46,8.6,1.9,11.57,.22,1.48,.39,2.69,.5,3.52,.11,.83,.15,1.29,.12,1.3-.03,0-.13-.45-.29-1.27-.16-.9-.38-2.08-.63-3.5-.53-3.03-1.24-7.07-2.02-11.55-.78-4.51-1.42-8.61-1.86-11.58-.2-1.43-.37-2.61-.5-3.52-.11-.83-.15-1.3-.12-1.3Z"/><path class="cls-20" d="M567.63,298.39c.05,.06-.84,.76-2.11,2.05-1.26,1.29-2.85,3.25-4.16,5.68-1.3,2.43-2.06,4.83-2.44,6.6-.39,1.77-.47,2.9-.55,2.89-.03,0-.03-.28,0-.8,.02-.51,.1-1.25,.26-2.15,.31-1.81,1.04-4.27,2.36-6.75,1.33-2.47,2.99-4.44,4.32-5.69,.67-.63,1.23-1.11,1.65-1.4,.41-.3,.65-.46,.67-.43Z"/><polygon points="508.85 294.77 506.06 293.69 503.43 298.21 502.95 305.64 506.67 306.24 509.46 301.65 508.85 294.77"/><path class="cls-20" d="M478.76,316.87c.12,0,.22,16.08,.22,35.92s-.1,35.92-.22,35.92-.22-16.08-.22-35.92,.1-35.92,.22-35.92Z"/><path class="cls-20" d="M509.04,288.35c.05,.04-.6,1.04-1.59,2.69-.99,1.65-2.29,3.97-3.54,6.62-.1,.22-.2,.43-.3,.64l-.19,.42-.2-.42c-1.2-2.52-2.06-4.87-2.6-6.58-.27-.86-.46-1.56-.58-2.04-.12-.49-.17-.76-.14-.76,.06-.02,.39,1.03,1,2.71,.61,1.68,1.51,3.99,2.71,6.49h-.39c.09-.2,.2-.42,.3-.64,1.25-2.67,2.61-4.98,3.67-6.6,.53-.81,.98-1.45,1.3-1.88,.32-.43,.52-.66,.54-.64Z"/><path class="cls-20" d="M540.75,285.45s-.14,.1-.43,.26c-.33,.17-.75,.39-1.26,.66-1.15,.59-2.72,1.41-4.64,2.41-3.92,2.04-9.28,4.94-15.22,8.11-3.62,1.93-7.05,3.72-10.03,5.21l-.28,.14v-.31c-.04-3.87-.07-7.13-.1-9.48,0-1.11,0-2,0-2.67,0-.62,.02-.95,.04-.95,.02,0,.05,.33,.08,.95,.03,.67,.06,1.56,.1,2.67,.06,2.36,.15,5.61,.25,9.48l-.28-.17c2.96-1.52,6.38-3.32,10-5.25,5.94-3.17,11.33-6.04,15.29-8.01,1.98-.99,3.59-1.76,4.71-2.28,.53-.24,.96-.43,1.3-.59,.3-.13,.46-.19,.46-.18Z"/><path class="cls-20" d="M482.52,295.61c.06,.04-.43,.87-1.06,2.28-.63,1.41-1.35,3.42-1.78,5.73-.42,2.31-.46,4.45-.37,5.99,.09,1.54,.25,2.49,.18,2.5-.03,0-.1-.23-.19-.65-.1-.42-.2-1.05-.29-1.83-.17-1.55-.18-3.74,.25-6.09,.44-2.35,1.22-4.39,1.93-5.78,.35-.7,.67-1.24,.92-1.6,.24-.36,.39-.56,.41-.54Z"/><path class="cls-20" d="M505.99,306.72c-.06,.1-.77-.23-1.58-.74-.81-.51-1.41-1.01-1.35-1.11,.06-.1,.77,.23,1.58,.74,.81,.51,1.41,1.01,1.35,1.11Z"/><path d="M507.32,304.9c-.11,.05-.95-1.64-1.89-3.76-.93-2.13-1.6-3.89-1.49-3.94,.11-.05,.95,1.64,1.89,3.76,.93,2.12,1.6,3.89,1.49,3.93Z"/><g class="cls-23"><path class="cls-11" d="M524.92,370.69c-.16-.68-.37-1.43-.96-1.82-1.03-.67-2.32,.21-3.38,.84-2.78,1.66-6.22,1.6-9.46,1.46-9.76-.43-19.52-1.15-29.15-2.77-4.72-.79-9.47-1.82-13.69-4.08s-7.89-5.89-9.25-10.48l-2.25-1.22c1.75,3.73,1.57,14.28,2.19,18.35,.63,4.07,2.43,6.97,6.35,8.23,1.57,.51,3.27,.43,4.92,.35,16.06-.8,32.27-.07,48.33-.87,2.3-.11,4.95-.42,6.18-2.36,1.04-1.63,.63-3.76,.18-5.64Z"/></g><path class="cls-20" d="M585.27,379.86s-.04-.06-.11-.19c-.07-.14-.17-.33-.29-.57-.13-.26-.28-.57-.46-.93-.23-.35-.5-.74-.79-1.18-1.22-1.77-3.32-4.12-6.23-6.77-2.9-2.67-6.59-5.68-10.73-9.11-2.06-1.73-4.26-3.55-6.45-5.57-2.19-2.02-4.45-4.2-6.48-6.74l.31,.02c-3.9,4.08-8.13,8.5-12.51,13.08-.57,.6-1.14,1.19-1.67,1.75l.02-.27c4.73,6.91,9.03,13.6,13.55,19.21,2.24,2.82,4.55,5.34,6.8,7.6,2.24,2.27,4.43,4.29,6.61,5.89,4.32,3.26,8.67,4.67,11.68,4.59,.38,0,.73,.02,1.06,0,.33-.04,.64-.07,.93-.1,.29-.03,.55-.06,.8-.08,.24-.05,.45-.1,.65-.15,.37-.08,.66-.14,.88-.19,.2-.04,.3-.06,.31-.05,0,0-.1,.04-.29,.09-.22,.06-.51,.14-.88,.23-.2,.05-.41,.11-.65,.17l-.8,.11c-.29,.04-.6,.08-.94,.12-.34,.02-.7,0-1.08,.02-3.05,.13-7.48-1.25-11.86-4.51-2.21-1.6-4.43-3.61-6.69-5.88-2.27-2.26-4.6-4.78-6.86-7.61-4.56-5.62-8.87-12.31-13.6-19.21l-.1-.15,.12-.13c.53-.55,1.1-1.15,1.67-1.75,4.38-4.58,8.62-8.99,12.52-13.07l.16-.17,.15,.19c2,2.51,4.24,4.68,6.41,6.7,2.18,2.02,4.37,3.85,6.42,5.59,4.12,3.45,7.79,6.49,10.68,9.19,2.9,2.69,4.98,5.08,6.17,6.89,.29,.45,.54,.86,.77,1.21,.17,.37,.32,.69,.44,.95,.11,.24,.19,.43,.26,.58,.06,.13,.08,.2,.08,.2Z"/><g class="cls-23"><path d="M542.78,367.41l-1.36-.41c1.18,6.75,4.88,16.3,8.23,22.28h9.75c-3.69-4.62-16.62-21.87-16.62-21.87Z"/></g></g><g><g><path class="cls-5" d="M551.95,350.58l-19.75-21.57-11.84-2.25-13.44,1.7s-.57,2.13,1.7,3.26l-4.97,.28s-.99,2.55,1.84,3.69l-3.55,.62s1.56,3.63,5.53,2.92c3.97-.71,10.5-.71,10.5-.71l6.95,3.83-10.36-.43-7.52,1.42s-.99,1.92,.71,2.38c1.7,.46,8.23,0,8.23,0l9.39,2.98s3.67,5.21,4.94,6.62c1.28,1.42,7.38,4.05,7.38,4.05l3.01,2.69,11.24-11.5Z"/><path d="M503.66,332.02c.01,.11,1.48,.04,3.86-.14,2.37-.19,5.65-.5,9.25-.88,1.2-.13,2.37-.26,3.46-.39h-.14c2.69,.75,5.02,1.37,6.69,1.79,1.67,.42,2.67,.62,2.69,.54,.02-.08-.93-.45-2.56-.99-1.63-.54-3.94-1.26-6.61-2.06l-.07-.02h-.08c-1.1,.12-2.26,.24-3.47,.37-3.61,.39-6.87,.78-9.23,1.11-2.36,.32-3.81,.58-3.8,.68Z"/><path d="M502.81,336.18c.02,.1,1.35,0,3.5-.24,2.15-.24,5.1-.63,8.36-1.11,1.13-.17,2.22-.33,3.24-.49l-.19-.02c4.66,1.82,8.1,3.04,8.16,2.87,.07-.16-3.26-1.65-7.89-3.56l-.09-.04h-.1c-1.03,.16-2.12,.31-3.25,.47-3.26,.48-6.2,.95-8.33,1.33-2.13,.38-3.43,.67-3.42,.77Z"/></g><g><path class="cls-20" d="M452.54,332.82l10.01,37.82c.55,2.1,2.47,3.54,4.64,3.5l51.84-1.02c2.95-.06,5.12-2.79,4.51-5.67l-7.63-36.22c-.46-2.18-2.38-3.73-4.6-3.73h-54.67c-2.78,0-4.81,2.64-4.1,5.33Z"/><path class="cls-5" d="M486.42,342.74c1.41,.69,2.05,2.26,1.43,3.51-.61,1.25-2.25,1.7-3.66,1.01-1.41-.69-2.05-2.26-1.43-3.51,.61-1.25,2.25-1.7,3.66-1.01Z"/><path class="cls-5" d="M448.78,341.1c-1.01-1.11-.92-2.96-.02-4.17,.9-1.21,2.44-1.81,3.95-1.87s2.99,.37,4.39,.91c1.74,.66,3.41,1.5,4.98,2.48,1.11,.7,2.26,1.61,2.48,2.9,.22,1.29-1.19,2.77-2.33,2.12,1.48,.62,2.98,2.19,3.21,3.83s-.64,2.52-2.22,2.99c1.21,.47,1.98,1.99,1.43,3.16-.58,1.23-2.28,1.57-3.55,1.08-1.27-.49-2.21-1.56-3.09-2.6,.9,1.55,1.22,3.44,.88,5.2-3.5-1.2-6.19-4.5-6.65-8.17-1.72-1.29-2.29-3.89-1.28-5.78-1.41-.44-3.01-2.6-2.9-4.07"/><path d="M463.19,350.33s-.59-.44-1.52-1.16c-.92-.7-2.27-1.67-3.99-2.04-.85-.18-1.7-.18-2.43,0-.73,.18-1.33,.52-1.77,.89-.89,.74-1.09,1.49-1.15,1.46-.02,0,0-.19,.14-.5,.13-.31,.39-.74,.84-1.16,.45-.41,1.08-.81,1.86-1.02,.78-.22,1.69-.23,2.6-.04,1.83,.4,3.19,1.45,4.08,2.21,.89,.79,1.38,1.33,1.34,1.37Z"/><path d="M462.8,343.65c-.02,.05-.74-.23-1.84-.77-.55-.26-1.21-.58-1.96-.86-.75-.26-1.62-.49-2.52-.65-.91-.15-1.79-.18-2.56-.02-.77,.15-1.42,.47-1.9,.82-.97,.72-1.17,1.51-1.24,1.48-.02,0,0-.2,.15-.52,.14-.32,.43-.76,.92-1.17,.48-.41,1.17-.78,1.99-.96,.82-.18,1.75-.17,2.69,0,.94,.17,1.8,.41,2.58,.7,.77,.3,1.42,.65,1.96,.95,1.07,.6,1.74,.96,1.72,1.01Z"/></g></g></g></g><g id="Speech_Bubble2"><g><g><path class="cls-8" d="M440.79,258.63l-12.65-.29c-2.43-4.67-6.15-8.75-11-11.65-13.96-8.34-32.04-3.79-40.38,10.17-8.34,13.96-3.79,32.04,10.17,40.38,13.96,8.34,32.04,3.79,40.38-10.17,3.48-5.83,4.71-12.38,3.95-18.63v.02l9.53-9.83Z"/><path class="cls-20" d="M440.79,258.63c-.45,.47-3.44,3.59-9.46,9.89l-.1,.1-.05-.13v-.02l.17-.04c.26,2.11,.32,4.49,.03,7.07-.31,2.57-.97,5.34-2.16,8.12-.6,1.38-1.3,2.79-2.19,4.12-.45,.67-.89,1.36-1.37,2.03-.53,.64-1.06,1.29-1.6,1.94-2.28,2.53-5.11,4.8-8.44,6.52-3.32,1.72-7.12,2.88-11.15,3.22-4.02,.34-8.27-.12-12.32-1.56-4.04-1.45-7.89-3.83-11.07-7.02-3.17-3.19-5.75-7.16-7.16-11.64l-.52-1.71c-.18-.57-.25-1.16-.38-1.74-.1-.58-.27-1.15-.31-1.74l-.18-1.76c-.08-.58-.08-1.17-.08-1.75,0-.58,0-1.17-.01-1.75,.05-.58,.1-1.16,.15-1.73,.06-.57,.07-1.15,.21-1.72,.74-4.54,2.52-8.79,5.03-12.38,2.51-3.58,5.72-6.53,9.29-8.57,3.56-2.06,7.41-3.29,11.17-3.77,3.76-.48,7.44-.21,10.78,.59,3.35,.82,6.29,2.26,8.88,3.82,2.56,1.63,4.67,3.54,6.36,5.48,1.69,1.95,2.96,3.94,3.93,5.79l-.08-.05c8.08,.24,12.03,.35,12.65,.37-.62,0-4.57-.07-12.66-.2h-.05l-.02-.05c-.97-1.83-2.24-3.8-3.93-5.73-1.69-1.92-3.79-3.81-6.33-5.41-2.57-1.54-5.5-2.95-8.81-3.75-3.31-.79-6.94-1.04-10.67-.56-3.72,.48-7.52,1.7-11.04,3.74-3.52,2.02-6.7,4.93-9.17,8.48-2.48,3.54-4.24,7.74-4.96,12.23-.13,.55-.14,1.13-.2,1.7-.05,.57-.1,1.14-.15,1.71,0,.57,0,1.15,.01,1.73,0,.58,0,1.16,.08,1.73l.18,1.73c.04,.58,.21,1.15,.31,1.72,.13,.57,.2,1.16,.38,1.72l.51,1.69c1.39,4.42,3.94,8.34,7.07,11.49,3.14,3.16,6.94,5.51,10.93,6.95,4,1.43,8.2,1.89,12.18,1.56,3.98-.33,7.75-1.47,11.03-3.16,3.29-1.69,6.11-3.94,8.37-6.43,.54-.65,1.07-1.29,1.59-1.92,.48-.66,.91-1.35,1.36-2.01,.89-1.32,1.58-2.71,2.19-4.08,1.19-2.75,1.86-5.49,2.18-8.04,.31-2.56,.25-4.93,.01-7.03l-.08-.69,.25,.64v.02l-.14-.03c6.11-6.21,9.14-9.3,9.59-9.76Z"/></g><g><path class="cls-20" d="M393.3,271.22c0,1.65-1.34,2.99-2.99,2.99s-2.99-1.34-2.99-2.99,1.34-2.99,2.99-2.99,2.99,1.34,2.99,2.99Z"/><path class="cls-20" d="M405.27,271.22c0,1.65-1.34,2.99-2.99,2.99s-2.99-1.34-2.99-2.99,1.34-2.99,2.99-2.99,2.99,1.34,2.99,2.99Z"/><path class="cls-20" d="M417.21,269.72c.83,1.43,.34,3.26-1.1,4.09-1.43,.83-3.26,.34-4.09-1.09s-.34-3.26,1.09-4.09,3.26-.34,4.09,1.09Z"/></g></g></g><g id="Character_3"><g><g><g><rect class="cls-2" x="311.01" y="19.32" width="227.56" height="166.36"/><path class="cls-15" d="M538.56,185.68c0-1.75-.08-65.55-.21-166.36l.21,.21c-63.85,.01-142.56,.03-227.54,.05h-.02l.26-.26c0,59.69-.02,116.27-.02,166.36l-.24-.24c134.63,.14,225.47,.23,227.56,.24-2.09,0-92.93,.1-227.56,.24h-.24v-.24c0-50.09-.02-106.67-.02-166.36v-.26h.28c84.98,.02,163.68,.03,227.54,.05h.21v.21c-.13,100.81-.21,164.61-.21,166.36Z"/></g><path class="cls-17" d="M539.33,43.53c0,.14-50.83,.26-113.52,.26s-113.53-.12-113.53-.26,50.82-.26,113.53-.26,113.52,.12,113.52,.26Z"/><path class="cls-17" d="M325.6,30.91c0,1.89-1.53,3.43-3.43,3.43s-3.43-1.53-3.43-3.43,1.53-3.43,3.43-3.43,3.43,1.53,3.43,3.43Z"/><path class="cls-17" d="M335.92,30.91c0,1.89-1.53,3.43-3.43,3.43s-3.43-1.53-3.43-3.43,1.53-3.43,3.43-3.43,3.43,1.53,3.43,3.43Z"/><path class="cls-17" d="M346.25,30.91c0,1.89-1.53,3.43-3.43,3.43s-3.43-1.53-3.43-3.43,1.53-3.43,3.43-3.43,3.43,1.53,3.43,3.43Z"/></g><g><g><path class="cls-5" d="M325.8,85.18l1.44-.91c2.64-1.68,6.13-.77,7.63,1.97,2.31,4.21,5.18,10.08,5.18,10.08l-6.06,9.6-2.03,.06c-2.21,1.41-7.36-1.43-10.85-3.55-3.49-2.12-1.77-4.25-1.77-4.25-2.19-3.01,.83-4.25,.83-4.25-1.85-2.74,.89-4.6,.89-4.6"/><g><rect class="cls-5" x="284.42" y="58.47" width="44.64" height="62.51" transform="translate(-11.41 59.33) rotate(-10.85)"/><path class="cls-20" d="M290.7,124.62s-.03-.09-.07-.27c-.04-.21-.1-.48-.18-.84-.15-.77-.38-1.88-.66-3.31-.58-2.93-1.41-7.19-2.47-12.56-2.11-10.84-5.09-26.2-8.62-44.36l-.05-.23,.23-.04c13.24-2.55,28.14-5.41,43.83-8.42h0l.26-.05,.05,.26c4.39,22.99,8.44,44.25,11.72,61.4l.04,.21-.21,.04c-13.33,2.51-24.32,4.57-31.99,6.02-3.79,.7-6.77,1.26-8.82,1.63-.99,.18-1.76,.32-2.3,.42-.52,.09-.77,.12-.77,.12,0,0,.28-.07,.81-.18,.55-.11,1.32-.27,2.33-.47,2.05-.41,5.04-1,8.84-1.75,7.63-1.49,18.56-3.62,31.82-6.21l-.17,.25c-3.3-17.15-7.39-38.4-11.81-61.38l.3,.21h0c-15.7,3-30.59,5.85-43.84,8.38l.19-.28c3.42,18.11,6.32,33.43,8.36,44.25,1.01,5.41,1.81,9.69,2.36,12.64,.27,1.46,.47,2.58,.62,3.37,.07,.37,.12,.66,.15,.87,.03,.2,.05,.3,.04,.31Z"/></g><path class="cls-20" d="M286.25,77.29c-.03-.14,7.21-1.65,16.16-3.36,8.96-1.72,16.24-2.99,16.26-2.85,.03,.14-7.21,1.65-16.16,3.36-8.95,1.72-16.23,2.99-16.26,2.85Z"/><path class="cls-20" d="M287.08,81.63c-.03-.14,7.21-1.65,16.16-3.36,8.96-1.72,16.24-2.99,16.26-2.85,.03,.14-7.21,1.65-16.16,3.36-8.95,1.72-16.23,2.99-16.26,2.85Z"/><path class="cls-20" d="M287.91,85.96c-.03-.14,7.21-1.65,16.16-3.36,8.96-1.72,16.24-2.99,16.26-2.85,.03,.14-7.21,1.65-16.16,3.36-8.95,1.72-16.23,2.99-16.26,2.85Z"/><path class="cls-20" d="M288.74,90.3c-.03-.14,7.21-1.65,16.16-3.36,8.96-1.72,16.24-2.99,16.26-2.85,.03,.14-7.21,1.65-16.16,3.36-8.95,1.72-16.23,2.99-16.26,2.85Z"/><path class="cls-20" d="M289.58,94.63c-.03-.14,7.21-1.65,16.16-3.36,8.96-1.72,16.24-2.99,16.26-2.85,.03,.14-7.21,1.65-16.16,3.36-8.95,1.72-16.23,2.99-16.26,2.85Z"/><path class="cls-20" d="M290.41,98.97c-.03-.14,7.21-1.65,16.16-3.36,8.96-1.72,16.24-2.99,16.26-2.85,.03,.14-7.21,1.65-16.16,3.36-8.95,1.72-16.23,2.99-16.26,2.85Z"/><path class="cls-20" d="M291.24,103.3c-.03-.14,7.21-1.65,16.16-3.36,8.96-1.72,16.24-2.99,16.26-2.85,.03,.14-7.21,1.65-16.16,3.36-8.95,1.72-16.23,2.99-16.26,2.85Z"/><path class="cls-20" d="M292.07,107.64c-.03-.14,7.21-1.65,16.16-3.36,8.96-1.72,16.24-2.99,16.26-2.85,.03,.14-7.21,1.65-16.16,3.36-8.95,1.72-16.23,2.99-16.26,2.85Z"/><path class="cls-20" d="M292.9,111.97c-.03-.14,7.21-1.65,16.16-3.36,8.96-1.72,16.24-2.99,16.26-2.85,.03,.14-7.21,1.65-16.16,3.36-8.95,1.72-16.23,2.99-16.26,2.85Z"/><path class="cls-20" d="M316.74,58.25s.14,.38,.31,1.09c.18,.82,.4,1.83,.66,3.01,.07,.32,.14,.66,.21,1,.07,.38,.06,.8-.06,1.2-.24,.8-.98,1.53-1.93,1.68-.94,.18-2.03-.28-2.55-1.2-.13-.23-.23-.48-.28-.74l-.14-.71c-.09-.48-.18-.96-.28-1.45-.19-.98-.37-1.93-.54-2.85-.09-.46-.17-.91-.25-1.36-.08-.43-.18-.91-.14-1.37,.07-.93,.55-1.75,1.19-2.27,.64-.52,1.42-.73,2.11-.72,1.42,.04,2.31,.95,2.65,1.59,.18,.33,.26,.61,.3,.81,.03,.19,.04,.29,.02,.3-.05,.01-.1-.41-.48-1-.37-.57-1.22-1.34-2.48-1.33-.61,.01-1.28,.22-1.83,.68-.54,.46-.94,1.17-.99,1.97-.03,.4,.06,.79,.15,1.25,.09,.44,.18,.89,.27,1.35,.18,.92,.36,1.87,.55,2.85,.09,.49,.18,.97,.28,1.45l.13,.7c.04,.21,.12,.4,.22,.59,.41,.73,1.27,1.12,2.03,.98,.77-.11,1.38-.68,1.6-1.34,.11-.33,.13-.67,.08-.99-.06-.35-.12-.68-.18-1.01-.2-1.2-.36-2.22-.5-3.05-.11-.72-.15-1.12-.11-1.13Z"/><path class="cls-5" d="M329.78,83.43c-.33,.03-13.32,2.05-13.32,2.05-.23,1.2,.47,2.89,3.53,2.94,2.9,.05,5.52-.2,5.52-.2,0,0,3.21,6.7,6.37,7.45s1.61-6.44,1.61-6.44h0l-3.71-5.8Z"/></g><g><path class="cls-20" d="M478.65,41.13c1.12-2.62,2.27-5.33,2.37-8.19,.11-2.87-1.07-5.97-3.54-7.27-2.29-1.2-5.1-.64-7.52-1.5-2.99-1.07-4.88-4.08-6.21-7.05-1.33-2.97,.52-4.05-1.73-6.35-2.98-3.05-4.92-3.49-8.69-1.63-2.71-1.92-12.14-5.41-14.86-5.49-4.03-.12-8.62,.2-11.44,3.09-2.18,2.24-3.57,5.09-6.25,6.71-3.69,2.22-8.39,.33-12.69,.49-.88,.03-1.9,.26-2.26,1.06-.31,.69,.02,1.49,.35,2.17,1.11,2.31,2.22,4.63,3.32,6.94-1.8,.84-4,.78-5.76-.14,.19,4.53,2.04,8.98,5.11,12.31-.76-.54-1.91,.02-2.29,.87-.38,.86-.21,1.85,.04,2.75,1.5,5.54,5.49,10.36,10.65,12.86,5.17,2.5,11.42,2.65,16.7,.4l23.72,1.79c.66,1.85,2.24,3.32,4.09,3.8,2.66-1.97,3.08-3.07,3.08-3.07,1.63,1.22,.35,.6,1.63,1.22,2.94,1.4,7.29-.26,7.95-3.54,.28-1.37,.66-2.68,1.58-3.62,.94-.95,2.28-1.32,3.47-1.92,1.87-.94,3.42-2.53,4.34-4.45-1.92,.02-3.83-.82-5.16-2.25Z"/><g><path class="cls-5" d="M461.86,30.96l.61,48.96c.1,8.33-1.45,20.58-14.62,20.14h0c-11.4-1.24-14.42-12.03-14.51-19.8-.04-3.69-.08-6.76-.11-7.14,0,0-12.48-1.02-13.53-13.34-.51-5.96-.56-18.31-.47-29.49,.09-12,9.4-21.92,21.37-22.79l1.19-.09c12.89-.19,20.25,10.65,20.08,23.55Z"/><path d="M433.23,73.13s7.81-.11,15.72-5.92c0,0-3.26,9.3-15.65,9.08l-.06-3.16Z"/></g><g><g><path class="cls-20" d="M440.3,35.35c.24,.25,1.67-.9,3.73-.95,2.06-.09,3.61,.96,3.82,.69,.11-.12-.15-.57-.82-1.05-.66-.47-1.78-.91-3.07-.87-1.29,.05-2.35,.56-2.96,1.08-.62,.52-.82,.99-.7,1.1Z"/><path class="cls-20" d="M439.92,39.94c.03,.88,.81,1.58,1.73,1.56,.92-.02,1.64-.75,1.61-1.63-.03-.88-.81-1.58-1.73-1.57-.92,.02-1.64,.75-1.61,1.63Z"/><path class="cls-20" d="M435.12,49.71c0-.11-1.19-.23-3.12-.33-.49-.01-.95-.08-1.06-.4-.14-.34,.02-.88,.22-1.46,.37-1.2,.76-2.47,1.16-3.79,1.6-5.39,2.73-9.81,2.51-9.88-.22-.06-1.7,4.26-3.3,9.65-.38,1.33-.75,2.6-1.1,3.81-.14,.56-.41,1.21-.11,1.92,.16,.35,.53,.59,.85,.65,.32,.07,.59,.06,.83,.05,1.93-.04,3.12-.12,3.12-.22Z"/></g><path class="cls-20" d="M441.17,27.59c.2,.46,1.85,.11,3.83,.21,1.98,.06,3.61,.54,3.84,.1,.1-.21-.21-.63-.88-1.04-.67-.41-1.71-.77-2.9-.82-1.19-.05-2.25,.22-2.94,.58-.7,.35-1.03,.75-.95,.97Z"/><path class="cls-20" d="M421.56,31.41c.22,.37,1.83-.04,3.78-.1,1.95-.1,3.57,.19,3.78-.2,.09-.19-.23-.52-.91-.82-.67-.3-1.72-.52-2.89-.48-1.17,.05-2.21,.36-2.87,.71-.67,.35-.98,.71-.89,.89Z"/></g><path class="cls-5" d="M461.52,40.17c.2-.11,8.29-3.13,8.64,5.33,.35,8.45-8.21,7.06-8.24,6.82-.02-.24-.4-12.14-.4-12.14Z"/><path d="M464.38,49.01s.15,.1,.41,.2c.25,.1,.67,.16,1.1-.02,.88-.36,1.57-1.81,1.55-3.34,0-.77-.2-1.5-.5-2.09-.28-.61-.7-1.02-1.15-1.08-.45-.09-.76,.2-.85,.44-.1,.24-.04,.41-.09,.42-.02,.02-.19-.13-.13-.49,.03-.17,.12-.37,.31-.54,.2-.17,.49-.27,.81-.25,.65,.02,1.27,.59,1.59,1.25,.36,.66,.6,1.47,.61,2.34,.02,1.71-.79,3.34-2,3.74-.59,.18-1.09,.02-1.36-.17-.27-.2-.32-.39-.29-.4Z"/><path class="cls-20" d="M437.12,55.57c-.09-.21,1.56-.71,2.73-2.26,.58-.76,.92-1.6,1.17-2.21,.25-.61,.43-1,.52-.97,.09,.03,.06,.44-.07,1.11-.14,.66-.43,1.6-1.09,2.47-.65,.88-1.52,1.4-2.16,1.65-.65,.26-1.08,.28-1.1,.21Z"/><path class="cls-20" d="M472.76,26.49c-1.76-2.98-2.17-6.54-3.13-9.87-.96-3.33-2.82-6.77-6.08-7.94l-.07,.03c-2.93-1.18-6.54-1.19-8.95,.84-.6-4.39-4.45-7.87-8.74-9-4.29-1.13-11.17-.45-15.28,1.2-3.18,1.28-6.25,3.9-9.99,7.75-1.57,1.62-3.02,3.37-4.31,5.23l-3.73,11.52c-.4,.29-.75,.65-1.05,1.05-1.48,2.02,1.29,4.56,3.17,2.9l.03-.03c.38,.65,.67,1.31,.98,1.97v.02l.07,.12c.19,.41,.39,.82,.63,1.23v-.03l2.88,12.73c.18-3.47-.07-15.54,.11-19.01,5.36-.23,10.2-2.39,13.79-6.37,1.9-2.1,3.39-4.73,5.92-5.98,3.27-1.62,7.16-.44,10.61,.76l-.15-.13c1.79,.83,3.42,2.01,4.77,3.45-.78,6.83-.06,13.83,2.08,20.36,.32,.98,1.21,3.01,2.17,3.39,1.9,.73,2.41-1.2,3.55-2.23,.84-.76,2.09-.85,3.45-.85,.8-2.11,1.63-5.66,2.32-8.77,1.15,.35,2.37,.44,3.55,.24-.36-.87-.73-1.74-1.09-2.61,.47,.3,.96,.61,1.52,.69,.55,.08,1.19-.13,1.44-.63,.32-.65-.12-1.4-.48-2.02Z"/><path class="cls-18" d="M450.65,10.97s.52,.33,1.24,1.13c.71,.8,1.51,2.2,1.89,4.09,.19,.94,.32,2,.31,3.13,0,1.14-.09,2.35-.17,3.63-.08,1.28-.17,2.64-.09,4.04,.04,.7,.13,1.42,.28,2.13,.16,.7,.34,1.46,.87,2.07,.42,.49,1.13,.71,1.74,.59,.62-.11,1.16-.44,1.57-.88,.79-.93,.99-2.1,1.19-3.14l-.26,.03c.42,.93,.86,1.85,1.5,2.58,.63,.74,1.51,1.23,2.4,1.31,.44,.04,.89-.03,1.27-.22,.39-.19,.67-.51,.86-.85,.18-.35,.28-.73,.26-1.09-.02-.37-.16-.71-.4-.96l-.13,.12c.95,1.08,1.95,1.66,2.65,1.99,.35,.16,.63,.26,.82,.32,.19,.06,.29,.08,.29,.07,0,0-.09-.05-.28-.12-.18-.08-.46-.19-.8-.36-.67-.34-1.65-.94-2.56-2.02l-.13,.12c.41,.44,.44,1.21,.08,1.83-.18,.31-.44,.59-.78,.75-.34,.17-.75,.23-1.15,.19-.82-.08-1.63-.54-2.23-1.24-.61-.7-1.03-1.6-1.44-2.53l-.18-.4-.08,.43c-.2,1.03-.41,2.16-1.13,3-.36,.4-.86,.7-1.4,.79-.54,.1-1.11-.07-1.48-.5-.46-.52-.65-1.24-.8-1.94-.15-.7-.23-1.4-.28-2.09-.08-1.38,0-2.73,.08-4.01,.08-1.28,.16-2.5,.15-3.65,0-1.15-.14-2.22-.35-3.17-.41-1.92-1.26-3.33-2.01-4.13-.76-.8-1.32-1.06-1.32-1.06Z"/><path class="cls-18" d="M412.51,22.97s.03,.03,.1,.08l.31,.22c.13,.1,.31,.22,.52,.33,.21,.12,.46,.27,.75,.39,1.15,.54,2.98,1.08,5.28,.95,2.27-.13,5-.93,7.44-2.75,2.46-1.77,4.62-4.38,6.39-7.37,.9-1.49,1.63-3.02,2.43-4.44,.8-1.41,1.68-2.72,2.75-3.75,1.06-1.04,2.29-1.8,3.55-2.16,.63-.19,1.27-.23,1.87-.22,.61,.03,1.18,.16,1.72,.33,1.06,.36,1.92,.94,2.57,1.55,.65,.61,1.09,1.25,1.39,1.81,.56,1.13,.59,1.86,.64,1.85,0,0,0-.04,0-.13-.02-.1-.03-.23-.06-.38-.06-.33-.2-.81-.47-1.39-.29-.57-.72-1.24-1.38-1.87-.65-.63-1.52-1.24-2.62-1.62-.55-.19-1.14-.32-1.77-.36-.63-.02-1.3,.02-1.95,.21-1.32,.35-2.59,1.14-3.67,2.2-1.1,1.05-2.01,2.38-2.82,3.8-.82,1.42-1.55,2.95-2.44,4.43-1.75,2.97-3.88,5.55-6.3,7.3-2.39,1.8-5.06,2.61-7.3,2.76-2.26,.16-4.07-.34-5.22-.85-1.15-.51-1.7-.97-1.73-.94Z"/><path class="cls-18" d="M411.39,17.55s.15,.13,.44,.31c.29,.19,.74,.42,1.31,.66,.57,.25,1.27,.48,2.07,.68,.8,.18,1.7,.32,2.65,.35,.95,.03,1.86-.05,2.67-.18,.81-.14,1.53-.33,2.11-.55,.58-.21,1.05-.41,1.35-.58,.31-.16,.47-.26,.46-.28-.02-.05-.7,.3-1.87,.67-.58,.19-1.29,.35-2.09,.48-.8,.11-1.69,.18-2.62,.16-.93-.04-1.81-.16-2.6-.32-.79-.18-1.49-.39-2.06-.61-1.14-.44-1.8-.83-1.83-.78Z"/><path class="cls-20" d="M421.47,36.13c.25,.25,1.67-.9,3.73-.95,2.06-.09,3.61,.96,3.82,.69,.11-.12-.15-.57-.82-1.05-.66-.47-1.78-.91-3.07-.87-1.29,.05-2.35,.56-2.96,1.08-.62,.52-.82,.99-.7,1.1Z"/><path class="cls-20" d="M422.64,40.22c.03,.88,.81,1.58,1.73,1.56,.92-.02,1.64-.75,1.61-1.63-.03-.88-.81-1.58-1.73-1.57-.92,.02-1.64,.75-1.61,1.63Z"/></g><g><path class="cls-10" d="M413.27,86.01l-44.6,29.19-27.17-21.19-8.47,13.41s15.82,18.31,21.69,24.53c5.86,6.22,9.77,9.54,14.39,8.94,4.62-.59,43.24-15.59,43.24-15.59l5.85-40.94-2.45,.59c-.88,.21-1.72,.58-2.48,1.07Z"/><path class="cls-10" d="M463.05,76.04c-9.98,6.27-20.03,8.63-30.22,4.57l-15.31,3.91-7.44,12.94c-1.17,2.03-1.7,4.37-1.53,6.71l2.92,49.53-9.02,31.46,88.32,.77-4.35-23.37-10.95-83.98-12.42-2.53Z"/><g><path class="cls-10" d="M476.55,116.26l-2.76-37.92s20.79,1.93,27.67,16.59c5.8,12.36,23.19,48.29,24.91,53.37,5.03,14.93-4.22,36.7-36.59,35.52l-3.69-20.29-9.53-47.27Z"/><path class="cls-20" d="M493.15,147.83s.16,.58,.52,1.49c.36,.91,.89,2.15,1.49,3.5l1.56,3.47c.4,.89,.65,1.44,.68,1.42,.03-.01-.16-.58-.52-1.49-.36-.91-.89-2.15-1.5-3.5-.59-1.32-1.13-2.51-1.56-3.47-.4-.89-.65-1.44-.68-1.42Z"/><path class="cls-20" d="M481.65,117.99c.07,0,.12-2.4,.12-5.37s-.06-5.37-.12-5.37-.12,2.4-.12,5.37,.06,5.37,.12,5.37Z"/><path class="cls-20" d="M484.71,101.84s.08-.21,.19-.6c.1-.39,.27-.95,.49-1.63,.45-1.36,1.2-3.21,2.31-5.1,1.11-1.89,2.36-3.44,3.34-4.5,.49-.53,.89-.95,1.18-1.22,.29-.28,.44-.44,.43-.46-.01-.01-.19,.12-.5,.39-.31,.26-.74,.66-1.25,1.17-1.01,1.03-2.3,2.59-3.43,4.49-1.12,1.91-1.86,3.79-2.26,5.18-.21,.69-.35,1.26-.42,1.66-.08,.4-.11,.62-.1,.62Z"/></g><path class="cls-20" d="M411.37,99.49s.08,.44,.12,1.24c.05,.8,.06,1.96,.04,3.39-.04,2.86-.33,6.8-.68,11.14-.35,4.34-.52,8.27-.44,11.12,.03,1.42,.08,2.57,.15,3.37,.05,.79,.07,1.24,.03,1.24-.04,0-.12-.43-.23-1.22-.13-.79-.23-1.95-.31-3.37-.17-2.86-.06-6.82,.29-11.17,.35-4.34,.7-8.27,.83-11.11,.07-1.42,.11-2.58,.13-3.37,.02-.8,.05-1.24,.08-1.24Z"/><path class="cls-20" d="M506.4,154.8s-.5,.31-1.42,.8c-.93,.49-2.25,1.22-3.86,2.19-1.61,.96-3.51,2.15-5.72,3.29-1.11,.57-2.28,1.14-3.53,1.68-1.25,.52-2.54,1.05-3.87,1.6-.41,.17-.81,.33-1.19,.49l.16-.28c.85,5.37,1.58,10.18,2.09,13.64,.23,1.67,.42,3.05,.57,4.1,.12,.97,.17,1.5,.14,1.51-.03,0-.15-.52-.33-1.48-.19-1.05-.43-2.42-.73-4.08-.6-3.45-1.39-8.25-2.25-13.62l-.03-.2,.19-.08c.38-.15,.78-.32,1.19-.49,1.32-.54,2.61-1.07,3.86-1.58,1.24-.53,2.41-1.08,3.51-1.64,2.21-1.11,4.12-2.26,5.76-3.18,1.64-.92,3-1.61,3.95-2.05,.48-.22,.85-.38,1.11-.48,.26-.1,.4-.15,.4-.13Z"/><path class="cls-20" d="M511.11,148.3c.02,.09-1.05,.29-2.67,.89-1.62,.6-3.77,1.68-5.8,3.35-2.03,1.68-3.5,3.59-4.39,5.06-.9,1.48-1.3,2.48-1.39,2.45-.03-.01,.04-.27,.2-.74,.15-.47,.45-1.12,.86-1.89,.83-1.55,2.3-3.55,4.38-5.28,2.09-1.72,4.33-2.78,6.01-3.3,.84-.26,1.54-.42,2.02-.49,.49-.07,.76-.09,.76-.06Z"/></g><g><g><path class="cls-19" d="M477.46,185.52l21.7-52.36c.99-2.39-.25-4.33-2.77-4.33h-4.37c-1.78,0-3-.98-3.11-2.51l-.14-1.93c-.12-1.53-1.33-2.51-3.12-2.51h-20.75c-1.62,0-3.44,.81-4.8,2.13l-1.68,1.63c-1.36,1.32-3.18,2.13-4.8,2.13h-26.42c-2.52,0-5.35,1.94-6.31,4.33l-21.51,53.43h78.09Z"/><path class="cls-17" d="M481.05,167.74l8.18-31.64c.54-2.08-.83-4.17-2.72-4.17h-64.15c-1.27,0-2.38,.96-2.73,2.36l-11.91,47.63c-.52,2.09,.31,3.35,2.21,3.32l64.55,.02c1.25-.02,2.34-.96,2.7-2.34l3.88-15.17Z"/><g><path class="cls-1" d="M476.62,184.09l3.49-49.83c.12-1.77-1.28-3.27-3.05-3.27h-66.47v53.1h66.03Z"/><path class="cls-8" d="M477.36,185.23l-7.91-51.37c-.36-1.67-1.87-2.87-3.61-2.87h-67.24c-2.66,0-4.45,2.67-3.39,5.06l14.52,47.01,67.64,2.16Z"/></g><path class="cls-13" d="M477.46,185.49l-16.31-48.11c-.68-2-2.5-3.34-4.54-3.34h-69.32c-2.23,0-3.81,2.29-3.1,4.49l15.17,46.99,78.09-.02Z"/></g><g class="cls-23"><path d="M443.95,177.44s2.62,.12,3.82,.2c5.75,.39,11.58-.64,16.84-2.99,1.63-.73,3.36-1.75,3.85-3.47,.55-1.92-.69-3.92-2.21-5.23-1.52-1.3-3.36-2.23-4.68-3.73-1.32-1.5-1.94-3.94-.64-5.46l.36,.26c.94,2.38,3.55,3.52,5.71,4.88,4.02,2.52,7.08,6.53,8.46,11.06,.76,2.49,.96,5.4-.55,7.52-1.07,1.51-2.83,2.36-4.56,3-5.24,1.94-10.85,2.02-16.44,2.02-1.77,0-7.19-.07-7.19-.07-1.71-.46-2.27-1.35-3.29-2.79-.94-1.32-.74-4.18,.51-5.22Z"/></g><g><path class="cls-9" d="M443.95,177.44l18.08-2.72,7.02-4.04c.93-.53,1.56-1.48,1.61-2.55v-.06c.06-1.33-.76-2.54-1.98-3.06-2.23-.94-5.75-2.19-7.26-4.82-2.16-3.79,0-4.57,0-4.57l15.1,6.04,10.69,7.27,2.15,12.13-14.91,4.87s-16.62,.94-21.2,.42c-4.59-.51-4.59-2.65-4.59-2.65-.85-.27-2.57-1.78-2.57-3.19-2.22-2.09-2.13-3.07-2.13-3.07"/><path class="cls-3" d="M467.07,182.66s-.27,.03-.74,.14c-.47,.11-1.16,.27-2.01,.44-1.7,.34-4.08,.7-6.73,.8-2.65,.1-5.04-.07-6.77-.28-.86-.1-1.56-.2-2.04-.28-.48-.07-.75-.1-.75-.08,0,.02,.26,.09,.73,.2,.47,.11,1.17,.25,2.03,.38,1.73,.26,4.14,.47,6.81,.37,2.67-.11,5.06-.5,6.76-.9,.85-.2,1.53-.38,2-.53,.47-.15,.72-.24,.71-.26Z"/><path class="cls-3" d="M465.42,179.86s-.28,.03-.76,.14c-.48,.12-1.18,.27-2.04,.43-1.73,.34-4.15,.67-6.83,.76-2.69,.08-5.12-.1-6.87-.32-.88-.11-1.58-.21-2.07-.28-.49-.08-.76-.11-.76-.09,0,.02,.26,.09,.74,.2,.48,.12,1.19,.25,2.06,.38,1.75,.27,4.2,.49,6.91,.41,2.71-.09,5.14-.46,6.87-.85,.86-.19,1.56-.38,2.03-.53,.47-.15,.73-.24,.73-.26Z"/></g></g></g></g></g><g id="Character_2"><g><g><g><rect class="cls-2" x="123.8" y="267.92" width="227.56" height="169"/><path class="cls-20" d="M351.35,436.92c0-1.76-.08-66.7-.21-169l.21,.21c-64.08,.01-142.7,.03-227.54,.05h-.02l.26-.26c0,60.71-.02,118.23-.02,169l-.24-.24c134.73,.14,225.48,.23,227.56,.24-2.08,0-92.82,.1-227.56,.24h-.24v-.24c0-50.78-.02-108.29-.03-169v-.26h.28c84.84,.02,163.46,.03,227.54,.05h.21v.21c-.13,102.3-.21,167.24-.21,169Z"/></g><path class="cls-17" d="M351.35,290.38c0,.14-50.95,.26-113.79,.26s-113.8-.12-113.8-.26,50.94-.26,113.8-.26,113.79,.12,113.79,.26Z"/><circle class="cls-17" cx="133.43" cy="278.04" r="3.35"/><circle class="cls-17" cx="143.52" cy="278.04" r="3.35"/><circle class="cls-17" cx="153.61" cy="278.04" r="3.35"/></g><g><path class="cls-6" d="M326.3,402.91s5.55-7.26,8.16-7.55c2.61-.29,18.95,.29,21.25,0,2.3-.29,15.22-5.74,15.22-5.74,0,0,2.3,.77,2.01,2.83-.29,2.05-14.65,9.81-16.37,10.09-1.72,.29-15.51,1.3-15.51,1.3l-3.46,6.25-11.3-7.18Z"/><g><path class="cls-20" d="M278.72,311.39c2.8-1.25,4.83-4.09,5.11-7.14,.28-3.06-1.19-6.21-3.72-7.95l-10.08-3.39c-1.46,13.01-3,26.01-4.64,39.01,2.71-.14,5.51-.59,7.74-2.14,2.23-1.55,3.7-4.45,2.87-7.03,2.2-.74,3.96-2.66,4.5-4.92,.54-2.26-.15-4.77-1.77-6.42Z"/><g><g><path class="cls-6" d="M229.29,303.76l.38-4.63,28.31-2.45c8.65-.03,17.04,9.5,16.7,18.14-.37,9.61-1.21,21.32-3.07,28.33-3.74,14.09-14.9,14.79-14.9,14.79l-1,14.2c-.75,8.28-7.9,9.39-16.17,8.65h0c-8.09-.72-14.15-7.73-13.69-15.85l3.44-61.19Z"/><g><path class="cls-20" d="M270.19,325.01c-.06,.97-.94,1.72-1.96,1.67-1.02-.05-1.79-.88-1.72-1.85,.06-.97,.94-1.72,1.96-1.67,1.02,.05,1.79,.88,1.73,1.85Z"/><path class="cls-20" d="M271.03,320.6c-.25,.22-1.54-.96-3.52-1.15-1.97-.22-3.53,.64-3.72,.38-.09-.12,.18-.53,.86-.92,.67-.39,1.77-.73,3.01-.6,1.23,.13,2.22,.69,2.77,1.22,.56,.53,.72,.98,.6,1.08Z"/></g><g><path class="cls-20" d="M251.73,323.85c-.06,.97-.94,1.72-1.96,1.67-1.02-.05-1.79-.88-1.72-1.85,.06-.97,.94-1.72,1.96-1.67,1.02,.05,1.79,.88,1.73,1.85Z"/><path class="cls-20" d="M251.56,318.98c-.25,.22-1.54-.96-3.52-1.15-1.97-.22-3.53,.64-3.72,.38-.09-.12,.18-.53,.86-.92,.67-.39,1.77-.73,3-.6,1.23,.13,2.22,.69,2.77,1.22,.56,.53,.72,.98,.6,1.08Z"/></g><path class="cls-20" d="M257.24,334.38c0-.11,1.25-.2,3.27-.25,.51,0,1-.05,1.12-.39,.16-.35,0-.92-.18-1.53-.35-1.27-.72-2.6-1.1-4-1.51-5.68-2.56-10.34-2.33-10.4,.23-.06,1.64,4.5,3.16,10.18,.36,1.4,.71,2.74,1.03,4.01,.13,.59,.39,1.28,.06,2.01-.17,.36-.57,.6-.91,.65-.33,.07-.62,.04-.87,.03-2.01-.1-3.26-.21-3.25-.33Z"/><path d="M256.7,357.99s-10.19-.44-19.15-7.15c0,0,3.81,10.52,18.77,10.72l.37-3.57Z"/></g><path class="cls-20" d="M252.57,313.45c-.25,.52-2.2,.06-4.55,.1-2.35,0-4.29,.48-4.55-.03-.11-.24,.26-.72,1.07-1.16,.8-.44,2.05-.81,3.46-.83,1.41-.01,2.66,.34,3.47,.77,.82,.43,1.2,.9,1.09,1.14Z"/><path class="cls-20" d="M271.66,313.81c-.39,.41-1.71-.19-3.34-.38-1.63-.25-3.05,0-3.33-.51-.12-.24,.15-.67,.8-1.03,.64-.36,1.67-.61,2.8-.46,1.12,.15,2.05,.66,2.58,1.17,.53,.52,.67,1,.5,1.21Z"/></g><path class="cls-20" d="M281.02,302.51c3.08-1.66,4.84-5.36,4.4-8.83-.44-3.47-2.94-6.54-6.17-7.89-.66-.27-1.34-.46-2.04-.6-1.27-.93-2.76-1.54-4.32-1.73-.03-1.87-1.53-3.47-3.28-4.13-1.74-.67-3.68-.58-5.53-.35-1.6-2.46-4.41-4.1-7.34-4.27-2.93-.17-5.91,1.13-7.78,3.39-1.91-1.42-4.51-1.87-6.79-1.18s-4.19,2.5-5.01,4.74c-2.08-.16-4.2,.59-5.73,2.01-.57,.53-1.06,1.16-1.44,1.84-.73,.77-1.31,1.68-1.65,2.69-3.51,.03-6.89,2.42-8.07,5.72-1.19,3.31-.11,7.3,2.58,9.56-1.91,1.53-3.04,3.99-2.96,6.44,.09,2.45,1.38,4.83,3.4,6.22-1.1,2.5-1.11,5.45-.03,7.96,.47,1.08,1.24,2.14,2.28,2.6,.03,.19,.08,.38,.17,.56,.72,1.43,2.89,1.06,4.23,.2,3.27-2.1,5.28-5.71,6.53-9.39,1.24-3.68,1.85-7.55,3.06-11.25,.03-.08,.06-.17,.09-.26,.51-1.55,1.37-2.93,2.49-4.08,1.04,.89,2.05,1.82,3.21,2.55,4.12,2.6,9.97,2.05,13.54-1.28,2.7,2.78,6.39,4.57,10.24,4.97,3.85,.4,7.74,.07,10.95-2.1,.61-.41,1.46-1.16,1.92-2.24,.29-.67-.29-1.61-.97-1.89Z"/><path class="cls-6" d="M229.66,322.94c-.18-.12-7.39-3.73-8.56,4.08-1.17,7.82,6.92,7.37,6.97,7.15,.05-.22,1.59-11.24,1.59-11.24Z"/><path d="M226.13,330.85s-.15,.08-.4,.15c-.24,.07-.64,.08-1.02-.13-.78-.43-1.28-1.84-1.11-3.26,.09-.71,.34-1.37,.67-1.89,.32-.54,.75-.88,1.18-.89,.43-.03,.69,.26,.75,.49,.07,.23,0,.38,.04,.4,.02,.02,.19-.11,.17-.44,0-.16-.07-.36-.23-.54-.17-.18-.43-.3-.72-.31-.61-.05-1.23,.43-1.6,1-.4,.57-.7,1.31-.8,2.11-.18,1.58,.4,3.18,1.48,3.67,.53,.23,1.01,.13,1.28-.02,.27-.16,.34-.33,.31-.34Z"/><path class="cls-18" d="M285.15,292.34s.02,.06,.05,.19c.03,.13,.05,.32,.07,.58,.03,.51,0,1.28-.3,2.21-.3,.92-.91,2.01-2.01,2.85-1.08,.84-2.66,1.42-4.39,1.25l.15-.11c-.61,2.21-1.95,4.56-4.05,6.44-1.05,.93-2.31,1.74-3.76,2.2-1.44,.49-3.06,.47-4.59,.14-1.52-.32-2.94-.9-4.23-1.61-1.28-.72-2.47-1.54-3.36-2.61l.24,.03c-2.23,1.64-4.69,2.67-7,2.88-2.33,.17-4.34-.45-5.84-1.19-1.51-.76-2.53-1.66-3.16-2.31-.32-.33-.55-.6-.69-.78-.15-.19-.22-.29-.21-.29,.02-.02,.33,.37,.98,1,.65,.62,1.68,1.48,3.18,2.2,1.48,.71,3.47,1.29,5.72,1.09,2.24-.22,4.65-1.25,6.82-2.86l.13-.1,.11,.13c.85,1,2.02,1.82,3.27,2.51,1.26,.69,2.65,1.26,4.13,1.57,1.49,.32,3.03,.34,4.41-.12,1.39-.43,2.61-1.22,3.64-2.11,2.06-1.82,3.39-4.11,4-6.26l.03-.12h.12c1.64,.2,3.16-.34,4.22-1.13,1.07-.79,1.68-1.84,2-2.72,.32-.9,.37-1.65,.37-2.16,0-.51-.05-.77-.03-.78Z"/><path class="cls-18" d="M229.52,287.9c.05,.03-.55,.89-1.03,2.6-.47,1.68-.74,4.33,.38,7.13l.05,.12-.11,.07c-1,.67-1.9,1.68-2.49,2.92-.58,1.24-.84,2.71-.58,4.16,.33,1.91,1.43,3.58,2.81,4.59l.13,.1-.09,.14c-1.03,1.52-1.49,3.24-1.53,4.77-.07,1.54,.24,2.89,.65,3.94,.83,2.12,1.95,3.01,1.87,3.06,0,0-.07-.05-.19-.16-.11-.12-.3-.28-.49-.52-.41-.47-.94-1.23-1.39-2.3-.44-1.06-.79-2.45-.74-4.03,.02-1.58,.48-3.36,1.54-4.96l.04,.24c-1.46-1.05-2.61-2.79-2.96-4.8-.27-1.53,0-3.08,.62-4.37,.62-1.29,1.56-2.34,2.62-3.04l-.06,.19c-1.12-2.9-.79-5.61-.26-7.31,.27-.86,.58-1.5,.81-1.93,.11-.21,.22-.37,.29-.47,.07-.1,.11-.16,.12-.15Z"/><path class="cls-20" d="M223.95,333.35c.06,.03-.28,.51-.34,1.39-.02,.42,.06,.96,.39,1.4,.33,.43,.94,.75,1.55,.67,.62-.08,1.02-.63,1.15-1.16,.14-.54,.05-1.07-.08-1.49-.28-.84-.56-1.34-.5-1.37,.03-.02,.38,.42,.74,1.29,.16,.43,.3,1.01,.16,1.64-.07,.31-.2,.64-.45,.91-.23,.27-.59,.48-.97,.53-.78,.1-1.48-.3-1.86-.82-.39-.54-.43-1.15-.38-1.62,.13-.95,.58-1.39,.59-1.36Z"/><g><path d="M252.1,336.72c-.88,.76-1.37,1.96-1.25,3.12,.11,1.16,.82,2.24,1.84,2.81,.4,.23,.87,.38,1.33,.31,.81-.12,1.36-.87,1.82-1.55,.38-.57,.76-1.13,1.14-1.7,.13-.19,.26-.41,.21-.63-.06-.24-.3-.38-.53-.48-1.46-.7-2.91-1.4-4.37-2.09"/><path class="cls-20" d="M253.97,342.7s-.84-.03-2.04-.71c-.58-.35-1.24-.96-1.51-1.88-.15-.45-.13-1.02,.02-1.48,.14-.48,.36-.96,.68-1.39,.31-.42,.7-.76,1.12-1.01l.14-.09,.14,.09c2.82,1.73,5.08,2.78,5.03,2.9-.05,.13-2.44-.73-5.32-2.43h.29c-.36,.22-.69,.52-.96,.88-.53,.75-.87,1.67-.65,2.4,.2,.76,.73,1.33,1.23,1.69,1.04,.71,1.86,.94,1.81,1.04Z"/></g></g><g><path class="cls-22" d="M149.39,436.98s28.45-51,33.18-59.25c5.57-9.7,10.42-13.22,14.79-15.34,4.57-2.21,9.63-3.26,14.71-3.29l14.11-.1s5.36,8.02,12.63,9.59c10.02,2.17,17.52-5.27,17.52-5.27l20.26,8.31-4.07,37.45c-1.03,9.44-4.47,18.45-10,26.16l-1.34,1.74-74.7-.06,8.66-26.95-16.01,27.01h-29.75Z"/><path class="cls-22" d="M276.6,371.62s5.89,3.45,10.33,17.79c4.44,14.34,14.01,39.85,14.01,39.85l23.99-27.23,14.24,9.04s-22.97,39.88-26.62,44.6c-5.44,7.04-19.19,11.06-27.26,1.71-5.87-6.8-19.89-39.7-19.89-39.7l11.21-46.06Z"/><path class="cls-20" d="M267.96,392.41s.09,.14,.22,.43c.13,.29,.33,.71,.54,1.27,.44,1.12,1,2.77,1.52,4.85,1.05,4.16,1.75,10.18,.76,16.7-.99,6.52-3.45,12.07-5.69,15.73-1.12,1.84-2.14,3.25-2.9,4.18-.37,.48-.68,.82-.89,1.06-.21,.24-.33,.35-.34,.34-.03-.03,.37-.55,1.07-1.52,.7-.97,1.67-2.4,2.74-4.25,2.14-3.67,4.51-9.17,5.49-15.62,.98-6.44,.35-12.4-.6-16.54-.47-2.08-.97-3.74-1.36-4.87-.38-1.13-.61-1.76-.57-1.77Z"/><path class="cls-20" d="M199.8,387.83s0,.18-.04,.52c-.05,.4-.12,.89-.2,1.48-.18,1.28-.49,3.14-.91,5.42-.84,4.56-2.19,10.83-4.07,17.66-1.88,6.83-3.93,12.91-5.55,17.26-.81,2.17-1.49,3.92-1.99,5.12-.23,.55-.43,1.01-.58,1.37-.14,.31-.22,.47-.24,.47-.02,0,.03-.18,.14-.5,.13-.38,.3-.84,.49-1.41,.46-1.29,1.08-3.04,1.83-5.17,1.53-4.37,3.51-10.46,5.39-17.27,1.87-6.81,3.28-13.06,4.21-17.59,.44-2.21,.8-4.03,1.07-5.38,.12-.59,.22-1.07,.3-1.46,.07-.33,.12-.51,.14-.5Z"/></g><g><path class="cls-5" d="M164.07,436.93s2.72-3.69,4.05-4.39c1.34-.7,3.18-.68,3.99,.05l.81,.73s4.22-1.89,6.24-.44c0,0,4.01-1.9,5.93,.27,0,0,3.09-2.01,4.4-.25,1.31,1.75,1.17,4.72,.54,6.25-.63,1.53-1.82,6.73-2.74,6.82,0,0-2.47,.26-2.79-1.07-.33-1.33-.47-1.97-.47-1.97,0,0-.94,4.71-2.08,4.95-1.13,.23-3.3,.11-3.37-1.96,0,0-1.05,1.56-2.08,1.11-1.03-.46-2.3-1.21-2.19-2.49,.11-1.28,.13-2.56,.13-2.56,0,0-.56,1.86-1.49,1.46-.93-.4-1.87-.32-2.39-1.9-.52-1.58-1.82-4.59-1.82-4.59h-4.67Z"/><path d="M174.37,441.87c-.06-.03,.19-.51,.4-1.33,.22-.82,.37-2,.14-3.27-.23-1.27-.8-2.32-1.3-3-.5-.69-.9-1.05-.85-1.1,.03-.04,.5,.25,1.08,.92,.58,.66,1.22,1.76,1.47,3.1,.25,1.35,.04,2.6-.26,3.43-.3,.84-.64,1.27-.68,1.25Z"/><path d="M179.43,432.9s.31,.68,.54,1.86c.23,1.17,.4,2.83,.28,4.66-.13,1.83-.51,3.45-.9,4.58-.39,1.13-.74,1.79-.78,1.77-.13-.04,1.06-2.77,1.28-6.38,.26-3.6-.55-6.47-.41-6.49Z"/><path d="M185.19,433.21c.1-.01,.38,2.23,.06,4.99-.31,2.76-1.09,4.88-1.19,4.84-.12-.03,.48-2.18,.78-4.89,.32-2.71,.22-4.93,.35-4.94Z"/></g><g><path class="cls-12" d="M355.33,351.33h32.08c0,17.6-14.48,32.08-32.08,32.08s-32.08-14.48-32.08-32.08,14.44-32.04,32.02-32.08l.06,32.08Z"/><path class="cls-12" d="M361.03,346.18l-.1-32.08h.1c17.53,0,31.98,14.37,32.08,31.89l-32.08,.18Z"/></g></g></g></g><g id="Speech_Bubble1"><g><g><path class="cls-8" d="M207.75,337.97l-6.25-11.01c2.76-4.49,4.36-9.77,4.36-15.42,0-16.26-13.18-29.45-29.45-29.45s-29.45,13.18-29.45,29.45,13.18,29.45,29.45,29.45c6.79,0,13.04-2.3,18.02-6.17h-.01l13.32,3.15Z"/><path class="cls-20" d="M207.75,337.97c-.63-.14-4.85-1.11-13.34-3.05l-.14-.03,.09-.11h0l.13,.11c-1.68,1.3-3.69,2.58-6.06,3.65-2.37,1.05-5.08,1.91-8.08,2.31-1.5,.19-3.06,.31-4.66,.24-.8-.05-1.62-.06-2.44-.13-.82-.12-1.65-.25-2.49-.38-3.34-.66-6.75-1.92-9.93-3.9-3.18-1.97-6.12-4.64-8.48-7.92-2.36-3.28-4.14-7.16-4.98-11.38-.83-4.22-.76-8.73,.35-13.1,1.11-4.36,3.2-8.61,6.31-12.11l1.2-1.32c.4-.45,.87-.81,1.3-1.22,.45-.39,.85-.82,1.34-1.16l1.41-1.06c.46-.37,.96-.67,1.46-.97,.5-.3,1-.61,1.49-.91,.52-.25,1.04-.51,1.56-.76,.52-.24,1.03-.53,1.58-.7,4.28-1.7,8.84-2.35,13.2-2.03,4.36,.31,8.54,1.57,12.12,3.58,3.59,2,6.62,4.67,8.96,7.65,2.35,2.98,4,6.28,5.02,9.55,1.02,3.29,1.29,6.56,1.28,9.58-.09,3.03-.64,5.82-1.44,8.27-.81,2.45-1.86,4.56-2.95,6.34v-.09c3.94,7.06,5.87,10.51,6.17,11.05-.31-.54-2.28-3.96-6.32-10.97l-.03-.04,.03-.04c1.07-1.77,2.11-3.87,2.9-6.31,.79-2.44,1.32-5.21,1.4-8.21,0-3-.28-6.23-1.3-9.49-1.02-3.24-2.67-6.5-4.99-9.44-2.32-2.95-5.32-5.58-8.88-7.55-3.54-1.99-7.67-3.22-11.98-3.52-4.31-.31-8.82,.33-13.04,2.01-.54,.17-1.04,.46-1.56,.69-.51,.25-1.03,.5-1.55,.75-.49,.3-.98,.6-1.48,.9-.5,.3-.99,.59-1.45,.96l-1.4,1.04c-.48,.34-.88,.77-1.32,1.15-.42,.4-.89,.77-1.28,1.21l-1.19,1.31c-3.08,3.46-5.14,7.66-6.24,11.96-1.1,4.32-1.17,8.78-.35,12.95,.82,4.17,2.58,8.01,4.91,11.25,2.33,3.25,5.23,5.9,8.38,7.85,3.14,1.96,6.51,3.22,9.82,3.88,.83,.13,1.65,.26,2.46,.38,.82,.07,1.63,.09,2.42,.14,1.59,.08,3.14-.03,4.62-.22,2.97-.38,5.67-1.22,8.02-2.25,2.35-1.05,4.36-2.31,6.04-3.59l.55-.42-.42,.55h0l-.05-.13c8.47,2.05,12.67,3.07,13.3,3.23Z"/></g><g><path class="cls-20" d="M168.12,311.53c0,1.65-1.34,2.99-2.99,2.99s-2.99-1.34-2.99-2.99,1.34-2.99,2.99-2.99,2.99,1.34,2.99,2.99Z"/><path class="cls-20" d="M180.09,311.53c0,1.65-1.34,2.99-2.99,2.99s-2.99-1.34-2.99-2.99,1.34-2.99,2.99-2.99,2.99,1.34,2.99,2.99Z"/><path class="cls-20" d="M192.03,310.04c.83,1.43,.34,3.26-1.09,4.09-1.43,.83-3.26,.34-4.09-1.09s-.34-3.26,1.09-4.09c1.43-.83,3.26-.34,4.09,1.09Z"/></g></g></g><g id="Character_1"><path class="cls-9" d="M174.11,144.77s5.36,1.71,8.62,7.49c3.24,5.73,2.37,8.57,1.53,11.95-.85,3.39-2.34,10.11-2.42,9.68-.08-.43-7.73-29.13-7.73-29.13Z"/><g><g><g><rect class="cls-14" x="37.64" y="74.9" width="232.89" height="172.96"/><path class="cls-20" d="M270.53,247.86c0-1.76-.08-68.26-.21-172.96l.21,.21c-65.58,.01-146.04,.03-232.87,.05h-.02l.26-.26c0,62.13-.02,121-.03,172.96l-.24-.24c137.89,.14,230.81,.23,232.89,.24-2.08,0-94.99,.1-232.89,.24h-.24v-.24c0-51.97-.02-110.83-.02-172.96v-.26h.28c86.83,.02,167.29,.03,232.87,.05h.21v.21c-.13,104.71-.21,171.2-.21,172.96Z"/></g><path class="cls-17" d="M270.14,99.08c0,.14-51.62,.26-115.29,.26s-115.3-.12-115.3-.26,51.61-.26,115.3-.26,115.29,.12,115.29,.26Z"/><path class="cls-17" d="M52.87,86.46c0,1.89-1.53,3.43-3.43,3.43s-3.43-1.53-3.43-3.43,1.53-3.43,3.43-3.43,3.43,1.53,3.43,3.43Z"/><path class="cls-17" d="M63.2,86.46c0,1.89-1.53,3.43-3.43,3.43s-3.43-1.53-3.43-3.43,1.53-3.43,3.43-3.43,3.43,1.53,3.43,3.43Z"/><path class="cls-17" d="M73.52,86.46c0,1.89-1.53,3.43-3.43,3.43s-3.43-1.53-3.43-3.43,1.53-3.43,3.43-3.43,3.43,1.53,3.43,3.43Z"/></g><g><g><path class="cls-20" d="M166.52,71.04c-.78-2.82-2.31-5.58-4.83-7.05-1.2-.7-2.56-1.07-3.78-1.74-1.47-.8-2.68-1.99-4.06-2.95-3.38-2.34-7.79-3.14-11.78-2.13-3.99,1.01-7.49,3.81-9.35,7.48-2.84-2.16-7.76-1.25-11.12-.04-3.36,1.21-6.17,5.21-6.98,8.69l15.76,4.77c3.15,3.44,6.66,6.64,10.77,8.86,4.11,2.22,8.88,3.42,13.5,2.73,4.62-.7,9.02-3.46,11.11-7.64,1.68-3.36,1.76-7.37,.76-10.99Z"/><path class="cls-20" d="M177.7,123.19c4.01-2.8,4.97-9.09,1.98-12.96-.89-1.15-2.1-2.19-2.3-3.63-.12-.89,.17-1.77,.38-2.64,1.42-5.78-.94-12.3-5.72-15.84-.08-3.23-1.89-10.06-5.99-12.67l-18.62,2.62c.85,19.61,.79,39.26-.17,58.87-.15,3.01-.26,6.24,1.39,8.76,2.33,3.57,7.19,4.32,11.46,4.43,4.08,.1,8.24-.07,12.09-1.42s7.39-4.02,9.01-7.77c2.48-5.77-.08-12.47-3.5-17.74Z"/><path class="cls-5" d="M120.91,83.52l-.56-4.17,24.57-7.67c7.65-1.71,16.92,5.09,18.31,12.81,1.54,8.58,3.08,19.11,2.79,25.67-.57,13.2-10.31,15.99-10.31,15.99l1,7.82c1.01,7.92-4.59,15.15-12.51,16.17h0c-7.9,1.01-15.12-4.56-16.16-12.45l-7.13-54.16Z"/><path class="cls-20" d="M161.54,94.19c.13,.87-.5,1.71-1.41,1.86-.91,.15-1.75-.43-1.89-1.3-.13-.87,.5-1.71,1.41-1.86,.91-.15,1.76,.43,1.89,1.3Z"/><path class="cls-20" d="M161.12,90.31c-.18,.24-1.55-.55-3.34-.34-1.79,.18-3,1.26-3.21,1.06-.11-.09,.06-.5,.58-.98,.52-.48,1.43-.99,2.54-1.12,1.11-.12,2.1,.18,2.69,.54,.6,.36,.83,.73,.74,.84Z"/><path class="cls-20" d="M144.84,96.46c.13,.87-.5,1.71-1.41,1.86-.91,.15-1.75-.43-1.89-1.3-.13-.87,.5-1.71,1.41-1.86,.91-.15,1.76,.43,1.89,1.3Z"/><path class="cls-20" d="M143.57,92.66c-.18,.24-1.55-.55-3.34-.34-1.79,.18-3,1.26-3.22,1.06-.11-.09,.06-.5,.58-.98,.51-.48,1.43-.99,2.54-1.12,1.11-.12,2.1,.18,2.69,.54,.6,.36,.83,.73,.74,.84Z"/><path class="cls-20" d="M151.59,105.18c-.02-.1,1.07-.42,2.84-.86,.45-.1,.87-.24,.91-.56,.07-.34-.18-.81-.46-1.32-.56-1.06-1.14-2.16-1.75-3.32-2.45-4.74-4.27-8.65-4.08-8.75,.19-.1,2.33,3.66,4.77,8.4,.59,1.17,1.16,2.28,1.7,3.35,.23,.5,.6,1.05,.44,1.77-.08,.36-.39,.64-.67,.75-.28,.12-.54,.16-.76,.2-1.8,.31-2.93,.44-2.94,.34Z"/><path d="M155.71,126.18s-9.1,1.59-18.33-2.61c0,0,5.42,8.57,18.7,5.84l-.36-3.23Z"/><path class="cls-16" d="M151.33,109.58c-.74-.78-1.92-1.11-3.03-.86-.77,.17-1.51,.64-1.91,1.32-.4,.69-.39,1.59,.1,2.15,.56,.62,1.59,.66,2.41,.32,.83-.34,1.5-.99,2.13-1.63,.18-.18,.35-.36,.45-.59,.1-.23,.09-.51-.08-.67"/><path class="cls-20" d="M146.47,107.02c.29-.05,.52,1.89,2.34,3.08,1.82,1.19,3.86,.74,3.91,1.01,.04,.12-.42,.43-1.29,.55-.85,.13-2.14,0-3.25-.73-1.11-.73-1.68-1.81-1.83-2.59-.17-.8,0-1.31,.13-1.31Z"/><path class="cls-20" d="M143.23,85.6c-.12,.51-1.93,.48-4,.98-2.08,.45-3.7,1.26-4.03,.86-.15-.19,.09-.69,.72-1.24,.62-.55,1.65-1.12,2.9-1.4,1.24-.28,2.42-.22,3.22,0,.81,.22,1.24,.56,1.19,.8Z"/><path class="cls-20" d="M159.86,85.21c-.27,.44-1.55,.16-3.03,.31-1.49,.1-2.7,.59-3.04,.2-.15-.19,0-.62,.5-1.07,.5-.45,1.36-.86,2.39-.95,1.02-.08,1.95,.18,2.51,.54,.57,.36,.79,.76,.68,.97Z"/><path class="cls-20" d="M123.69,70.51c-2.55,.84-5.43,7.79-4.68,10.36s3.15,4.44,5.75,5.1c2.6,.66,5.36,.26,7.93-.51,3.63-1.1,7.45-3.6,7.71-7.38,3.54,3.56,9.01,5.07,13.87,3.81,4.86-1.26,8.46-8.69,9.83-13.52l-40.41,2.14Z"/><path class="cls-18" d="M148.85,96.53c-.06,0-.03-.65-.33-1.77-.3-1.09-1.04-2.69-2.69-3.93-.82-.6-1.84-1.11-3.02-1.31-1.17-.19-2.49-.15-3.74,.33-1.25,.45-2.44,1.31-3.29,2.48-.87,1.16-1.36,2.65-1.38,4.19,.01,1.54,.5,3.03,1.38,4.19,.85,1.18,2.04,2.03,3.29,2.48,1.25,.48,2.57,.52,3.74,.33,1.18-.2,2.2-.71,3.02-1.31,1.65-1.23,2.39-2.83,2.69-3.92,.3-1.11,.27-1.77,.33-1.77,.02,0,.03,.16,.03,.47,0,.31-.03,.77-.16,1.35-.24,1.14-.96,2.83-2.66,4.17-.84,.65-1.92,1.21-3.16,1.44-1.24,.23-2.64,.2-3.98-.3-1.34-.47-2.62-1.37-3.54-2.63-.94-1.24-1.47-2.85-1.49-4.5,.01-1.65,.55-3.25,1.49-4.49,.91-1.26,2.2-2.16,3.54-2.63,1.34-.5,2.74-.53,3.98-.3,1.25,.23,2.32,.79,3.16,1.44,1.7,1.33,2.42,3.03,2.66,4.17,.13,.58,.17,1.04,.16,1.35,0,.31-.01,.47-.03,.47Z"/><path class="cls-18" d="M167.25,93.21c-.06,0-.03-.65-.33-1.77-.3-1.09-1.04-2.69-2.69-3.92-.82-.6-1.84-1.11-3.02-1.31-1.17-.19-2.49-.15-3.74,.33-1.25,.45-2.44,1.31-3.29,2.48-.87,1.16-1.36,2.65-1.38,4.19,.01,1.54,.5,3.03,1.38,4.19,.85,1.18,2.04,2.03,3.29,2.48,1.25,.48,2.57,.52,3.74,.33,1.18-.2,2.2-.71,3.02-1.31,1.65-1.23,2.39-2.83,2.69-3.93,.3-1.11,.27-1.77,.33-1.77,.02,0,.03,.16,.03,.47,0,.31-.03,.77-.16,1.35-.24,1.14-.96,2.83-2.66,4.17-.84,.65-1.92,1.21-3.16,1.44-1.24,.23-2.64,.2-3.98-.3-1.34-.47-2.62-1.37-3.54-2.63-.94-1.24-1.47-2.85-1.48-4.5,.01-1.65,.55-3.25,1.49-4.49,.91-1.26,2.2-2.16,3.54-2.63,1.34-.5,2.74-.53,3.98-.3,1.25,.23,2.32,.79,3.16,1.44,1.7,1.33,2.42,3.03,2.66,4.17,.13,.58,.17,1.04,.16,1.35,0,.31-.01,.47-.03,.47Z"/><path class="cls-18" d="M147.75,92.48c-.06-.01-.07-.35,.17-.83,.24-.47,.78-1.07,1.59-1.32,.81-.25,1.59-.07,2.06,.18,.47,.26,.66,.54,.62,.59-.05,.06-.31-.11-.76-.25-.44-.14-1.1-.23-1.76-.03-.66,.21-1.15,.65-1.43,1.02-.29,.37-.41,.66-.48,.64Z"/><path class="cls-18" d="M133.89,98.27c.05,.13-1.22,.68-2.83,1.22-1.61,.54-2.95,.87-2.99,.73-.04-.14,1.23-.69,2.83-1.22,1.6-.54,2.94-.86,2.99-.73Z"/></g><g><path class="cls-5" d="M261.28,120.66c2.15-.83,1.26-3.07,1.26-3.07l-7.99,2.41s4.24-1.72,6.41-3.5c2.17-1.78,1.09-3.32,1.09-3.32l-8.23,3.18-4.65,2.74-11.65,17.79s9.11,4.45,10.72,3.17c2.83-2.26,4.38-7.3,5.01-9.86,1.14-.33,4.74-1.4,5.71-2.05,1.16-.77,1.71-1.93,1.71-1.93l-6.34,1.21c.92-.27,6.8-2.28,7.27-3,.82-1.27,.3-1.83,.3-1.83l-7.97,1.24,.82-.6s4.46-1.78,6.53-2.58Z"/><path class="cls-7" d="M231.94,139.18l-26.81,24.55c-3.33-.77-44.15-25.17-44.15-25.17l-6.45,31.4s41.78,19.21,53.28,16.88c1.88-.38,4.97-.62,6.9-3.11,9.2-11.82,28.71-41.07,28.71-41.07l-11.47-3.48Z"/><path class="cls-5" d="M250.15,137.95l-4.84-2.33,3.5-6.33,2.74-5.8,4.25-7.89-6.47,2.43c-.77,.33-1.44,.84-1.95,1.49l-10.65,14.71-4.72,4.81,4.56,12.26,5.36-8.36,3.13-.73c3.13-.73,5.11-4.27,5.11-4.27Z"/><g><path class="cls-5" d="M242.37,127.99c2.23-1.12,4.55-2.03,6.95-2.71,.78-.23,1.6-.43,2.4-.31,.8,.12,1.6,.63,1.82,1.42,.24,.89-.34,1.84-1.11,2.34-.77,.5-1.71,.68-2.6,.91-.89,.23-1.82,.56-2.41,1.27-.56,.67-.74,1.56-1.03,2.38-.96,2.67-3.39,4.75-6.17,5.29"/><path d="M240.21,138.58s.43-.13,1.17-.43c.73-.3,1.77-.83,2.79-1.82,.5-.49,1-1.09,1.41-1.8,.43-.72,.69-1.53,.98-2.46,.16-.46,.36-.94,.72-1.35,.35-.41,.83-.71,1.32-.92,.99-.44,2.09-.54,3.06-.94,.49-.2,.91-.47,1.23-.85,.31-.37,.5-.84,.48-1.28-.05-.92-1.02-1.51-1.87-1.56-.89-.07-1.76,.21-2.57,.44-.81,.24-1.55,.48-2.23,.71-1.35,.47-2.42,.91-3.16,1.23-.74,.31-1.15,.49-1.16,.46-.01-.03,.37-.26,1.08-.62,.72-.36,1.78-.86,3.12-1.37,.67-.26,1.42-.52,2.23-.77,.8-.24,1.69-.56,2.71-.5,.51,.03,1.03,.2,1.47,.53,.44,.32,.8,.85,.83,1.45,.05,1.22-.93,2.2-1.99,2.6-1.06,.43-2.15,.53-3.05,.93-.45,.19-.86,.45-1.16,.79-.3,.34-.49,.77-.65,1.2-.29,.88-.59,1.79-1.05,2.52-.44,.74-.98,1.35-1.52,1.85-1.08,.99-2.18,1.5-2.95,1.75-.39,.12-.69,.2-.91,.23-.21,.03-.32,.04-.33,.03Z"/></g></g><g><path class="cls-20" d="M157.94,226.91h-54.95s-8.11,10.21-13.46,20.85l78.32,.32c1.54-2.52-9.91-21.17-9.91-21.17Z"/><path class="cls-21" d="M174.19,176.95c-1.86-24.6-7.96-40.06-7.96-40.06l-9.52-2.93h0c-1.44,6.29-11.68,8.36-17.52,5.61l-6.17-3.23c-19.81-2.97-18.78-1.33-23.36,1.42-3.98,2.39-3.61,20.24-3.61,20.24,0,0-9.87,46.5-9.34,53.96,.54,7.46,6.29,14.95,6.29,14.95h54.95c5.53,0,7.11-12.51,6.73-17.05-.39-4.54,10.13-24.83,9.52-32.91Z"/><path class="cls-20" d="M122,192.43s.3,.32,.92,.78c.63,.46,1.58,1.07,2.84,1.66,1.26,.59,2.86,1.13,4.69,1.41,1.83,.26,3.91,.24,6-.26,4.22-.98,7.39-3.47,9.33-5.41,.98-.99,1.68-1.87,2.14-2.49,.45-.63,.67-1,.64-1.02-.08-.07-1.08,1.34-3.07,3.22-1.98,1.84-5.11,4.2-9.18,5.14-4.06,.98-7.91,.11-10.39-.96-2.52-1.07-3.87-2.16-3.93-2.06Z"/><g class="cls-23"><path d="M147.65,188.36c-.42,4.15-2.4,8.18-5.65,10.8-3.24,2.62-7.75,3.71-11.76,2.56-4.01-1.15-7.34-4.61-8.03-8.73,2.83,1.29,5.7,2.59,8.77,3.05,6.55,.99,13.54-2.31,16.93-7.99-.15,.16-.3,.32-.45,.47"/></g><path class="cls-21" d="M84.93,175.81l27.69,12.98s11.29-24.97,12.26-28.39c.97-3.41,4.02-8.82,.89-15.94-3.12-7.12-11.49-9.73-16.12-6.7-10.36,6.79-24.72,38.04-24.72,38.04Z"/><path class="cls-21" d="M172,177.13c1.29,0,16.14,7.77,16.14,7.77l8.45-28c-12.62-8.41-22.98-18.02-30.37-20l3.88,23.14,1.9,17.1Z"/><path class="cls-20" d="M84.93,175.81s.2,.05,.55,.19c.4,.17,.91,.39,1.53,.65,1.39,.62,3.28,1.46,5.6,2.48,4.76,2.17,11.23,5.12,18.38,8.38,.77,.35,1.53,.7,2.24,1.03l-.35,.12c3.2-6.59,6-12.48,7.98-16.73,.96-2.08,1.74-3.78,2.32-5.03,.25-.55,.46-1,.62-1.36,.15-.31,.23-.47,.25-.46,.02,0-.04,.18-.15,.5-.12,.32-.29,.8-.54,1.4-.48,1.21-1.22,2.95-2.17,5.1-1.9,4.3-4.64,10.22-7.83,16.81l-.11,.23-.24-.11-2.24-1.03c-7.12-3.31-13.57-6.31-18.31-8.52-2.28-1.09-4.15-1.98-5.53-2.64-.6-.3-1.1-.55-1.49-.74-.34-.18-.51-.27-.5-.29Z"/><path class="cls-20" d="M169.45,154.14s.23,.61,.57,1.72c.37,1.2,.86,2.79,1.46,4.73,1.2,3.98,2.95,9.59,3.03,16.05-.05,3.23-.71,6.25-1.48,8.91-.77,2.67-1.66,5-2.42,6.95-.77,1.95-1.42,3.5-1.87,4.58-.45,1.08-.71,1.67-.74,1.66-.02,0,.02-.16,.12-.46,.12-.35,.26-.77,.44-1.27,.43-1.17,1.01-2.74,1.72-4.64,.71-1.96,1.57-4.3,2.31-6.95,.74-2.65,1.37-5.62,1.42-8.78-.08-6.35-1.75-11.94-2.86-15.95-.57-2.01-1.02-3.64-1.3-4.78-.14-.57-.24-1.01-.31-1.31-.06-.3-.09-.46-.07-.47Z"/><path class="cls-20" d="M146.04,148.56c-.43-4.07-2.57-7.84-5.47-10.74-1.43-1.44-3.16-2.88-3.44-4.89-.36-2.61,1.9-5.05,1.53-7.66-.46-3.25-4.53-4.67-5.99-7.61-1.96-3.96,1.45-9.11-.65-13-1.26-2.34-4.28-3.6-4.88-6.19-.39-1.68,2.81-4.13,3.55-7.77,1.67-8.19,2.52-14.52-5.43-19.28l-4.64-6.36c-5.21,2.54-9.58,8.25-9.67,14.23-.04,2.82,1.4,5.65,.17,8.19-1.71,3.55-5.71,5.73-6.92,9.48-1.73,5.37,3.03,11.37,.95,16.61-1.22,3.09-4.45,4.85-6.47,7.49-3.17,4.13-2.85,10.55,.73,14.34-5.06,3.41-7.4,10.36-5.43,16.14,.83,2.43,2.7,4.84,5.26,4.98,3.67,.2,5.76-3.95,8.45-6.46,4.17-3.9,11.49-3.7,15.45,.4,2.82,2.93,3.96,7.33,7.25,9.73,3.31,2.41,8.23,1.97,11.41-.6,3.18-2.58,4.65-6.93,4.22-11.01Z"/></g><g><path class="cls-5" d="M109.9,187.03c-5.24,8.62-8.9,13.57-8.9,13.57l47.03,28.64-5.48,12.73-61-25.11s-6.01-6.19-3.89-13.08l9.73-26.84,22.51,10.09Z"/><path d="M89.56,204.98c.11,.15,2.33-1.72,5.63-2.92,3.28-1.24,6.19-1.27,6.17-1.46,.03-.14-2.97-.37-6.38,.91-3.41,1.25-5.54,3.38-5.43,3.47Z"/></g><path class="cls-5" d="M184.52,237.97l-11.73-5.61-22.89-1.82-1.87-1.3-5.48,12.73s6,2.87,9.14,3.12l19.25-.58,10.06,1.06,3.52-7.61Z"/><g><g><path class="cls-17" d="M250.5,192.79l-65.99,.54c-2.14,0-4.19,1.03-4.51,3.14l-7.21,48.1h-33.99c-1.09,0-1.98,.89-1.98,1.98s.89,1.98,1.98,1.98h108.56l7.42-50.76c.4-2.62-1.63-4.98-4.28-4.98Z"/><path class="cls-20" d="M250.5,192.79s.36-.05,1.04,.1c.66,.15,1.7,.56,2.52,1.67,.41,.54,.72,1.27,.82,2.11,.11,.85-.14,1.75-.24,2.71-.28,1.94-.59,4.18-.95,6.7-1.45,10.08-3.55,24.62-6.12,42.48l-.03,.17h-.18c-28.09,.02-65.01,.04-105.32,.06h-2.83c-.44,.02-1.05,0-1.5-.29-.47-.26-.83-.69-1.02-1.19-.4-1.01,.08-2.24,1.02-2.74,.45-.27,1.05-.3,1.49-.28h1.4c3.72,0,7.4,0,11.03,0,7.27,0,14.34,0,21.16,0l-.25,.22c2.6-17.22,5.02-33.29,7.19-47.71,.08-.91,.49-1.9,1.22-2.51,.72-.64,1.62-.97,2.52-1.11,.92-.14,1.79-.06,2.66-.09,.87,0,1.73-.01,2.59-.02,3.43-.02,6.74-.05,9.93-.07,6.39-.04,12.29-.08,17.66-.11,10.71-.05,19.26-.1,25.14-.13,2.92,0,5.18,0,6.72-.01,.75,0,1.33,0,1.74,0,.39,0,.59,.02,.59,.02,0,0-.2,.02-.59,.03-.4,0-.98,.02-1.74,.04-1.54,.02-3.8,.06-6.72,.1-5.88,.07-14.42,.16-25.13,.28-5.36,.05-11.27,.11-17.66,.17-3.19,.03-6.51,.06-9.93,.09-.86,0-1.72,.02-2.59,.02-.87,.03-1.76-.04-2.6,.09-.84,.13-1.67,.45-2.3,1.02-.65,.56-.99,1.35-1.07,2.25-2.15,14.42-4.55,30.49-7.12,47.72l-.03,.22h-.22c-6.82,0-13.9,0-21.16,0-3.63,0-7.31,0-11.03,0h-1.4c-.49-.01-.86,0-1.23,.21-.72,.38-1.08,1.32-.78,2.09,.14,.38,.42,.71,.77,.91,.37,.21,.74,.23,1.24,.22,.94,0,1.89,0,2.83,0,40.31,.02,77.23,.05,105.32,.06l-.2,.17c2.65-17.85,4.8-32.38,6.3-42.46,.38-2.51,.71-4.75,1-6.69,.12-.97,.37-1.86,.27-2.67-.08-.81-.38-1.52-.77-2.05-.78-1.09-1.79-1.51-2.44-1.68-.67-.16-1.03-.13-1.03-.16Z"/></g><circle class="cls-5" cx="214.71" cy="220.05" r="4.13"/><path class="cls-20" d="M175.47,248.08c.09,.02,2.19-12.23,4.69-27.35,2.5-15.12,4.45-27.39,4.35-27.41-.09-.02-2.19,12.23-4.69,27.35-2.5,15.12-4.45,27.39-4.35,27.41Z"/></g></g></g></g></svg>